SplineFontDB: 3.0
FontName: aghtex_mathit
FullName: aghtex_mathit
FamilyName: aghtex_mathit
Weight: Medium
Copyright: Copyright (c) 1997, 2009 American Mathematical Society (<http://www.ams.org>), with Reserved Font Name CMMI10, 2012, KM.
Version: 3.2.0.1
ItalicAngle: -14.04
UnderlinePosition: -99
UnderlineWidth: 49
Ascent: 819
Descent: 205
LayerCount: 2
Layer: 0 1 "+gMyXYgAA"  1
Layer: 1 1 "+Uk2XYgAA"  0
NeedsXUIDChange: 1
UniqueID: 5087385
FSType: 8
OS2Version: 1
OS2_WeightWidthSlopeOnly: 0
OS2_UseTypoMetrics: 0
CreationTime: 1344259757
ModificationTime: 1411980116
PfmFamily: 17
TTFWeight: 500
TTFWidth: 5
LineGap: 90
VLineGap: 0
OS2TypoAscent: 0
OS2TypoAOffset: 1
OS2TypoDescent: 0
OS2TypoDOffset: 1
OS2TypoLinegap: 90
OS2WinAscent: 0
OS2WinAOffset: 1
OS2WinDescent: 0
OS2WinDOffset: 1
HheadAscent: 0
HheadAOffset: 1
HheadDescent: 0
HheadDOffset: 1
OS2Vendor: 'PfEd'
MarkAttachClasses: 1
DEI: 91125
TtTable: prep
PUSHW_1
 511
SCANCTRL
PUSHB_1
 1
SCANTYPE
SVTCA[y-axis]
MPPEM
PUSHB_1
 8
LT
IF
PUSHB_2
 1
 1
INSTCTRL
EIF
PUSHB_2
 70
 6
CALL
IF
POP
PUSHB_1
 16
EIF
MPPEM
PUSHB_1
 20
GT
IF
POP
PUSHB_1
 128
EIF
SCVTCI
PUSHB_1
 6
CALL
NOT
IF
SVTCA[y-axis]
PUSHB_1
 5
DUP
RCVT
PUSHB_1
 3
CALL
WCVTP
PUSHB_1
 6
DUP
RCVT
PUSHB_3
 5
 113
 2
CALL
PUSHB_1
 3
CALL
WCVTP
SVTCA[x-axis]
PUSHB_1
 7
DUP
RCVT
PUSHB_1
 3
CALL
WCVTP
EIF
PUSHB_1
 20
CALL
EndTTInstrs
TtTable: fpgm
PUSHB_1
 0
FDEF
PUSHB_1
 0
SZP0
MPPEM
PUSHB_1
 46
LT
IF
PUSHB_1
 74
SROUND
EIF
PUSHB_1
 0
SWAP
MIAP[rnd]
RTG
PUSHB_1
 6
CALL
IF
RTDG
EIF
MPPEM
PUSHB_1
 46
LT
IF
RDTG
EIF
DUP
MDRP[rp0,rnd,grey]
PUSHB_1
 1
SZP0
MDAP[no-rnd]
RTG
ENDF
PUSHB_1
 1
FDEF
DUP
MDRP[rp0,min,white]
PUSHB_1
 12
CALL
ENDF
PUSHB_1
 2
FDEF
MPPEM
GT
IF
RCVT
SWAP
EIF
POP
ENDF
PUSHB_1
 3
FDEF
ROUND[Black]
RTG
DUP
PUSHB_1
 64
LT
IF
POP
PUSHB_1
 64
EIF
ENDF
PUSHB_1
 4
FDEF
PUSHB_1
 6
CALL
IF
POP
SWAP
POP
ROFF
IF
MDRP[rp0,min,rnd,black]
ELSE
MDRP[min,rnd,black]
EIF
ELSE
MPPEM
GT
IF
IF
MIRP[rp0,min,rnd,black]
ELSE
MIRP[min,rnd,black]
EIF
ELSE
SWAP
POP
PUSHB_1

StartChar: A
Encoding: 65 65 0
Width: 750
VWidth: 1000
Flags: W
HStem: -8 49<25 121 200 254 452 537 650 721> 221 51<317 517>
VStem: 25 175<3 71>
LayerCount: 2
Fore
SplineSet
577 716 m 0,0,1
 579 712 579 712 579.5 709.5 c 128,-1,2
 580 707 580 707 580 706 c 0,3,4
 582 695 582 695 582 693 c 2,5,-1
 643 68 l 2,6,7
 645 52 645 52 648 47 c 0,8,9
 649 46 649 46 650 45 c 0,10,-1
 651 45 l 0,11,-1
 652 45 l 0,12,13
 662 42 662 42 698 41 c 0,14,15
 713 41 713 41 721 37 c 0,16,17
 731 31 731 31 731 20 c 0,18,19
 731 -10 731 -10 703 -10 c 0,20,21
 690 -10 690 -10 646 -8 c 0,22,23
 602 -7 602 -7 590 -7 c 0,24,25
 570 -7 570 -7 528 -8 c 0,26,27
 478 -10 478 -10 465 -10 c 0,28,29
 457 -10 457 -10 453 -8 c 0,30,31
 441 -3 441 -3 441 11 c 0,32,33
 441 24 441 24 445 30 c 0,34,35
 448 34 448 34 452 37 c 0,36,37
 460 41 460 41 475 41 c 0,38,39
 537 41 537 41 537 64 c 0,40,41
 537 73 537 73 534 103 c 2,42,-1
 526 182 l 2,43,44
 522 220 522 220 522 221 c 1,45,-1
 286 221 l 1,46,-1
 213 98 l 2,47,48
 200 76 200 76 200 66 c 0,49,50
 200 44 200 44 237 41 c 0,51,52
 249 40 249 40 254.5 36 c 128,-1,53
 260 32 260 32 262 25 c 0,54,55
 263 22 263 22 263 19 c 0,56,57
 263 -10 263 -10 234 -10 c 0,58,59
 218 -10 218 -10 184 -8 c 0,60,61
 151 -7 151 -7 134 -7 c 0,62,63
 120 -7 120 -7 91 -8 c 0,64,65
 56 -10 56 -10 48 -10 c 0,66,67
 42 -10 42 -10 39 -9 c 0,68,69
 25 -5 25 -5 25 11 c 0,70,71
 25 22 25 22 28 28 c 0,72,73
 30 33 30 33 34 35 c 0,74,75
 41 39 41 39 55 41 c 0,76,77
 90 44 90 44 117 60 c 128,-1,78
 144 76 144 76 170 120 c 2,79,-1
 518 704 l 2,80,81
 531 726 531 726 553 726 c 0,82,83
 561 726 561 726 565 725 c 0,84,85
 573 724 573 724 577 716 c 0,0,1
317 272 m 1,86,-1
 517 272 l 1,87,-1
 489 561 l 1,88,-1
 317 272 l 1,86,-1
EndSplineSet
Validated: 19457
EndChar

StartChar: B
Encoding: 66 66 1
Width: 757
VWidth: 1000
Flags: W
HStem: -10 51<37 132 241 492> 334 42<324 550> 642 51<200 287 392 393 393 626>
VStem: 599 113<146 292> 655 111<474 613>
LayerCount: 2
Fore
SplineSet
284 617 m 2,0,1
 288 632 288 632 288 634 c 128,-1,2
 288 636 288 636 287 637 c 128,-1,3
 286 638 286 638 284 638.5 c 128,-1,4
 282 639 282 639 270 640 c 0,5,6
 252 642 252 642 233 642 c 0,7,8
 215 642 215 642 205 644.5 c 128,-1,9
 195 647 195 647 195 663 c 0,10,11
 195 676 195 676 200 683 c 0,12,13
 203 687 203 687 209 690 c 128,-1,14
 215 693 215 693 234 693 c 2,15,-1
 570 693 l 2,16,17
 661 693 661 693 713.5 650.5 c 128,-1,18
 766 608 766 608 766 545 c 0,19,20
 766 472 766 472 709 424.5 c 128,-1,21
 652 377 652 377 593 358 c 1,22,23
 637 345 637 345 674.5 310 c 128,-1,24
 712 275 712 275 712 216 c 0,25,26
 712 133 712 133 627.5 61.5 c 128,-1,27
 543 -10 543 -10 426 -10 c 2,28,-1
 69 -10 l 2,29,30
 52 -10 52 -10 42 -7.5 c 128,-1,31
 32 -5 32 -5 32 11 c 0,32,33
 32 24 32 24 37 31 c 0,34,35
 40 35 40 35 46 38 c 128,-1,36
 52 41 52 41 69 41 c 0,37,38
 122 41 122 41 132.5 47 c 128,-1,39
 143 53 143 53 150 80 c 2,40,-1
 284 617 l 2,0,1
324 376 m 1,41,-1
 457 376 l 2,42,43
 541 376 541 376 598 430 c 128,-1,44
 655 484 655 484 655 549 c 0,45,46
 655 586 655 586 632.5 614 c 128,-1,47
 610 642 610 642 556 642 c 2,48,-1
 427 642 l 2,49,50
 402 642 402 642 394 639 c 0,51,52
 393 639 393 639 393 638 c 0,53,54
 392 638 392 638 392 637 c 0,55,56
 388 631 388 631 383 612 c 2,57,-1
 324 376 l 1,41,-1
266 41 m 2,58,-1
 402 41 l 2,59,60
 484 41 484 41 541.5 98 c 128,-1,61
 599 155 599 155 599 227 c 0,62,63
 599 245 599 245 594.5 261.5 c 128,-1,64
 590 278 590 278 579 296 c 0,65,66
 569 313 569 313 548 323 c 0,67,68
 526 334 526 334 494 334 c 2,69,-1
 313 334 l 1,70,-1
 246 62 l 2,71,72
 242 47 242 47 241 43 c 0,73,-1
 245 42 l 0,74,75
 251 41 251 41 266 41 c 2,58,-1
EndSplineSet
Validated: 19457
EndChar

StartChar: C
Encoding: 67 67 2
Width: 713
VWidth: 1000
Flags: W
HStem: -32 51<246 435> 664 51<403 586>
VStem: 40 111<134 355>
LayerCount: 2
Fore
SplineSet
707 437 m 2,0,1
 705 430 705 430 704 427.5 c 128,-1,2
 703 425 703 425 701 420.5 c 128,-1,3
 699 416 699 416 697 414 c 128,-1,4
 695 412 695 412 693 411.5 c 128,-1,5
 691 411 691 411 687 410.5 c 128,-1,6
 683 410 683 410 679 410 c 0,7,8
 671 410 671 410 667 412 c 0,9,10
 654 417 654 417 654 430 c 0,11,12
 654 432 654 432 655.5 445 c 128,-1,13
 657 458 657 458 657 481 c 0,14,15
 657 565 657 565 617 614.5 c 128,-1,16
 577 664 577 664 506 664 c 0,17,18
 442 664 442 664 378.5 631.5 c 128,-1,19
 315 599 315 599 270 546 c 0,20,21
 206 471 206 471 178.5 376 c 128,-1,22
 151 281 151 281 151 217 c 0,23,24
 151 115 151 115 206.5 67 c 128,-1,25
 262 19 262 19 337 19 c 0,26,27
 427 19 427 19 515 90 c 1,28,29
 583 147 583 147 612 242 c 0,30,31
 614 249 614 249 618 253 c 0,32,33
 619 254 619 254 620 255 c 0,34,35
 626 260 626 260 635 260 c 0,36,-1
 641 259 l 0,37,38
 657 256 657 256 657 240 c 0,39,40
 657 232 657 232 649.5 209 c 128,-1,41
 642 186 642 186 613 139 c 128,-1,42
 584 92 584 92 544 57 c 0,43,44
 443 -32 443 -32 321.5 -32 c 128,-1,45
 200 -32 200 -32 120 47 c 128,-1,46
 40 126 40 126 40 252 c 0,47,48
 40 339 40 339 80 424.5 c 128,-1,49
 120 510 120 510 183 573 c 128,-1,50
 246 636 246 636 330 675.5 c 128,-1,51
 414 715 414 715 498 715 c 0,52,53
 606 715 606 715 665 632 c 1,54,-1
 727 700 l 2,55,56
 738 710 738 710 742 713 c 0,57,58
 746 715 746 715 749 715 c 0,59,60
 770 715 770 715 770 695 c 2,61,-1
 770 694 l 1,62,-1
 707 437 l 2,0,1
EndSplineSet
Validated: 19457
EndChar

StartChar: D
Encoding: 68 68 3
Width: 826
VWidth: 1000
Flags: W
HStem: -10 51<30 131 243 489> 642 51<198 287 396 629>
VStem: 707 107<326 548>
LayerCount: 2
Fore
SplineSet
283 617 m 2,0,1
 287 632 287 632 287 634 c 0,2,3
 287 637 287 637 281 638 c 0,4,5
 277 639 277 639 274 640 c 0,6,7
 253 642 253 642 232 642 c 0,8,9
 220 642 220 642 213 642.5 c 128,-1,10
 206 643 206 643 200.5 647.5 c 128,-1,11
 195 652 195 652 194 658 c 0,12,13
 193 661 193 661 193 664 c 0,14,15
 194 677 194 677 198 683 c 0,16,17
 201 687 201 687 207.5 690 c 128,-1,18
 214 693 214 693 233 693 c 2,19,-1
 569 693 l 2,20,21
 683 693 683 693 748.5 618.5 c 128,-1,22
 814 544 814 544 814 430 c 0,23,24
 814 320 814 320 755 218 c 128,-1,25
 696 116 696 116 600 53 c 128,-1,26
 504 -10 504 -10 399 -10 c 2,27,-1
 68 -10 l 2,28,29
 55 -10 55 -10 49 -9.5 c 128,-1,30
 43 -9 43 -9 37.5 -4.5 c 128,-1,31
 32 0 32 0 31 6 c 0,32,33
 30 9 30 9 30 12 c 0,34,35
 30 23 30 23 33 28.5 c 128,-1,36
 36 34 36 34 43 37.5 c 128,-1,37
 50 41 50 41 68 41 c 0,38,39
 121 41 121 41 131.5 47 c 128,-1,40
 142 53 142 53 149 80 c 2,41,-1
 283 617 l 2,0,1
385 612 m 2,42,-1
 248 62 l 2,43,44
 244 47 244 47 243 43 c 0,45,46
 247 42 l 0,47,48
 253 41 253 41 268 41 c 2,49,-1
 381 41 l 2,50,51
 459 41 459 41 516 76 c 0,52,53
 574 112 574 112 604 150 c 0,54,55
 658 220 658 220 682.5 315 c 128,-1,56
 707 410 707 410 707 467 c 0,57,58
 707 557 707 557 660 599 c 0,59,60
 612 642 612 642 536 642 c 2,61,-1
 429 642 l 2,62,63
 404 642 404 642 396 639 c 2,64,-1
 395 638 l 2,65,66
 394 637 l 0,67,68
 390 632 390 632 385 612 c 2,42,-1
EndSplineSet
Validated: 19457
EndChar

StartChar: E
Encoding: 69 69 4
Width: 737
VWidth: 1000
Flags: W
HStem: -10 51<36 130 244 542> 328 51<328 479> 639 51<191 284 397 685>
VStem: 530 46<445 493> 679 44<202 268>
LayerCount: 2
Fore
SplineSet
625 13 m 2,0,1
 619 -1 619 -1 613 -5 c 0,2,3
 612 -6 612 -6 611 -6 c 0,4,5
 607 -8 607 -8 605 -8 c 0,6,7
 604 -8 604 -8 603 -9 c 0,8,9
 596 -10 596 -10 585 -10 c 2,10,-1
 66 -10 l 2,11,12
 53 -10 53 -10 48 -9 c 0,13,14
 40 -8 40 -8 36 -5 c 0,15,16
 31 -1 31 -1 29 6 c 0,17,18
 28 9 28 9 28 12 c 0,19,20
 28 23 28 23 31 28.5 c 128,-1,21
 34 34 34 34 40 37 c 0,22,23
 48 41 48 41 66 41 c 0,24,25
 119 41 119 41 130 48 c 0,26,27
 140 54 140 54 147 80 c 2,28,-1
 279 610 l 2,29,30
 284 627 284 627 284 631 c 128,-1,31
 284 635 284 635 277 636 c 0,32,33
 263 639 263 639 229 639 c 0,34,35
 211 639 211 639 204 641 c 0,36,37
 191 645 191 645 191 660 c 0,38,39
 191 673 191 673 196 680 c 0,40,41
 199 684 199 684 203 686 c 0,42,43
 211 690 211 690 231 690 c 2,44,-1
 736 690 l 2,45,46
 758 690 758 690 765 685 c 0,47,48
 766 684 766 684 767 683 c 0,49,-1
 771 678 l 0,50,51
 774 673 774 673 774 663 c 0,52,53
 774 658 774 658 773 652 c 2,54,-1
 753 479 l 2,55,56
 752 467 752 467 751 462 c 0,57,58
 749 454 749 454 743 450 c 0,59,60
 737 445 737 445 729 445 c 0,61,62
 723 445 723 445 720 447 c 0,63,64
 712 450 712 450 709 458 c 0,65,66
 707 462 707 462 707 467 c 0,67,68
 707 469 707 469 708 476 c 0,69,70
 708 482 708 482 708 485 c 2,71,-1
 708 486 l 1,72,73
 712 513 712 513 712 538 c 0,74,75
 712 596 712 596 685 617 c 0,76,77
 657 639 657 639 570 639 c 2,78,-1
 429 639 l 2,79,80
 404 639 404 639 397 636 c 2,81,-1
 396 635 l 2,82,-1
 395 634 l 0,83,84
 390 628 390 628 385 608 c 2,85,-1
 328 379 l 1,86,-1
 409 379 l 2,87,88
 472 379 472 379 493.5 396.5 c 128,-1,89
 515 414 515 414 530 470 c 0,90,91
 535 487 535 487 544 493 c 0,92,93
 549 496 549 496 554 496 c 128,-1,94
 559 496 559 496 561 495 c 0,95,96
 576 491 576 491 576 475 c 2,97,-1
 576 474 l 1,98,-1
 519 239 l 2,99,100
 514 220 514 220 504 214 c 0,101,102
 499 211 499 211 494 211 c 0,103,104
 488 211 488 211 485 212 c 0,105,106
 471 216 471 216 471 232 c 0,107,108
 471 233 471 233 474 246 c 0,109,110
 481 272 481 272 481 292 c 0,111,112
 481 306 481 306 479 312 c 0,113,114
 479 313 479 313 477 314 c 0,115,116
 473 318 473 318 462 322 c 0,117,118
 444 328 444 328 406 328 c 2,119,-1
 315 328 l 1,120,-1
 249 62 l 2,121,122
 245 47 245 47 244 43 c 0,123,124
 245 43 245 43 248 42 c 0,125,126
 255 41 255 41 269 41 c 2,127,-1
 415 41 l 2,128,129
 465 41 465 41 501 49.5 c 128,-1,130
 537 58 537 58 561 72 c 0,131,132
 584 85 584 85 605 113 c 0,133,134
 627 143 627 143 642 171 c 128,-1,135
 657 199 657 199 679 250 c 1,136,137
 685 268 685 268 701 268 c 0,138,139
 706 268 706 268 708 267 c 0,140,141
 723 263 723 263 723 247 c 0,142,143
 723 244 723 244 717 229 c 2,144,-1
 625 13 l 2,0,1
EndSplineSet
Validated: 19457
EndChar

StartChar: F
Encoding: 70 70 5
Width: 642
VWidth: 1000
Flags: W
HStem: -10 49<28 130 250 353> 315 51<324 462> 639 51<191 284 397 672>
VStem: 463 46<201 252>
LayerCount: 2
Fore
SplineSet
251 74 m 2,0,1
 247 60 247 60 247 53 c 0,2,3
 247 48 247 48 248 47 c 0,4,5
 249 47 l 1,6,7
 250 47 250 47 250 46 c 0,8,9
 256 44 256 44 270 43 c 0,10,11
 293 41 293 41 321 41 c 0,12,13
 345 41 345 41 350 40 c 0,14,15
 351 40 351 40 352 39 c 2,16,-1
 353 39 l 1,17,-1
 356 37 l 2,18,19
 357 36 l 0,20,21
 359 34 359 34 360 34 c 0,22,23
 362 32 362 32 362 31 c 0,24,25
 364 27 364 27 365 22 c 0,26,27
 365 20 365 20 365 19 c 0,28,29
 365 5 365 5 356.5 -2.5 c 128,-1,30
 348 -10 348 -10 334 -10 c 0,31,32
 318 -10 318 -10 260 -8 c 0,33,34
 202 -7 202 -7 185 -7 c 0,35,36
 170 -7 170 -7 119 -8 c 0,37,38
 61 -10 61 -10 53 -10 c 0,39,40
 44 -10 44 -10 38 -7 c 128,-1,41
 32 -4 32 -4 30 3 c 0,42,43
 28 7 28 7 28 12 c 0,44,45
 28 23 28 23 31 28.5 c 128,-1,46
 34 34 34 34 40 37 c 0,47,48
 48 41 48 41 66 41 c 0,49,50
 119 41 119 41 130 48 c 0,51,52
 140 54 140 54 147 80 c 2,53,-1
 279 610 l 2,54,55
 284 627 284 627 284 631 c 128,-1,56
 284 635 284 635 277 636 c 0,57,58
 263 639 263 639 229 639 c 0,59,60
 211 639 211 639 204 641 c 0,61,62
 191 645 191 645 191 660 c 0,63,64
 191 673 191 673 196 680 c 0,65,66
 199 684 199 684 203 686 c 0,67,68
 211 690 211 690 231 690 c 2,69,-1
 721 690 l 2,70,71
 743 690 743 690 750 685 c 0,72,73
 751 684 751 684 752 683 c 0,74,-1
 756 678 l 0,75,76
 759 673 759 673 759 663 c 0,77,78
 759 658 759 658 758 652 c 2,79,-1
 738 479 l 2,80,81
 737 467 737 467 736 462 c 0,82,83
 734 454 734 454 728 450 c 0,84,85
 722 445 722 445 714 445 c 0,86,87
 708 445 708 445 705 447 c 0,88,89
 697 450 697 450 694 458 c 0,90,91
 692 462 692 462 692 467 c 0,92,93
 692 470 692 470 694 486 c 0,94,95
 697 509 697 509 697 539 c 0,96,97
 697 595 697 595 672 617 c 0,98,99
 646 639 646 639 561 639 c 2,100,-1
 429 639 l 2,101,102
 404 639 404 639 397 636 c 2,103,-1
 396 635 l 2,104,-1
 395 634 l 0,105,106
 390 628 390 628 385 608 c 2,107,-1
 324 366 l 1,108,-1
 402 366 l 2,109,110
 463 366 463 366 484 382 c 0,111,112
 506 399 506 399 521 454 c 0,113,114
 525 471 525 471 528 474 c 0,115,116
 533 480 533 480 539 482 c 0,117,118
 542 483 542 483 546 483 c 0,119,120
 551 483 551 483 553 482 c 0,121,122
 568 478 568 478 568 462 c 0,123,124
 568 456 568 456 565 443 c 2,125,-1
 509 225 l 1,126,-1
 509 224 l 2,127,128
 499 206 499 206 494 201 c 0,129,130
 491 199 491 199 487 198 c 2,131,-1
 486 198 l 1,132,-1
 485 198 l 2,133,134
 478 199 478 199 476 200 c 0,135,136
 468 203 468 203 465 211 c 0,137,138
 463 215 463 215 463 220 c 0,139,140
 463 221 463 221 466 234 c 0,141,142
 473 260 473 260 473 280 c 0,143,144
 473 299 473 299 462 306 c 0,145,146
 449 315 449 315 400 315 c 2,147,-1
 311 315 l 1,148,-1
 251 74 l 2,0,1
EndSplineSet
Validated: 19457
EndChar

StartChar: G
Encoding: 71 71 6
Width: 785
VWidth: 1000
Flags: W
HStem: -32 51<249 444> 232 51<433 545 659 730> 664 51<402 586>
VStem: 40 111<136 354>
LayerCount: 2
Fore
SplineSet
707 437 m 2,0,1
 705 430 705 430 704 429 c 0,2,3
 703 425 703 425 702 422 c 0,4,5
 699 417 699 417 697 414 c 0,6,7
 695 412 695 412 693 411.5 c 128,-1,8
 691 411 691 411 687 411 c 0,9,10
 683 410 683 410 679 410 c 0,11,12
 671 410 671 410 667 412 c 0,13,14
 654 417 654 417 654 430 c 0,15,16
 654 432 654 432 656 445 c 0,17,18
 657 457 657 457 657 481 c 0,19,20
 657 565 657 565 617 615 c 0,21,22
 578 664 578 664 506 664 c 0,23,24
 438 664 438 664 372 628 c 0,25,26
 306 591 306 591 264 539 c 0,27,28
 218 481 218 481 190 405 c 128,-1,29
 162 329 162 329 156 288 c 0,30,31
 151 247 151 247 151 219 c 0,32,33
 151 118 151 118 207 69 c 0,34,35
 264 19 264 19 342 19 c 0,36,37
 360 19 360 19 382.5 23 c 128,-1,38
 405 27 405 27 437 37 c 0,39,40
 468 47 468 47 492 73 c 0,41,42
 516 97 516 97 525 133 c 0,43,44
 546 211 546 211 546 221 c 0,45,46
 546 225 546 225 545 226 c 0,47,48
 541 228 541 228 524 230 c 0,49,50
 502 232 502 232 472 232 c 0,51,52
 453 232 453 232 446 234 c 0,53,54
 432 237 432 237 432 253 c 0,55,56
 432 283 432 283 463 283 c 0,57,58
 478 283 478 283 533 281 c 0,59,60
 588 280 588 280 603 280 c 0,61,62
 614 280 614 280 655 281 c 0,63,64
 702 283 702 283 708 283 c 128,-1,65
 714 283 714 283 717 282 c 0,66,67
 731 278 731 278 731 262 c 0,68,69
 731 232 731 232 705 232 c 0,70,71
 668 232 668 232 659 226 c 0,72,-1
 658 225 l 0,73,74
 652 218 652 218 646 192 c 2,75,-1
 639 166 l 2,76,77
 634 147 634 147 633 141 c 2,78,-1
 614 64 l 2,79,80
 600 9 600 9 597 2 c 2,81,-1
 597 1 l 1,82,83
 594 -10 594 -10 580 -9 c 0,84,85
 576 -9 576 -9 572 -7 c 0,86,87
 563 -2 563 -2 549 17 c 0,88,89
 538 32 538 32 532 45 c 1,90,91
 498 11 498 11 452 -7 c 0,92,93
 391 -32 391 -32 323 -32 c 0,94,95
 198 -32 198 -32 119 48 c 128,-1,96
 40 128 40 128 40 252 c 0,97,98
 40 339 40 339 80 425 c 0,99,100
 120 510 120 510 183 573 c 128,-1,101
 246 636 246 636 330 676 c 0,102,103
 414 715 414 715 498 715 c 0,104,105
 606 715 606 715 665 632 c 1,106,-1
 727 700 l 2,107,108
 738 710 738 710 742 713 c 0,109,110
 746 715 746 715 749 715 c 0,111,112
 770 715 770 715 770 695 c 2,113,-1
 770 694 l 1,114,-1
 707 437 l 2,0,1
EndSplineSet
Validated: 19457
EndChar

StartChar: H
Encoding: 72 72 7
Width: 830
VWidth: 1000
Flags: W
HStem: -10 51<40 130 246 326 419 436 437 516 635 714> 330 51<328 599> 642 51<206 285 399 490 594 674 788 879>
VStem: 533 102<46 140>
LayerCount: 2
Fore
SplineSet
638 64 m 2,0,1
 638 62 638 62 636 57 c 0,2,3
 635 52 635 52 635 49 c 0,4,5
 635 45 635 45 642 44 c 0,6,7
 656 41 656 41 690 41 c 0,8,9
 707 41 707 41 714 39 c 0,10,11
 728 36 728 36 728 20 c 0,12,13
 728 14 728 14 727 9 c 0,14,15
 725 3 725 3 722 -0.5 c 128,-1,16
 719 -4 719 -4 716 -6 c 0,17,18
 712 -9 712 -9 709 -9 c 0,19,20
 705 -10 705 -10 698 -10 c 0,21,22
 688 -10 688 -10 666 -9 c 128,-1,23
 644 -8 644 -8 633 -8 c 128,-1,24
 622 -8 622 -8 601 -7 c 0,25,26
 580 -7 580 -7 569 -7 c 0,27,28
 555 -7 555 -7 506 -8 c 0,29,30
 450 -10 450 -10 442 -10 c 128,-1,31
 434 -10 434 -10 430 -8 c 0,32,33
 418 -3 418 -3 418 11 c 0,34,35
 418 24 418 24 422 30 c 0,36,37
 425 35 425 35 428 36.5 c 128,-1,38
 431 38 431 38 434 39 c 0,39,40
 435 39 435 39 436 40 c 0,41,42
 442 41 442 41 452 41 c 0,43,44
 501 41 501 41 516 46 c 0,45,46
 528 50 528 50 533 66 c 0,47,48
 533 68 533 68 534.5 73.5 c 128,-1,49
 536 79 536 79 538.5 88 c 128,-1,50
 541 97 541 97 543 104 c 2,51,-1
 568 204 l 1,52,-1
 599 330 l 1,53,-1
 315 330 l 1,54,-1
 249 64 l 2,55,56
 249 62 249 62 247 57 c 0,57,58
 246 52 246 52 246 49 c 0,59,60
 246 45 246 45 253 44 c 0,61,62
 267 41 267 41 301 41 c 0,63,64
 319 41 319 41 326 39 c 0,65,66
 339 35 339 35 339 20 c 0,67,68
 339 14 339 14 338 9 c 0,69,70
 336 3 336 3 333 -0.5 c 128,-1,71
 330 -4 330 -4 327 -6 c 0,72,73
 323 -9 323 -9 320 -9 c 0,74,75
 316 -10 316 -10 309 -10 c 0,76,77
 299 -10 299 -10 277 -9 c 128,-1,78
 255 -8 255 -8 244 -8 c 0,79,80
 234 -8 234 -8 212 -7 c 0,81,82
 190 -7 190 -7 180 -7 c 0,83,84
 166 -7 166 -7 117 -8 c 0,85,86
 61 -10 61 -10 53 -10 c 128,-1,87
 45 -10 45 -10 41 -8 c 0,88,89
 29 -3 29 -3 29 11 c 0,90,91
 29 24 29 24 33 30 c 0,92,93
 36 34 36 34 40 37 c 0,94,95
 48 41 48 41 66 41 c 0,96,97
 119 41 119 41 130 48 c 0,98,99
 140 54 140 54 147 80 c 2,100,-1
 281 617 l 2,101,102
 285 632 285 632 285 634 c 128,-1,103
 285 636 285 636 284 636 c 0,104,105
 283 637 283 637 281 638 c 128,-1,106
 279 639 279 639 267 640 c 0,107,108
 249 642 249 642 230 642 c 0,109,110
 213 642 213 642 206 644 c 0,111,112
 192 647 192 647 192 663 c 0,113,114
 192 671 192 671 194 676 c 0,115,116
 195 680 195 680 197 683 c 0,117,118
 200 687 200 687 202 689 c 0,119,120
 206 692 206 692 210 692 c 0,121,122
 214 693 214 693 221 693 c 0,123,124
 236 693 236 693 286 691 c 0,125,126
 336 690 336 690 350 690 c 128,-1,127
 364 690 364 690 414 691 c 0,128,129
 470 693 470 693 478 693 c 128,-1,130
 486 693 486 693 490 691 c 0,131,132
 502 686 502 686 502 672.5 c 128,-1,133
 502 659 502 659 497 652 c 0,134,135
 494 648 494 648 490 646 c 0,136,137
 482 642 482 642 458 642 c 0,138,139
 410 642 410 642 399 635 c 0,140,141
 390 629 390 629 384 604 c 2,142,-1
 328 381 l 1,143,-1
 612 381 l 1,144,-1
 670 617 l 2,145,146
 674 633 674 633 674 634 c 0,147,148
 674 636 674 636 673 636 c 0,149,150
 672 637 672 637 670 638 c 128,-1,151
 668 639 668 639 656 640 c 0,152,153
 638 642 638 642 619 642 c 0,154,155
 601 642 601 642 594 644 c 0,156,157
 581 648 581 648 581 663 c 0,158,159
 581 671 581 671 583 676 c 0,160,161
 584 680 584 680 586 683 c 0,162,163
 589 687 589 687 591 689 c 0,164,165
 595 692 595 692 599 692 c 0,166,167
 603 693 603 693 610 693 c 0,168,169
 624 693 624 693 674 691 c 0,170,171
 724 690 724 690 739 690 c 0,172,173
 753 690 753 690 803 691 c 0,174,175
 859 693 859 693 867 693 c 128,-1,176
 875 693 875 693 879 691 c 0,177,178
 891 686 891 686 891 672.5 c 128,-1,179
 891 659 891 659 886 652 c 0,180,181
 883 648 883 648 879 646 c 0,182,183
 871 642 871 642 847 642 c 0,184,185
 799 642 799 642 788 635 c 0,186,187
 779 629 779 629 773 604 c 2,188,-1
 638 64 l 2,0,1
EndSplineSet
Validated: 19457
EndChar

StartChar: I
Encoding: 73 73 8
Width: 438
VWidth: 1000
Flags: W
HStem: -10 51<36 131 249 336> 642 51<188 284 400 497>
LayerCount: 2
Fore
SplineSet
249 45 m 0,0,1
 253 44 253 44 262 43 c 0,2,3
 284 41 284 41 304 41 c 0,4,5
 317 41 317 41 323 40 c 0,6,7
 331 39 331 39 336 36 c 0,8,9
 341 32 341 32 343 25 c 0,10,11
 344 22 344 22 344 19 c 0,12,13
 344 -10 344 -10 314 -10 c 0,14,15
 299 -10 299 -10 247 -8 c 0,16,17
 195 -7 195 -7 180 -7 c 0,18,19
 166 -7 166 -7 115 -8 c 0,20,21
 57 -10 57 -10 49 -10 c 128,-1,22
 41 -10 41 -10 36 -8 c 0,23,24
 24 -3 24 -3 24 11 c 0,25,26
 24 24 24 24 29 31 c 0,27,28
 32 35 32 35 36 37 c 0,29,30
 44 41 44 41 66 41 c 0,31,32
 119 41 119 41 131 48 c 0,33,34
 141 54 141 54 147 80 c 2,35,-1
 282 619 l 2,36,37
 284 627 284 627 284 633 c 0,38,39
 284 638 284 638 277 639 c 0,40,41
 262 642 262 642 225 642 c 0,42,43
 207 642 207 642 200 644 c 0,44,45
 187 648 187 648 187 663 c 0,46,47
 187 693 187 693 217 693 c 0,48,49
 232 693 232 693 284 691 c 0,50,51
 335 690 335 690 350 690 c 0,52,53
 364 690 364 690 416 691 c 0,54,55
 475 693 475 693 482 693 c 0,56,57
 491 693 491 693 497 690 c 0,58,59
 501 688 501 688 505 680 c 0,60,61
 507 676 507 676 507 671 c 0,62,63
 507 660 507 660 504 654.5 c 128,-1,64
 501 649 501 649 495 646 c 0,65,66
 487 642 487 642 465 642 c 0,67,68
 412 642 412 642 400 635 c 0,69,70
 390 629 390 629 384 604 c 2,71,-1
 250 70 l 2,72,73
 246 54 246 54 246 51 c 0,74,75
 246 47 246 47 249 45 c 0,0,1
EndSplineSet
Validated: 19457
EndChar

StartChar: J
Encoding: 74 74 9
Width: 553
VWidth: 1000
Flags: W
HStem: -32 42<137 257> 51 126<120 170> 642 51<331 451 558 643>
VStem: 61 131<74 152>
LayerCount: 2
Fore
SplineSet
434 141 m 2,0,1
 415 65 415 65 346 16 c 0,2,3
 278 -32 278 -32 203 -32 c 0,4,5
 140 -32 140 -32 101 1 c 0,6,7
 61 35 61 35 61 87 c 0,8,9
 61 136 61 136 87 157 c 0,10,11
 112 177 112 177 138 177 c 0,12,13
 157 177 157 177 174 165 c 0,14,15
 192 152 192 152 192 125 c 0,16,17
 192 97 192 97 171 74 c 0,18,19
 151 52 151 52 120 51 c 1,20,21
 130 32 130 32 148 23 c 0,22,23
 174 10 174 10 200 10 c 0,24,25
 238 10 238 10 278 48 c 128,-1,26
 318 86 318 86 334 152 c 2,27,-1
 449 611 l 2,28,29
 453 626 453 626 453 630 c 0,30,31
 453 635 453 635 451 636 c 0,32,33
 447 639 447 639 431 640 c 0,34,35
 408 642 408 642 374 642 c 0,36,37
 351 642 351 642 344 644 c 0,38,39
 330 647 330 647 330 663 c 0,40,41
 330 693 330 693 361 693 c 0,42,43
 378 693 378 693 435 691 c 0,44,45
 492 690 492 690 508 690 c 0,46,47
 520 690 520 690 563 691 c 0,48,49
 612 693 612 693 619 693 c 0,50,51
 627 693 627 693 632 690 c 0,52,53
 639 687 639 687 641 681 c 0,54,55
 643 676 643 676 643 671 c 0,56,57
 643 660 643 660 640 654.5 c 128,-1,58
 637 649 637 649 631 646 c 0,59,60
 623 642 623 642 606 642 c 0,61,62
 580 642 580 642 569 638 c 0,63,64
 563 636 563 636 560 634 c 0,65,66
 559 633 559 633 558 632 c 0,67,68
 555 626 555 626 551 608 c 2,69,-1
 434 141 l 2,0,1
EndSplineSet
Validated: 19457
EndChar

StartChar: K
Encoding: 75 75 10
Width: 848
VWidth: 1000
Flags: W
HStem: -10 51<28 130 246 338 490 552 682 741> 642 51<199 285 399 490 676 710 796 898>
LayerCount: 2
Fore
SplineSet
660 80 m 2,0,1
 670 57 670 57 681 49 c 0,2,3
 692 42 692 42 720 41 c 0,4,5
 734 40 734 40 741 36 c 0,6,7
 750 30 750 30 750 20 c 0,8,9
 750 -10 750 -10 722 -10 c 0,10,11
 711 -10 711 -10 673 -8 c 0,12,13
 635 -7 635 -7 624 -7 c 0,14,15
 604 -7 604 -7 563 -8 c 0,16,17
 514 -10 514 -10 502 -10 c 0,18,19
 494 -10 494 -10 490 -8 c 0,20,21
 478 -3 478 -3 478 11 c 0,22,23
 478 19 478 19 480 24 c 0,24,25
 481 28 481 28 483 31 c 0,26,27
 486 35 486 35 489 37 c 0,28,29
 493 40 493 40 497.5 40.5 c 128,-1,30
 502 41 502 41 510 41 c 0,31,32
 552 41 552 41 552 62 c 0,33,34
 552 68 552 68 541 93 c 2,35,-1
 430 350 l 1,36,-1
 294 244 l 1,37,38
 269 144 269 144 255 91 c 0,39,40
 255 89 255 89 253.5 84 c 128,-1,41
 252 79 252 79 251 75 c 0,42,43
 249 65 249 65 247 58 c 0,44,45
 246 51 246 51 246 49 c 0,46,47
 246 45 246 45 253 44 c 0,48,49
 267 41 267 41 301 41 c 0,50,51
 319 41 319 41 326 39 c 0,52,53
 339 35 339 35 339 20 c 0,54,55
 339 -10 339 -10 309 -10 c 0,56,57
 299 -10 299 -10 277 -9 c 128,-1,58
 255 -8 255 -8 244 -8 c 0,59,60
 234 -8 234 -8 212 -7 c 0,61,62
 190 -7 190 -7 180 -7 c 0,63,64
 166 -7 166 -7 117 -8 c 0,65,66
 61 -10 61 -10 53 -10 c 0,67,68
 44 -10 44 -10 38 -7 c 128,-1,69
 32 -4 32 -4 30 3 c 0,70,71
 28 7 28 7 28 12 c 0,72,73
 28 23 28 23 31 28.5 c 128,-1,74
 34 34 34 34 40 37 c 0,75,76
 48 41 48 41 66 41 c 0,77,78
 119 41 119 41 130 48 c 0,79,80
 140 54 140 54 147 80 c 2,81,-1
 281 617 l 2,82,83
 285 632 285 632 285 634 c 0,84,85
 285 637 285 637 279 638 c 0,86,87
 275 639 275 639 272 640 c 0,88,89
 251 642 251 642 230 642 c 0,90,91
 218 642 218 642 212 643 c 0,92,93
 204 644 204 644 199 647 c 0,94,95
 194 651 194 651 192 658 c 0,96,97
 191 661 191 661 191 664 c 0,98,99
 191 693 191 693 221 693 c 0,100,101
 236 693 236 693 286 691 c 0,102,103
 336 690 336 690 350 690 c 128,-1,104
 364 690 364 690 414 691 c 0,105,106
 470 693 470 693 478 693 c 128,-1,107
 486 693 486 693 490 691 c 0,108,109
 502 686 502 686 502 672.5 c 128,-1,110
 502 659 502 659 497 652 c 0,111,112
 494 648 494 648 490 646 c 0,113,114
 482 642 482 642 458 642 c 0,115,116
 410 642 410 642 399 635 c 0,117,118
 390 629 390 629 384 604 c 2,119,-1
 311 310 l 1,120,-1
 678 593 l 1,121,122
 706 617 706 617 710 629 c 0,123,124
 710 630 710 630 710 631 c 0,125,126
 710 636 710 636 705 638 c 0,127,128
 701 640 701 640 688 642 c 0,129,130
 681 643 681 643 676 646 c 0,131,132
 667 652 667 652 667 663 c 0,133,134
 667 693 667 693 696 693 c 0,135,136
 714 693 714 693 752 691 c 0,137,138
 789 690 789 690 807 690 c 0,139,140
 819 690 819 690 842 691 c 0,141,142
 866 693 866 693 878 693 c 0,143,144
 899 693 899 693 899 672 c 0,145,146
 899 645 899 645 872 642 c 0,147,148
 850 640 850 640 838 637 c 0,149,150
 825 634 825 634 790 617 c 0,151,152
 756 600 756 600 714 568 c 2,153,-1
 539 433 l 2,154,155
 520 419 520 419 515 415 c 1,156,157
 516 414 516 414 516 412 c 0,158,159
 518 409 518 409 519 407 c 2,160,-1
 660 80 l 2,0,1
EndSplineSet
Validated: 19457
EndChar

StartChar: L
Encoding: 76 76 11
Width: 679
VWidth: 1000
Flags: W
HStem: -10 51<29 130 244 473> 644 49<192 284 402 520>
LayerCount: 2
Fore
SplineSet
249 62 m 2,0,1
 245 47 245 47 244 43 c 0,2,3
 245 43 245 43 248 42 c 0,4,5
 255 41 255 41 269 41 c 2,6,-1
 363 41 l 2,7,8
 411 41 411 41 449 54 c 128,-1,9
 487 67 487 67 510 84 c 128,-1,10
 533 101 533 101 553 131 c 0,11,12
 574 162 574 162 582 183 c 0,13,14
 585 190 585 190 592.5 210 c 128,-1,15
 600 230 600 230 605 241 c 0,16,17
 611 257 611 257 618 263 c 0,18,19
 621 266 621 266 624 267 c 128,-1,20
 627 268 627 268 631 268 c 0,21,22
 636 268 636 268 638 267 c 0,23,24
 653 263 653 263 653 247 c 0,25,26
 653 242 653 242 648 230 c 2,27,-1
 569 14 l 2,28,29
 565 3 565 3 562 -2 c 0,30,31
 559 -5 559 -5 556 -7 c 0,32,33
 550 -10 550 -10 529 -10 c 2,34,-1
 66 -10 l 2,35,36
 49 -10 49 -10 42 -8 c 0,37,38
 29 -4 29 -4 29 11 c 0,39,40
 29 24 29 24 34 31 c 0,41,42
 37 35 37 35 41 37 c 0,43,44
 49 41 49 41 66 41 c 0,45,46
 119 41 119 41 130 48 c 0,47,48
 140 54 140 54 147 80 c 2,49,-1
 281 617 l 2,50,51
 285 632 285 632 285 634 c 128,-1,52
 285 636 285 636 284 636 c 0,53,54
 283 637 283 637 281 638 c 128,-1,55
 279 639 279 639 267 640 c 0,56,57
 249 642 249 642 230 642 c 0,58,59
 213 642 213 642 206 644 c 0,60,61
 192 647 192 647 192 663 c 0,62,63
 192 693 192 693 221 693 c 0,64,65
 236 693 236 693 288 691 c 0,66,67
 339 690 339 690 354 690 c 0,68,69
 370 690 370 690 428 691 c 0,70,71
 494 693 494 693 502 693 c 0,72,73
 514 693 514 693 520 688 c 0,74,75
 525 684 525 684 527 677 c 0,76,77
 528 674 528 674 528 671 c 0,78,79
 527 658 527 658 522 651 c 0,80,81
 519 647 519 647 515 646 c 0,82,83
 506 642 506 642 480 642 c 0,84,85
 416 642 416 642 402 635 c 0,86,87
 390 629 390 629 384 603 c 2,88,-1
 249 62 l 2,0,1
EndSplineSet
Validated: 19457
EndChar

StartChar: M
Encoding: 77 77 12
Width: 969
VWidth: 1000
Flags: W
HStem: -10 51<41 130 203 275 589 689 798 891> 642 51<203 289 951 1046>
LayerCount: 2
Fore
SplineSet
803 70 m 2,0,1
 798 53 798 53 798 49 c 128,-1,2
 798 45 798 45 805 44 c 0,3,4
 819 41 819 41 853 41 c 0,5,6
 871 41 871 41 878 39 c 0,7,8
 891 35 891 35 891 20 c 0,9,10
 891 -10 891 -10 862 -10 c 0,11,12
 842 -10 842 -10 800 -8 c 0,13,14
 758 -7 758 -7 737 -7 c 0,15,16
 723 -7 723 -7 675 -8 c 0,17,18
 620 -10 620 -10 613 -10 c 0,19,20
 604 -10 604 -10 598 -7 c 128,-1,21
 592 -4 592 -4 590 3 c 0,22,23
 588 7 588 7 588 12 c 0,24,25
 588 23 588 23 591 28.5 c 128,-1,26
 594 34 594 34 600 37 c 0,27,28
 608 41 608 41 626 41 c 0,29,30
 679 41 679 41 690 48 c 0,31,32
 700 54 700 54 707 80 c 2,33,-1
 836 597 l 1,34,-1
 463 12 l 1,35,36
 453 -1 453 -1 447 -5 c 0,37,38
 440 -10 440 -10 433 -10 c 0,39,40
 428 -10 428 -10 423 -7 c 0,41,42
 412 0 412 0 408 21 c 2,43,-1
 329 593 l 1,44,-1
 205 96 l 2,45,46
 201 82 201 82 201 75 c 0,47,48
 201 42 201 42 259 41 c 0,49,50
 270 41 270 41 276 38 c 0,51,52
 287 32 287 32 287 20 c 0,53,54
 287 -10 287 -10 259 -10 c 0,55,56
 243 -10 243 -10 208 -8 c 0,57,58
 173 -7 173 -7 156 -7 c 128,-1,59
 139 -7 139 -7 106 -8 c 0,60,61
 66 -10 66 -10 56 -10 c 0,62,63
 48 -10 48 -10 43 -7 c 0,64,65
 36 -4 36 -4 34 2 c 0,66,67
 32 6 32 6 32 12 c 0,68,69
 32 28 32 28 40.5 34.5 c 128,-1,70
 49 41 49 41 60 41 c 0,71,72
 110 42 110 42 131 59 c 0,73,74
 151 75 151 75 158 108 c 2,75,-1
 285 617 l 2,76,77
 289 632 289 632 289 634 c 0,78,79
 289 637 289 637 283 638 c 0,80,81
 279 639 279 639 276 640 c 0,82,83
 255 642 255 642 234 642 c 0,84,85
 222 642 222 642 216 643 c 0,86,87
 208 644 208 644 203 647 c 0,88,89
 198 651 198 651 196 658 c 0,90,91
 195 661 195 661 195 664 c 0,92,93
 196 677 196 677 200 683 c 0,94,95
 203 687 203 687 207 689 c 0,96,97
 215 693 215 693 235 693 c 2,98,-1
 372 693 l 2,99,100
 389 693 389 693 396 691 c 0,101,102
 400 690 400 690 402 688 c 0,103,104
 405 685 405 685 407 683 c 0,105,106
 411 676 411 676 413 661 c 2,107,-1
 487 122 l 1,108,-1
 838 669 l 2,109,110
 846 681 846 681 851 686 c 0,111,112
 853 688 853 688 856 689 c 0,113,114
 863 693 863 693 885 693 c 2,115,-1
 1017 693 l 2,116,117
 1038 692 1038 692 1046 687 c 0,118,119
 1054 681 1054 681 1054 672 c 0,120,121
 1054 659 1054 659 1049 652 c 0,122,123
 1046 648 1046 648 1042 646 c 0,124,125
 1034 642 1034 642 1012 642 c 0,126,127
 962 642 962 642 951 635 c 0,128,129
 942 629 942 629 936 604 c 2,130,-1
 803 70 l 2,0,1
EndSplineSet
Validated: 19457
EndChar

StartChar: N
Encoding: 78 78 13
Width: 802
VWidth: 1000
Flags: W
HStem: -10 51<29 126 199 273> 642 51<192 287 648 721 794 891>
LayerCount: 2
Fore
SplineSet
626 18 m 2,0,1
 622 3 622 3 619 -1 c 0,2,3
 618 -2 618 -2 618 -3 c 0,4,5
 612 -9 612 -9 609 -9 c 0,6,7
 605 -10 605 -10 600 -10 c 0,8,9
 589 -10 589 -10 582 -4 c 0,10,11
 577 1 577 1 572 15 c 2,12,-1
 326 597 l 1,13,-1
 201 95 l 2,14,15
 197 81 197 81 197 75 c 0,16,17
 197 43 197 43 253 41 c 0,18,19
 267 41 267 41 274 36 c 0,20,21
 283 30 283 30 283 20 c 0,22,23
 283 -10 283 -10 255 -10 c 0,24,25
 239 -10 239 -10 204 -8 c 0,26,27
 169 -7 169 -7 152 -7 c 128,-1,28
 135 -7 135 -7 102 -8 c 0,29,30
 62 -10 62 -10 52 -10 c 0,31,32
 46 -10 46 -10 43 -9 c 0,33,34
 29 -5 29 -5 29 11 c 0,35,36
 29 41 29 41 56 41 c 0,37,38
 106 42 106 42 127 59 c 0,39,40
 147 75 147 75 154 108 c 2,41,-1
 287 639 l 1,42,43
 272 642 272 642 230 642 c 0,44,45
 213 642 213 642 206 644 c 0,46,47
 192 647 192 647 192 663 c 0,48,49
 192 676 192 676 197 683 c 0,50,51
 200 687 200 687 204 689 c 0,52,53
 212 693 212 693 231 693 c 2,54,-1
 365 693 l 2,55,56
 379 693 379 693 385 691 c 0,57,58
 386 691 386 691 387 691 c 128,-1,59
 388 691 388 691 389 690 c 0,60,61
 390 690 390 690 391 689 c 0,62,63
 394 687 394 687 395 687 c 0,64,65
 401 682 401 682 406 668 c 2,66,-1
 616 173 l 1,67,-1
 720 590 l 2,68,69
 723 598 723 598 723 608 c 0,70,71
 723 641 723 641 665 642 c 0,72,73
 654 642 654 642 648 645 c 0,74,75
 637 651 637 651 637 663 c 0,76,77
 637 693 637 693 665 693 c 0,78,79
 681 693 681 693 716 691 c 0,80,81
 750 690 750 690 767 690 c 128,-1,82
 784 690 784 690 818 691 c 0,83,84
 858 693 858 693 868 693 c 0,85,86
 874 693 874 693 877 692 c 0,87,88
 891 688 891 688 891 672 c 0,89,90
 891 642 891 642 864 642 c 0,91,92
 814 641 814 641 793 624 c 0,93,94
 773 608 773 608 766 576 c 2,95,-1
 626 18 l 2,0,1
EndSplineSet
Validated: 19457
EndChar

StartChar: O
Encoding: 79 79 14
Width: 761
VWidth: 1000
Flags: W
HStem: -32 46<233 400> 670 45<389 560>
VStem: 39 113<125 365> 641 109<336 556>
LayerCount: 2
Fore
SplineSet
710.5 260 m 128,-1,1
 671 173 671 173 609 110 c 128,-1,2
 547 47 547 47 466 7.5 c 128,-1,3
 385 -32 385 -32 305 -32 c 0,4,5
 190 -32 190 -32 114.5 43.5 c 128,-1,6
 39 119 39 119 39 245 c 0,7,8
 39 332 39 332 78 418.5 c 128,-1,9
 117 505 117 505 178.5 569.5 c 128,-1,10
 240 634 240 634 322 674.5 c 128,-1,11
 404 715 404 715 485 715 c 0,12,13
 601 715 601 715 675.5 637.5 c 128,-1,14
 750 560 750 560 750 436 c 0,15,0
 750 347 750 347 710.5 260 c 128,-1,1
311 14 m 0,16,17
 367 14 367 14 422.5 47.5 c 128,-1,18
 478 81 478 81 517 130 c 0,19,20
 582 211 582 211 611.5 308 c 128,-1,21
 641 405 641 405 641 475 c 0,22,23
 641 574 641 574 593 622 c 128,-1,24
 545 670 545 670 479 670 c 0,25,26
 420 670 420 670 355 630.5 c 128,-1,27
 290 591 290 591 241 518 c 0,28,29
 192 444 192 444 172 357 c 128,-1,30
 152 270 152 270 152 217 c 0,31,32
 152 123 152 123 196.5 68.5 c 128,-1,33
 241 14 241 14 311 14 c 0,16,17
EndSplineSet
Validated: 19457
EndChar

StartChar: P
Encoding: 80 80 15
Width: 641
VWidth: 1000
Flags: W
HStem: -10 51<30 131 248 340> 306 46<320 553> 642 51<198 287 394 395 395 619>
VStem: 287 107<566 638 638 641> 651 113<456 608>
LayerCount: 2
Fore
SplineSet
251 64 m 2,0,1
 251 62 251 62 249.5 57 c 128,-1,2
 248 52 248 52 248 49 c 0,3,4
 248 45 248 45 258.5 43 c 128,-1,5
 269 41 269 41 303 41 c 0,6,7
 321 41 321 41 331 38.5 c 128,-1,8
 341 36 341 36 341 20 c 0,9,10
 341 -10 341 -10 311 -10 c 0,11,12
 301 -10 301 -10 279 -9 c 128,-1,13
 257 -8 257 -8 246 -8 c 0,14,15
 236 -8 236 -8 214 -7.5 c 128,-1,16
 192 -7 192 -7 182 -7 c 0,17,18
 168 -7 168 -7 115.5 -8.5 c 128,-1,19
 63 -10 63 -10 55 -10 c 0,20,21
 46 -10 46 -10 40 -7 c 128,-1,22
 34 -4 34 -4 32 3 c 0,23,24
 30 7 30 7 30 12 c 0,25,26
 30 23 30 23 33 28.5 c 128,-1,27
 36 34 36 34 43 37.5 c 128,-1,28
 50 41 50 41 68 41 c 0,29,30
 121 41 121 41 131.5 47 c 128,-1,31
 142 53 142 53 149 80 c 2,32,-1
 283 617 l 2,33,34
 287 632 287 632 287 634 c 0,35,36
 287 637 287 637 281 638 c 0,37,38
 277 639 277 639 274 640 c 0,39,40
 253 642 253 642 232 642 c 0,41,42
 220 642 220 642 213 642.5 c 128,-1,43
 206 643 206 643 200.5 647.5 c 128,-1,44
 195 652 195 652 194 658 c 0,45,46
 193 661 193 661 193 664 c 0,47,48
 194 677 194 677 198 683 c 0,49,50
 201 687 201 687 207.5 690 c 128,-1,51
 214 693 214 693 233 693 c 2,52,-1
 557 693 l 2,53,54
 654 693 654 693 709 646 c 128,-1,55
 764 599 764 599 764 532 c 0,56,57
 764 443 764 443 673.5 374.5 c 128,-1,58
 583 306 583 306 473 306 c 2,59,-1
 311 306 l 1,60,-1
 251 64 l 2,0,1
385 612 m 2,61,-1
 320 352 l 1,62,-1
 448 352 l 2,63,64
 540 352 540 352 595 402 c 0,65,66
 620 424 620 424 635.5 473.5 c 128,-1,67
 651 523 651 523 651 556 c 0,68,69
 651 642 651 642 525 642 c 2,70,-1
 429 642 l 2,71,72
 404 642 404 642 396 639 c 0,73,74
 395 639 395 639 395 638 c 0,75,76
 394 638 394 638 394 637 c 0,77,78
 390 632 390 632 385 612 c 2,61,-1
EndSplineSet
Validated: 19457
EndChar

StartChar: Q
Encoding: 81 81 16
Width: 789
VWidth: 1000
Flags: W
HStem: -204 117<468.45 552.869> -32 45<276.566 391.223> 116 42<298.256 384.063> 670 45<388.32 560.008>
VStem: 39 108<124.503 353.707> 234 41<32.344 92.6211> 617 42<-37.25 19.9951> 642 108<326.533 557.293>
LayerCount: 2
Fore
SplineSet
468.5 -68.5 m 128,-1,1
 480 -87 480 -87 509 -87 c 128,-1,2
 538 -87 538 -87 569 -65 c 128,-1,3
 600 -43 600 -43 617 2 c 0,4,5
 620 12 620 12 627 16 c 0,6,7
 632 20 632 20 638 20 c 0,8,9
 659 20 659 20 659 0 c 0,10,11
 659 -9 659 -9 648.5 -38.5 c 128,-1,12
 638 -68 638 -68 619 -106 c 128,-1,13
 600 -144 600 -144 563.5 -174 c 128,-1,14
 527 -204 527 -204 482 -204 c 0,15,16
 389 -204 389 -204 389 -84 c 0,17,18
 389 -70 389 -70 392 -20 c 1,19,20
 345 -32 345 -32 305 -32 c 0,21,22
 190 -32 190 -32 114.5 43.5 c 128,-1,23
 39 119 39 119 39 245 c 0,24,25
 39 332 39 332 78 418.5 c 128,-1,26
 117 505 117 505 178.5 569.5 c 128,-1,27
 240 634 240 634 322 674.5 c 128,-1,28
 404 715 404 715 485 715 c 0,29,30
 601 715 601 715 675.5 637.5 c 128,-1,31
 750 560 750 560 750 436 c 0,32,33
 750 294 750 294 659.5 170.5 c 128,-1,34
 569 47 569 47 449 0 c 1,35,0
 457 -50 457 -50 468.5 -68.5 c 128,-1,1
234 32 m 1,36,37
 234 33 234 33 234 34 c 0,38,39
 233 39 233 39 233 46 c 0,40,41
 233 89 233 89 267 123.5 c 128,-1,42
 301 158 301 158 345 158 c 0,43,44
 374 158 374 158 394 145.5 c 128,-1,45
 414 133 414 133 424 110 c 0,46,47
 433 89 433 89 437 75 c 0,48,49
 439 67 439 67 441 56 c 1,50,51
 491 87 491 87 530 138 c 0,52,53
 575 195 575 195 597 256 c 0,54,55
 620 318 620 318 631 372.5 c 128,-1,56
 642 427 642 427 642 468 c 0,57,58
 642 562 642 562 596 617 c 0,59,60
 551 670 551 670 479 670 c 0,61,62
 424 670 424 670 361 634 c 0,63,64
 297 597 297 597 247 526.5 c 128,-1,65
 197 456 197 456 172 365 c 0,66,67
 147 275 147 275 147 213 c 0,68,69
 147 144 147 144 174 94 c 0,70,71
 195 53 195 53 234 32 c 1,36,37
311 13 m 0,72,73
 340 13 340 13 391 30 c 0,74,75
 394 31 394 31 396 32 c 0,76,-1
 396 41 l 0,77,78
 396 82 396 82 383 100 c 0,79,80
 371 116 371 116 344.5 116 c 128,-1,81
 318 116 318 116 296.5 94 c 128,-1,82
 275 72 275 72 275 46 c 0,83,84
 275 13 275 13 311 13 c 0,72,73
EndSplineSet
Validated: 3073
EndChar

StartChar: R
Encoding: 82 82 17
Width: 758
VWidth: 1000
Flags: W
HStem: -32 42<615 684> -10 51<35 131 245 327> 321 42<323 495> 642 51<199 286 387 597>
VStem: 492 117<20 196> 522 101<141 293> 636 113<463 605>
LayerCount: 2
Fore
SplineSet
385 612 m 2,0,-1
 323 363 l 1,1,-1
 422 363 l 2,2,3
 529 363 529 363 584 418 c 0,4,5
 609 443 609 443 622.5 483.5 c 128,-1,6
 636 524 636 524 636 553 c 0,7,8
 636 575 636 575 629 590 c 128,-1,9
 622 605 622 605 607 614.5 c 128,-1,10
 592 624 592 624 578 630 c 128,-1,11
 564 636 564 636 540 638.5 c 128,-1,12
 516 641 516 641 502.5 641.5 c 128,-1,13
 489 642 489 642 464 642 c 0,14,15
 411 642 411 642 404 641 c 0,16,17
 399 640 399 640 396 638 c 0,18,19
 394 637 394 637 392 634 c 128,-1,20
 390 631 390 631 385 612 c 2,0,-1
623 222 m 0,21,22
 623 205 623 205 619 174 c 0,23,24
 609 98 609 98 609 61 c 0,25,26
 609 32 609 32 615.5 21 c 128,-1,27
 622 10 622 10 640 10 c 128,-1,28
 658 10 658 10 681.5 29 c 128,-1,29
 705 48 705 48 720 94 c 0,30,31
 725 107 725 107 732 112 c 0,32,33
 737 115 737 115 743 115 c 128,-1,34
 749 115 749 115 752 113 c 0,35,36
 760 110 760 110 763 102 c 0,37,38
 765 98 765 98 765 93 c 0,39,40
 765 66 765 66 729.5 17 c 128,-1,41
 694 -32 694 -32 635 -32 c 0,42,43
 626 -32 626 -32 615 -31.5 c 128,-1,44
 604 -31 604 -31 580.5 -24.5 c 128,-1,45
 557 -18 557 -18 539 -7 c 128,-1,46
 521 4 521 4 506.5 28.5 c 128,-1,47
 492 53 492 53 492 86 c 0,48,49
 492 109 492 109 508 173 c 0,50,51
 522 227 522 227 522 240 c 0,52,53
 522 271 522 271 500.5 296 c 128,-1,54
 479 321 479 321 423 321 c 2,55,-1
 312 321 l 1,56,-1
 248 64 l 2,57,58
 248 62 248 62 246.5 57 c 128,-1,59
 245 52 245 52 245 49 c 0,60,61
 245 45 245 45 255.5 43 c 128,-1,62
 266 41 266 41 300 41 c 0,63,64
 317 41 317 41 327.5 38.5 c 128,-1,65
 338 36 338 36 338 20 c 0,66,67
 338 14 338 14 337 9 c 0,68,69
 335 3 335 3 332 -0.5 c 128,-1,70
 329 -4 329 -4 326 -6 c 0,71,72
 322 -9 322 -9 318.5 -9.5 c 128,-1,73
 315 -10 315 -10 308 -10 c 0,74,75
 294 -10 294 -10 244.5 -8.5 c 128,-1,76
 195 -7 195 -7 181 -7 c 128,-1,77
 167 -7 167 -7 115 -8.5 c 128,-1,78
 63 -10 63 -10 55 -10 c 128,-1,79
 47 -10 47 -10 43 -8 c 0,80,81
 31 -3 31 -3 31 11 c 0,82,83
 31 24 31 24 35 30 c 0,84,85
 38 34 38 34 43.5 37.5 c 128,-1,86
 49 41 49 41 68 41 c 0,87,88
 121 41 121 41 131.5 47 c 128,-1,89
 142 53 142 53 149 80 c 2,90,-1
 283 617 l 2,91,92
 287 632 287 632 287 634 c 128,-1,93
 287 636 287 636 286 637 c 128,-1,94
 285 638 285 638 283 638.5 c 128,-1,95
 281 639 281 639 269 640 c 0,96,97
 251 642 251 642 232 642 c 0,98,99
 215 642 215 642 204.5 644.5 c 128,-1,100
 194 647 194 647 194 663 c 0,101,102
 194 676 194 676 199 683 c 0,103,104
 202 687 202 687 208 690 c 128,-1,105
 214 693 214 693 233 693 c 2,106,-1
 518 693 l 2,107,108
 618 693 618 693 683.5 648 c 128,-1,109
 749 603 749 603 749 533 c 0,110,111
 749 458 749 458 685 408 c 128,-1,112
 621 358 621 358 549 337 c 1,113,114
 623 299 623 299 623 222 c 0,21,22
EndSplineSet
Validated: 19457
EndChar

StartChar: S
Encoding: 83 83 18
Width: 612
VWidth: 1000
Flags: W
HStem: -32 51<202 380> 667 48<345 505>
VStem: 102 42<155 208 209 237> 168 91<452 562> 471 92<137 260>
LayerCount: 2
Fore
SplineSet
601 474 m 2,0,1
 598 460 598 460 595 455 c 0,2,3
 594 454 l 0,4,5
 588 449 588 449 585 447 c 0,6,7
 581 446 581 446 576 446 c 128,-1,8
 571 446 571 446 570 447 c 0,9,10
 554 450 554 450 554 466 c 0,11,12
 554 469 554 469 555 477 c 0,13,14
 556 484 556 484 557 496 c 128,-1,15
 558 508 558 508 558 522 c 0,16,17
 558 598 558 598 522 632.5 c 128,-1,18
 486 667 486 667 424 667 c 0,19,20
 358 667 358 667 308.5 618 c 128,-1,21
 259 569 259 569 259 511 c 0,22,23
 259 478 259 478 275 458 c 0,24,25
 292 436 292 436 313 430 c 0,26,27
 320 428 320 428 380 412 c 0,28,29
 455 392 455 392 471 386 c 0,30,31
 492 378 492 378 511 359 c 0,32,33
 563 309 563 309 563 235 c 0,34,35
 563 136 563 136 483 52 c 128,-1,36
 403 -32 403 -32 299 -32 c 0,37,38
 186 -32 186 -32 130 34 c 1,39,-1
 89 -14 l 2,40,41
 77 -28 77 -28 70 -30 c 0,42,43
 67 -32 67 -32 63 -32 c 0,44,45
 42 -32 42 -32 42 -12 c 0,46,47
 42 -11 42 -11 42 -10 c 0,48,49
 43 -1 43 -1 71 108 c 0,50,51
 97 214 97 214 102 226 c 0,52,53
 103 229 103 229 105 230 c 0,54,55
 112 237 112 237 122 237 c 0,56,57
 127 237 127 237 129 236 c 0,58,59
 144 232 144 232 144 216 c 0,60,61
 144 213 144 213 142 209 c 1,62,-1
 142 208 l 1,63,-1
 142 207 l 2,64,65
 136 172 136 172 136 155 c 0,66,67
 136 122 136 122 147.5 96.5 c 128,-1,68
 159 71 159 71 175 58 c 0,69,70
 192 44 192 44 216 34 c 128,-1,71
 240 24 240 24 259 22 c 0,72,73
 279 19 279 19 301 19 c 0,74,75
 369 19 369 19 420 73 c 0,76,77
 471 128 471 128 471 193 c 0,78,79
 471 220 471 220 463 239 c 0,80,81
 456 257 456 257 442 266 c 0,82,83
 427 276 427 276 416 280 c 0,84,85
 404 284 404 284 386 289 c 2,86,-1
 279 317 l 1,87,88
 233 331 233 331 201 370 c 0,89,90
 168 409 168 409 168 469 c 0,91,92
 168 564 168 564 247 640 c 0,93,94
 326 715 326 715 425 715 c 0,95,96
 525 715 525 715 569 650 c 1,97,-1
 608 696 l 2,98,99
 620 710 620 710 627 713 c 0,100,101
 630 715 630 715 634 715 c 0,102,103
 655 715 655 715 655 695 c 2,104,-1
 655 694 l 1,105,-1
 601 474 l 2,0,1
EndSplineSet
Validated: 19457
EndChar

StartChar: T
Encoding: 84 84 19
Width: 583
VWidth: 1000
Flags: W
HStem: -10 51<53 189 302 421> 442 21G<33 38> 636 51<145 338 439 636>
VStem: 639 43<442 465> 649 65<542 671>
LayerCount: 2
Fore
SplineSet
304 73 m 2,0,1
 300 59 300 59 300 55 c 0,2,3
 300 49 300 49 302 48 c 0,4,5
 307 45 307 45 328 43 c 0,6,7
 353 41 353 41 391 41 c 0,8,9
 413 41 413 41 421 39 c 0,10,11
 436 36 436 36 435 20 c 0,12,13
 434 -7 434 -7 409 -10 c 0,14,15
 406 -10 406 -10 403 -10 c 0,16,17
 389 -10 389 -10 360 -9 c 128,-1,18
 331 -8 331 -8 316 -8 c 0,19,20
 303 -8 303 -8 275 -7.5 c 128,-1,21
 247 -7 247 -7 233 -7 c 128,-1,22
 219 -7 219 -7 190.5 -7.5 c 128,-1,23
 162 -8 162 -8 148 -8 c 128,-1,24
 134 -8 134 -8 107 -9 c 0,25,26
 74 -10 74 -10 66 -10 c 0,27,28
 53 -10 53 -10 46 -4 c 0,29,30
 41 0 41 0 40 6 c 0,31,32
 39 9 39 9 39 12 c 0,33,34
 39 24 39 24 43 29 c 0,35,36
 46 35 46 35 52 38 c 0,37,38
 60 41 60 41 91 41 c 0,39,40
 144 41 144 41 166 46 c 0,41,42
 184 50 184 50 190 54 c 0,43,-1
 190 55 l 0,44,-1
 191 55 l 2,45,46
 196 61 196 61 200 81 c 2,47,-1
 334 616 l 2,48,49
 338 627 338 627 338 634 c 0,50,-1
 338 635 l 0,51,-1
 337 635 l 0,52,53
 332 636 332 636 320 636 c 2,54,-1
 281 636 l 2,55,56
 172 636 172 636 137 610 c 0,57,58
 103 584 103 584 62 470 c 0,59,60
 56 453 56 453 50 447 c 0,61,62
 47 444 47 444 43.5 443 c 128,-1,63
 40 442 40 442 36 442 c 0,64,65
 31 442 31 442 29 443 c 0,66,67
 14 447 14 447 14 463 c 0,68,69
 14 471 14 471 21 485 c 1,70,-1
 81 660 l 2,71,72
 85 670 85 670 87 675 c 0,73,74
 91 681 91 681 94 682 c 0,75,76
 98 684 98 684 100 685 c 0,77,78
 107 687 107 687 122 687 c 2,79,-1
 677 687 l 2,80,81
 698 686 698 686 706 680.5 c 128,-1,82
 714 675 714 675 714 666 c 0,83,84
 714 656 714 656 712 647 c 2,85,-1
 685 474 l 2,86,87
 683 464 683 464 682 459 c 0,88,89
 675 441 675 441 660 442 c 0,90,91
 654 442 654 442 651 444 c 0,92,93
 643 447 643 447 639 456 c 0,94,95
 638 460 638 460 638 465 c 0,96,97
 638 468 638 468 641 486 c 0,98,99
 649 530 649 530 649 564 c 0,100,101
 649 612 649 612 624 623 c 0,102,103
 595 636 595 636 513 636 c 0,104,105
 459 636 459 636 452 634 c 0,106,107
 450 633 450 633 448 633 c 0,108,109
 446 632 446 632 445 630 c 0,110,111
 441 624 441 624 437 605 c 2,112,-1
 304 73 l 2,0,1
EndSplineSet
Validated: 19457
EndChar

StartChar: U
Encoding: 85 85 20
Width: 681
VWidth: 1000
Flags: W
HStem: -32 51<197 354> 642 51<84 164 278 369 524 597 673 770>
VStem: 57 98<73 258>
LayerCount: 2
Fore
SplineSet
164 634 m 1,0,1
 164 635 164 635 163 636 c 128,-1,2
 162 637 162 637 160 638 c 128,-1,3
 158 639 158 639 146 640 c 0,4,5
 128 642 128 642 109 642 c 0,6,7
 91 642 91 642 84 644 c 0,8,9
 71 648 71 648 71 663 c 0,10,11
 71 671 71 671 73 676 c 0,12,13
 74 680 74 680 76 683 c 0,14,15
 79 687 79 687 81 689 c 0,16,17
 85 692 85 692 89 692 c 0,18,19
 93 693 93 693 100 693 c 0,20,21
 114 693 114 693 164 691 c 0,22,23
 214 690 214 690 229 690 c 0,24,25
 243 690 243 690 293 691 c 0,26,27
 349 693 349 693 357 693 c 128,-1,28
 365 693 365 693 369 691 c 0,29,30
 381 686 381 686 381 672.5 c 128,-1,31
 381 659 381 659 376 652 c 0,32,33
 373 648 373 648 369 646 c 0,34,35
 361 642 361 642 337 642 c 0,36,37
 289 642 289 642 278 635 c 0,38,39
 269 629 269 629 263 604 c 2,40,-1
 166 215 l 2,41,42
 155 171 155 171 155 139 c 0,43,44
 155 81 155 81 186.5 50 c 128,-1,45
 218 19 218 19 267 19 c 0,46,47
 341 19 341 19 412 79 c 128,-1,48
 483 139 483 139 506 232 c 2,49,-1
 596 590 l 2,50,51
 599 602 599 602 599 608 c 0,52,53
 599 641 599 641 541 642 c 0,54,55
 530 642 530 642 524 645 c 0,56,57
 513 651 513 651 513 663 c 0,58,59
 513 693 513 693 541 693 c 0,60,61
 557 693 557 693 593 691 c 0,62,63
 628 690 628 690 645 690 c 128,-1,64
 662 690 662 690 696 691 c 0,65,66
 737 693 737 693 747 693 c 0,67,68
 753 693 753 693 756 692 c 0,69,70
 770 688 770 688 770 672 c 0,71,72
 770 642 770 642 743 642 c 0,73,74
 693 641 693 641 672 624 c 0,75,76
 653 609 653 609 645 576 c 2,77,-1
 556 221 l 2,78,79
 530 118 530 118 445 43 c 128,-1,80
 360 -32 360 -32 263 -32 c 0,81,82
 177 -32 177 -32 117 23 c 128,-1,83
 57 78 57 78 57 170 c 0,84,85
 57 201 57 201 64 230 c 2,86,-1
 93 349 l 1,87,-1
 147 565 l 2,88,89
 163 630 163 630 164 634 c 1,0,1
EndSplineSet
Validated: 19457
EndChar

StartChar: V
Encoding: 86 86 21
Width: 582
VWidth: 1000
Flags: W
HStem: 642 51<54 128 238 317 555 608 685 778>
LayerCount: 2
Fore
SplineSet
276 -9 m 2,0,1
 262 -32 262 -32 240 -32 c 0,2,3
 235 -32 235 -32 231 -31 c 0,4,5
 223 -29 223 -29 219 -25 c 0,6,7
 216 -22 216 -22 214 -17 c 0,8,9
 211 -11 211 -11 210 0 c 2,10,-1
 131 617 l 2,11,12
 129 631 129 631 128 634 c 0,13,14
 126 636 126 636 118 638 c 0,15,16
 106 642 106 642 81 642 c 0,17,18
 70 642 70 642 66 643 c 0,19,20
 59 644 59 644 54 647 c 0,21,22
 49 651 49 651 47 658 c 0,23,24
 46 661 46 661 46 664 c 0,25,26
 46 693 46 693 75 693 c 0,27,28
 83 693 83 693 102 692 c 0,29,30
 120 691 120 691 129 691 c 128,-1,31
 138 691 138 691 157 690 c 0,32,33
 175 690 175 690 184 690 c 0,34,35
 205 690 205 690 246 691 c 0,36,37
 295 693 295 693 308 693 c 0,38,39
 316 693 316 693 320 691 c 0,40,41
 332 686 332 686 332 672 c 0,42,43
 332 666 332 666 331 661 c 0,44,45
 329 655 329 655 326 652 c 0,46,47
 321 647 321 647 317 644 c 0,48,49
 314 643 314 643 311 643 c 0,50,51
 306 642 306 642 297 642 c 0,52,53
 239 642 239 642 238 623 c 1,54,-1
 302 122 l 1,55,-1
 594 586 l 1,56,-1
 598 592 l 2,57,58
 601 598 601 598 605 607 c 0,59,60
 608 614 608 614 608 619 c 0,61,62
 608 640 608 640 572 642 c 0,63,64
 560 643 560 643 554.5 647 c 128,-1,65
 549 651 549 651 547 658 c 0,66,67
 546 661 546 661 546 664 c 0,68,69
 546 693 546 693 575 693 c 0,70,71
 591 693 591 693 624 691 c 0,72,73
 657 690 657 690 674 690 c 0,74,75
 688 690 688 690 715 691 c 0,76,77
 748 693 748 693 756 693 c 0,78,79
 762 693 762 693 765 692 c 0,80,81
 774 689 774 689 777 680 c 0,82,83
 779 676 779 676 779 671 c 0,84,85
 779 644 779 644 757 642 c 0,86,87
 737 641 737 641 728 639 c 0,88,89
 718 637 718 637 701 630 c 0,90,91
 685 623 685 623 670 607 c 0,92,93
 653 590 653 590 637 564 c 2,94,-1
 276 -9 l 2,0,1
EndSplineSet
Validated: 19457
EndChar

StartChar: W
Encoding: 87 87 22
Width: 943
VWidth: 1000
Flags: W
HStem: 642 51<53 120 230 324 427 493 600 696 826 899 970 1058>
VStem: 900 158<613 672>
LayerCount: 2
Fore
SplineSet
598 -8 m 2,0,1
 588 -24 588 -24 578 -29 c 0,2,3
 571 -32 571 -32 565 -32 c 128,-1,4
 559 -32 559 -32 556 -31 c 0,5,6
 548 -29 548 -29 545 -21 c 0,7,8
 542 -14 542 -14 539 3 c 2,9,-1
 504 476 l 1,10,-1
 227 -6 l 2,11,12
 215 -26 215 -26 205 -30 c 0,13,14
 203 -31 203 -31 201 -31 c 0,15,16
 197 -32 197 -32 194 -32 c 0,17,18
 186 -32 186 -32 182 -30 c 0,19,20
 175 -27 175 -27 172 -21 c 0,21,22
 169 -14 169 -14 168 3 c 2,23,-1
 123 614 l 2,24,25
 122 629 122 629 120 634 c 0,26,27
 120 635 120 635 118 636.5 c 128,-1,28
 116 638 116 638 113 639 c 0,29,30
 104 642 104 642 80 642 c 0,31,32
 69 642 69 642 65 643 c 0,33,34
 58 644 58 644 53 647 c 0,35,36
 48 651 48 651 46 658 c 0,37,38
 45 661 45 661 45 664 c 0,39,40
 45 693 45 693 73 693 c 0,41,42
 90 693 90 693 125 691 c 0,43,44
 160 690 160 690 178 690 c 0,45,46
 199 690 199 690 240 691 c 0,47,48
 289 693 289 693 301 693 c 0,49,50
 309 693 309 693 313 691 c 0,51,52
 325 686 325 686 325 672 c 0,53,54
 325 642 325 642 294 642 c 0,55,56
 261 642 261 642 245 635 c 0,57,58
 233 630 233 630 230 627 c 1,59,60
 228 623 228 623 228 616 c 2,61,-1
 264 142 l 1,62,-1
 499 552 l 1,63,-1
 493 626 l 2,64,65
 492 632 492 632 490 635 c 0,66,67
 489 637 489 637 487 638 c 0,68,69
 480 642 480 642 450 642 c 0,70,71
 434 642 434 642 427 646 c 0,72,73
 416 652 416 652 416 663 c 0,74,75
 416 693 416 693 445 693 c 0,76,77
 456 693 456 693 497 691 c 0,78,79
 538 690 538 690 550 690 c 0,80,81
 570 690 570 690 611 691 c 0,82,83
 659 693 659 693 672 693 c 0,84,85
 680 693 680 693 685 691 c 0,86,87
 697 686 697 686 697 672 c 0,88,89
 697 659 697 659 692 652 c 0,90,91
 689 648 689 648 685 646 c 0,92,93
 677 642 677 642 660 642 c 0,94,95
 635 642 635 642 621 638 c 0,96,97
 609 634 609 634 605 629 c 0,98,99
 601 623 601 623 600 620 c 0,100,101
 600 618 600 618 600 615 c 0,102,103
 600 611 600 611 600 606 c 2,104,-1
 635 142 l 1,105,-1
 888 585 l 2,106,107
 900 606 900 606 900 613 c 0,108,109
 900 640 900 640 851 642 c 0,110,111
 842 642 842 642 836 645 c 128,-1,112
 830 648 830 648 828 655 c 0,113,114
 826 659 826 659 826 664 c 0,115,116
 826 693 826 693 855 693 c 0,117,118
 871 693 871 693 907 691 c 0,119,120
 942 690 942 690 959 690 c 0,121,122
 972 690 972 690 997 691 c 0,123,124
 1023 693 1023 693 1036 693 c 0,125,126
 1041 693 1041 693 1043 692 c 0,127,128
 1059 688 1059 688 1058 672 c 0,129,130
 1058 661 1058 661 1055 655 c 0,131,132
 1053 650 1053 650 1049 648 c 0,133,134
 1042 643 1042 643 1030 642 c 0,135,136
 990 639 990 639 970 621 c 0,137,138
 948 601 948 601 926 562 c 2,139,-1
 598 -8 l 2,0,1
EndSplineSet
Validated: 19457
EndChar

StartChar: X
Encoding: 88 88 23
Width: 827
VWidth: 1000
Flags: W
HStem: -10 51<18 128 222 273 449 523 655 739> 642 51<204 276 456 484 613 656 749 860>
LayerCount: 2
Fore
SplineSet
640 592 m 2,0,1
 656 610 656 610 656 621 c 0,2,3
 656 638 656 638 625 642 c 0,4,5
 618 643 618 643 613 646 c 0,6,7
 604 652 604 652 604 663 c 0,8,9
 604 693 604 693 633 693 c 0,10,11
 651 693 651 693 688 691 c 0,12,13
 725 690 725 690 744 690 c 0,14,15
 760 690 760 690 791 691 c 0,16,17
 828 693 828 693 838 693 c 0,18,19
 844 693 844 693 847 692 c 0,20,21
 861 688 861 688 861 672 c 0,22,23
 861 660 861 660 858 654 c 0,24,25
 856 649 856 649 851 647 c 0,26,27
 843 642 843 642 830 642 c 0,28,29
 763 639 763 639 708 593 c 0,30,31
 695 582 695 582 660 544 c 2,32,-1
 578 456 l 1,33,-1
 509 382 l 1,34,-1
 635 79 l 2,35,36
 647 52 647 52 655 47 c 0,37,38
 664 43 664 43 712 41 c 0,39,40
 726 41 726 41 732 35 c 0,41,42
 737 31 737 31 739 25 c 0,43,44
 740 22 740 22 740 19 c 0,45,46
 740 -10 740 -10 711 -10 c 0,47,48
 698 -10 698 -10 655 -8 c 0,49,50
 612 -7 612 -7 600 -7 c 0,51,52
 586 -7 586 -7 537 -8 c 0,53,54
 482 -10 482 -10 474 -10 c 0,55,56
 465 -10 465 -10 459 -7 c 128,-1,57
 453 -4 453 -4 451 3 c 0,58,59
 449 7 449 7 449 12 c 0,60,61
 449 16 449 16 449 17 c 0,62,63
 450 25 450 25 454 30 c 0,64,65
 459 36 459 36 463 38 c 0,66,67
 464 39 464 39 466 39 c 0,68,69
 471 40 471 40 478 41 c 0,70,71
 496 43 496 43 508 48 c 128,-1,72
 520 53 520 53 524 57 c 0,73,74
 525 59 525 59 526 60 c 1,75,-1
 523 70 l 1,76,-1
 428 295 l 1,77,-1
 348 208 l 1,78,-1
 246 100 l 2,79,80
 222 74 222 74 222 62 c 0,81,82
 222 44 222 44 252 41 c 0,83,84
 257 41 257 41 259 40 c 0,85,86
 274 36 274 36 274 20 c 0,87,88
 274 -10 274 -10 246 -10 c 0,89,90
 228 -10 228 -10 190 -8 c 0,91,92
 153 -7 153 -7 134 -7 c 0,93,94
 118 -7 118 -7 87 -8 c 0,95,96
 50 -10 50 -10 40 -10 c 0,97,98
 34 -10 34 -10 31 -9 c 0,99,100
 17 -5 17 -5 17 11 c 0,101,102
 17 23 17 23 20 29 c 0,103,104
 22 34 22 34 27 36 c 0,105,106
 35 41 35 41 48 41 c 0,107,108
 129 46 129 46 189 110 c 0,109,-1
 190 111 l 1,110,-1
 202 121 l 1,111,-1
 408 343 l 1,112,-1
 293 616 l 2,113,114
 286 632 286 632 277 637 c 0,115,116
 267 642 267 642 227 642 c 0,117,118
 212 642 212 642 204 646 c 0,119,120
 194 652 194 652 194 663 c 0,121,122
 194 693 194 693 222 693 c 0,123,124
 234 693 234 693 278 691 c 0,125,126
 322 690 322 690 334 690 c 0,127,128
 355 690 355 690 397 691 c 0,129,130
 447 693 447 693 460 693 c 0,131,132
 469 693 469 693 475 690 c 128,-1,133
 481 687 481 687 483 680 c 0,134,135
 485 676 485 676 485 671 c 0,136,137
 484 649 484 649 464 644 c 0,138,139
 460 643 460 643 456 642 c 0,140,141
 439 640 439 640 425 635 c 0,142,143
 412 630 412 630 409 625 c 0,144,145
 408 624 408 624 407 623 c 1,146,-1
 410 614 l 1,147,-1
 488 429 l 1,148,-1
 640 592 l 2,0,1
EndSplineSet
Validated: 19457
EndChar

StartChar: Y
Encoding: 89 89 24
Width: 579
VWidth: 1000
Flags: W
HStem: -10 51<93 185 299 389> 642 51<35 114 238 306 548 589>
LayerCount: 2
Fore
SplineSet
185 48 m 1,0,1
 186 49 l 1,2,-1
 187 50 l 2,3,4
 193 56 193 56 203 93 c 2,5,-1
 228 189 l 2,6,7
 247 268 247 268 248 272 c 128,-1,8
 249 276 249 276 245 286 c 2,9,-1
 122 615 l 2,10,11
 117 629 117 629 114 632 c 128,-1,12
 111 635 111 635 99 638 c 0,13,14
 86 641 86 641 58 642 c 0,15,16
 43 642 43 642 35 646 c 0,17,18
 25 652 25 652 25 663 c 0,19,20
 25 676 25 676 32.5 684.5 c 128,-1,21
 40 693 40 693 54 693 c 0,22,23
 66 693 66 693 110 691 c 0,24,25
 154 690 154 690 166 690 c 0,26,27
 180 690 180 690 229 691 c 0,28,29
 284 693 284 693 292 693 c 128,-1,30
 300 693 300 693 305 691 c 0,31,32
 317 686 317 686 317 672 c 0,33,34
 317 659 317 659 313 653 c 0,35,36
 310 649 310 649 306 646 c 0,37,38
 299 642 299 642 283 642 c 0,39,40
 249 642 249 642 238 634 c 0,41,42
 234 631 234 631 234 628 c 0,43,-1
 234 627 l 0,44,45
 235 623 235 623 239 615 c 2,46,-1
 344 333 l 1,47,-1
 564 587 l 1,48,49
 588 618 588 618 589 629 c 0,50,-1
 589 631 l 0,51,52
 588 636 588 636 584 638 c 0,53,54
 578 642 578 642 563 642 c 0,55,56
 554 642 554 642 548 645 c 0,57,58
 544 647 544 647 540 655 c 0,59,60
 538 659 538 659 538 664 c 0,61,62
 538 693 538 693 567 693 c 0,63,64
 583 693 583 693 617 691 c 0,65,66
 650 690 650 690 667 690 c 0,67,68
 681 690 681 690 708 691 c 0,69,70
 741 693 741 693 749 693 c 0,71,72
 755 693 755 693 758 692 c 0,73,74
 767 689 767 689 770 680 c 0,75,76
 772 675 772 675 772 671 c 0,77,78
 772 660 772 660 769 655 c 0,79,80
 767 651 767 651 763 648 c 0,81,82
 756 643 756 643 743 642 c 0,83,84
 712 640 712 640 687 628 c 0,85,86
 661 616 661 616 651 607 c 0,87,88
 639 597 639 597 618 576 c 2,89,-1
 604 562 l 1,90,-1
 357 277 l 2,91,92
 350 268 350 268 345 250 c 2,93,-1
 310 110 l 2,94,95
 306 94 306 94 302.5 79.5 c 128,-1,96
 299 65 299 65 297.5 57.5 c 128,-1,97
 296 50 296 50 296 49 c 0,98,99
 296 47 296 47 296 46 c 128,-1,100
 296 45 296 45 314 43 c 128,-1,101
 332 41 332 41 351 41 c 0,102,103
 369 41 369 41 376 39 c 0,104,105
 389 35 389 35 389 20 c 0,106,107
 389 -10 389 -10 360 -10 c 0,108,109
 346 -10 346 -10 296 -8 c 0,110,111
 246 -7 246 -7 232 -7 c 128,-1,112
 218 -7 218 -7 169 -8 c 0,113,114
 114 -10 114 -10 106 -10 c 128,-1,115
 98 -10 98 -10 94 -8 c 0,116,117
 82 -3 82 -3 82 11 c 128,-1,118
 82 25 82 25 86 30 c 128,-1,119
 90 35 90 35 93 37 c 0,120,121
 99 41 99 41 118 41 c 0,122,123
 135 41 l 0,124,125
 142 41 142 41 149 41 c 0,126,127
 168 41 168 41 185 48 c 1,0,1
EndSplineSet
Validated: 19457
EndChar

StartChar: Z
Encoding: 90 90 25
Width: 681
VWidth: 1000
Flags: W
HStem: -10 54<183 461> 642 51<335 599>
LayerCount: 2
Fore
SplineSet
183 44 m 1,0,-1
 332 44 l 2,1,2
 394 44 394 44 435 56 c 128,-1,3
 476 68 476 68 504 95.5 c 128,-1,4
 532 123 532 123 549.5 156.5 c 128,-1,5
 567 190 567 190 584 245 c 0,6,7
 589 260 589 260 591 264 c 128,-1,8
 593 268 593 268 596.5 271.5 c 128,-1,9
 600 275 600 275 605 276 c 0,10,11
 608 277 608 277 611 277 c 0,12,13
 617 277 617 277 620 276 c 0,14,15
 634 272 634 272 634 256 c 0,16,17
 634 253 634 253 633.5 249.5 c 128,-1,18
 633 246 633 246 632 244 c 0,19,-1
 630 241 l 0,20,-1
 630 239 l 1,21,-1
 558 17 l 2,22,23
 553 5 553 5 550 0 c 0,24,25
 548 -3 548 -3 543.5 -6.5 c 128,-1,26
 539 -10 539 -10 518 -10 c 2,27,-1
 74 -10 l 2,28,29
 65 -10 65 -10 60 -8.5 c 128,-1,30
 55 -7 55 -7 53 -4 c 0,31,32
 51 -2 51 -2 49.5 1 c 128,-1,33
 48 4 48 4 48 9 c 0,34,35
 48 12 48 12 50 21 c 2,36,-1
 53 32 l 1,37,-1
 599 642 l 1,38,-1
 458 642 l 2,39,40
 352 642 352 642 302 600 c 128,-1,41
 252 558 252 558 222 465 c 2,42,-1
 221 463 l 1,43,-1
 220 462 l 2,44,45
 213 452 213 452 207 450 c 0,46,47
 203 448 203 448 199 448 c 0,48,49
 193 449 193 449 192 449 c 0,50,51
 177 453 177 453 177 469 c 0,52,53
 177 478 177 478 181 486 c 2,54,-1
 236 666 l 2,55,56
 241 678 241 678 244 683 c 0,57,58
 246 686 246 686 250.5 689.5 c 128,-1,59
 255 693 255 693 276 693 c 2,60,-1
 707 693 l 2,61,62
 716 693 716 693 721 691 c 128,-1,63
 726 689 726 689 729 687 c 0,64,65
 730 686 730 686 731.5 682.5 c 128,-1,66
 733 679 733 679 733 674.5 c 128,-1,67
 733 670 733 670 730 657 c 2,68,-1
 729 654 l 1,69,-1
 183 44 l 1,0,-1
EndSplineSet
Validated: 19457
EndChar

StartChar: a
Encoding: 97 97 26
Width: 527
VWidth: 1000
Flags: W
HStem: -21 42<137 231 378 428> 410 42<231 326> 412 20G<404 424>
VStem: 30 91<54 226> 351 103<302 402>
LayerCount: 2
Fore
SplineSet
384 421 m 128,-1,1
 394 432 394 432 415 432 c 0,2,3
 433 432 433 432 443 423 c 0,4,5
 446 420 446 420 448 418 c 0,6,7
 454 409 454 409 454 395 c 0,8,9
 454 388 454 388 447 359 c 2,10,-1
 411 219 l 1,11,-1
 389 129 l 2,12,13
 376 79 376 79 376 57 c 0,14,15
 376 21 376 21 396 21 c 0,16,17
 418 21 418 21 432.5 49.5 c 128,-1,18
 447 78 447 78 462 137 c 0,19,20
 465 150 465 150 466 150 c 0,21,22
 466 151 466 151 466.5 152 c 128,-1,23
 467 153 467 153 467 154 c 0,24,25
 468 155 468 155 470.5 157.5 c 128,-1,26
 473 160 473 160 477 162 c 0,27,28
 481 163 481 163 486 163 c 0,29,30
 492 162 l 0,31,32
 508 159 508 159 508 143 c 0,33,34
 508 140 508 140 504.5 123 c 128,-1,35
 501 106 501 106 493 81 c 128,-1,36
 485 56 485 56 477 39 c 0,37,38
 446 -21 446 -21 394 -21 c 0,39,40
 355 -21 355 -21 331 -0.5 c 128,-1,41
 307 20 307 20 298 44 c 1,42,43
 238 -21 238 -21 173 -21 c 0,44,45
 109 -21 109 -21 69.5 27 c 128,-1,46
 30 75 30 75 30 149 c 0,47,48
 30 262 30 262 109 357 c 128,-1,49
 188 452 188 452 281 452 c 0,50,51
 337 452 337 452 370 403 c 1,52,0
 374 410 374 410 384 421 c 128,-1,1
298 122 m 2,53,-1
 348 317 l 2,54,55
 351 331 351 331 351 332 c 0,56,57
 351 336 351 336 348 346.5 c 128,-1,58
 345 357 345 357 337.5 372.5 c 128,-1,59
 330 388 330 388 315.5 399 c 128,-1,60
 301 410 301 410 282 410 c 0,61,62
 256 410 256 410 226.5 385.5 c 128,-1,63
 197 361 197 361 175 319 c 0,64,65
 158 286 158 286 139.5 213.5 c 128,-1,66
 121 141 121 141 121 105 c 0,67,68
 121 71 121 71 134 46 c 128,-1,69
 147 21 147 21 175 21 c 0,70,71
 225 21 225 21 280 88 c 0,72,73
 293 105 293 105 298 122 c 2,53,-1
EndSplineSet
Validated: 19457
EndChar

StartChar: b
Encoding: 98 98 27
Width: 428
VWidth: 1000
Flags: W
HStem: -21 42<135 224> 410 42<223 317> 642 52<83 148> 684 20G<222 229>
VStem: 37 80<51 234> 333 92<203 377>
LayerCount: 2
Fore
SplineSet
183 412 m 1,0,1
 232 452 232 452 282 452 c 0,2,3
 346 452 346 452 386 403 c 0,4,5
 425 355 425 355 425 282 c 0,6,7
 425 170 425 170 347 75 c 0,8,9
 268 -21 268 -21 174 -21 c 0,10,11
 113 -21 113 -21 75 26 c 0,12,13
 37 72 37 72 37 146 c 0,14,15
 37 181 37 181 53 249 c 2,16,-1
 135 575 l 2,17,18
 148 631 148 631 149 636 c 0,19,20
 149 637 149 637 149 638 c 0,21,22
 146 639 146 639 141 640 c 0,23,24
 131 642 131 642 109 642 c 0,25,26
 99 642 99 642 95 643 c 0,27,28
 88 644 88 644 83 647 c 0,29,30
 78 651 78 651 76 658 c 0,31,32
 75 661 75 661 75 664 c 0,33,34
 76 688 76 688 98 693 c 0,35,36
 100 694 100 694 103 694 c 0,37,38
 113 695 113 695 139 697 c 2,39,-1
 191 702 l 2,40,41
 218 704 218 704 226 704 c 0,42,43
 232 704 232 704 235 703 c 0,44,45
 249 699 249 699 249 683 c 2,46,-1
 249 682 l 1,47,-1
 183 412 l 1,0,1
155 302 m 2,48,-1
 133 211 l 2,49,50
 117 149 117 149 117 112 c 0,51,52
 117 63 117 63 134 42 c 128,-1,53
 151 21 151 21 174 21 c 0,54,55
 200 21 200 21 230.5 46.5 c 128,-1,56
 261 72 261 72 283 118 c 0,57,58
 297 147 297 147 315 216.5 c 128,-1,59
 333 286 333 286 333 326 c 0,60,61
 333 369 333 369 318 389.5 c 128,-1,62
 303 410 303 410 280 410 c 0,63,64
 225 410 225 410 168 334 c 0,65,66
 161 324 161 324 155 302 c 2,48,-1
EndSplineSet
Validated: 19457
EndChar

StartChar: c
Encoding: 99 99 28
Width: 431
VWidth: 1000
Flags: W
HStem: -21 42<150 303> 410 42<245 378>
VStem: 31 94<66 239> 324 113<303 374>
LayerCount: 2
Fore
SplineSet
310 410 m 0,0,1
 273 410 273 410 237 384 c 128,-1,2
 201 358 201 358 178 315 c 0,3,4
 154 272 154 272 139.5 213 c 128,-1,5
 125 154 125 154 125 120 c 0,6,7
 125 75 125 75 145 48 c 128,-1,8
 165 21 165 21 205 21 c 0,9,10
 216 21 216 21 230.5 23 c 128,-1,11
 245 25 245 25 275.5 32.5 c 128,-1,12
 306 40 306 40 338.5 62 c 128,-1,13
 371 84 371 84 397 116 c 0,14,15
 405 126 405 126 410 128 c 0,16,17
 414 130 414 130 418 130 c 0,18,19
 423 130 423 130 426 128 c 128,-1,20
 429 126 429 126 434.5 121 c 128,-1,21
 440 116 440 116 440 107 c 1,22,-1
 439 102 l 2,23,24
 437 96 437 96 427.5 83.5 c 128,-1,25
 418 71 418 71 397.5 53 c 128,-1,26
 377 35 377 35 350 18.5 c 128,-1,27
 323 2 323 2 283.5 -9.5 c 128,-1,28
 244 -21 244 -21 203 -21 c 0,29,30
 124 -21 124 -21 77.5 31 c 128,-1,31
 31 83 31 83 31 158 c 0,32,33
 31 268 31 268 117.5 360 c 128,-1,34
 204 452 204 452 309 452 c 0,35,36
 365 452 365 452 401 425 c 128,-1,37
 437 398 437 398 437 356 c 0,38,39
 437 323 437 323 417.5 302.5 c 128,-1,40
 398 282 398 282 371 282 c 0,41,42
 352 282 352 282 338 293.5 c 128,-1,43
 324 305 324 305 324 327 c 0,44,45
 324 353 324 353 345 373 c 0,46,47
 357 385 357 385 378 389 c 1,48,49
 357 410 357 410 310 410 c 0,0,1
EndSplineSet
Validated: 19457
EndChar

StartChar: d
Encoding: 100 100 29
Width: 519
VWidth: 1000
Flags: W
HStem: -21 42<137 231 377 428> 410 42<231 326> 642 62<360 426>
VStem: 30 91<54 226>
LayerCount: 2
Fore
SplineSet
382 103 m 2,0,1
 376 79 376 79 376 57 c 0,2,3
 376 21 376 21 396 21 c 0,4,5
 418 21 418 21 431 47 c 0,6,7
 447 78 447 78 462 137 c 0,8,9
 465 150 465 150 466 150 c 2,10,-1
 466 152 l 2,11,12
 467 153 467 153 467 154 c 2,13,-1
 468 155 l 1,14,15
 473 160 473 160 477 162 c 0,16,17
 481 163 481 163 486 163 c 128,-1,18
 491 163 491 163 492 162 c 0,19,20
 508 159 508 159 508 143 c 0,21,22
 508 140 508 140 504 123 c 0,23,24
 500 107 500 107 493 82 c 0,25,26
 485 56 485 56 477 39 c 0,27,28
 446 -21 446 -21 394 -21 c 0,29,30
 355 -21 355 -21 327 3 c 0,31,32
 307 20 307 20 298 44 c 1,33,34
 238 -21 238 -21 173 -21 c 0,35,36
 109 -21 109 -21 69 28 c 0,37,38
 30 76 30 76 30 149 c 0,39,40
 30 262 30 262 109 356 c 0,41,42
 188 452 188 452 281 452 c 0,43,44
 337 452 337 452 369 404 c 1,45,-1
 423 617 l 1,46,-1
 426 636 l 2,47,48
 426 637 426 637 426 638 c 1,49,50
 423 639 423 639 418 640 c 0,51,52
 408 642 408 642 386 642 c 0,53,54
 376 642 376 642 372 643 c 0,55,56
 365 644 365 644 360 647 c 0,57,58
 355 651 355 651 353 658 c 0,59,60
 352 661 352 661 352 664 c 0,61,62
 352 690 352 690 375 693 c 0,63,64
 462 704 462 704 497 704 c 0,65,66
 500 704 500 704 503 704 c 0,67,68
 508 704 508 704 512 703 c 0,69,70
 526 699 526 699 526 683 c 2,71,-1
 526 682 l 1,72,-1
 382 103 l 2,0,1
298 122 m 2,73,-1
 348 317 l 2,74,75
 351 331 351 331 351 332 c 0,76,77
 351 336 351 336 348 346.5 c 128,-1,78
 345 357 345 357 337.5 372.5 c 128,-1,79
 330 388 330 388 315.5 399 c 128,-1,80
 301 410 301 410 282 410 c 0,81,82
 256 410 256 410 226.5 385.5 c 128,-1,83
 197 361 197 361 175 319 c 0,84,85
 158 286 158 286 139.5 213.5 c 128,-1,86
 121 141 121 141 121 105 c 0,87,88
 121 71 121 71 134 46 c 128,-1,89
 147 21 147 21 175 21 c 0,90,91
 225 21 225 21 280 88 c 0,92,93
 293 105 293 105 298 122 c 2,73,-1
EndSplineSet
Validated: 19457
EndChar

StartChar: e
Encoding: 101 101 30
Width: 464
VWidth: 1000
Flags: W
HStem: -21 42<155 303> 221 42<153 317> 410 42<242 357>
VStem: 36 92<69 219> 372 53<305 396>
LayerCount: 2
Fore
SplineSet
142 221 m 1,0,1
 128 162 128 162 128 127 c 0,2,3
 128 105 128 105 132 84.5 c 128,-1,4
 136 64 136 64 155 42.5 c 128,-1,5
 174 21 174 21 205 21 c 0,6,7
 216 21 216 21 230.5 23 c 128,-1,8
 245 25 245 25 275.5 32.5 c 128,-1,9
 306 40 306 40 338.5 62 c 128,-1,10
 371 84 371 84 397 116 c 0,11,12
 405 126 405 126 410 128 c 0,13,14
 414 130 414 130 418 130 c 0,15,16
 423 130 423 130 426 128 c 128,-1,17
 429 126 429 126 434.5 121 c 128,-1,18
 440 116 440 116 440 107 c 1,19,-1
 439 102 l 2,20,21
 437 96 437 96 427.5 83.5 c 128,-1,22
 418 71 418 71 397.5 53 c 128,-1,23
 377 35 377 35 350 18.5 c 128,-1,24
 323 2 323 2 283.5 -9.5 c 128,-1,25
 244 -21 244 -21 203 -21 c 0,26,27
 126 -21 126 -21 81 33.5 c 128,-1,28
 36 88 36 88 36 170 c 0,29,30
 36 255 36 255 80.5 322 c 128,-1,31
 125 389 125 389 186.5 420.5 c 128,-1,32
 248 452 248 452 308 452 c 0,33,34
 361 452 361 452 393 424.5 c 128,-1,35
 425 397 425 397 425 357 c 0,36,37
 425 348 425 348 423 336.5 c 128,-1,38
 421 325 421 325 413.5 307.5 c 128,-1,39
 406 290 406 290 388 273 c 128,-1,40
 370 256 370 256 344 245 c 0,41,42
 287 221 287 221 187 221 c 2,43,-1
 142 221 l 1,0,1
153 263 m 1,44,-1
 181 263 l 2,45,46
 372 263 372 263 372 357 c 0,47,48
 372 380 372 380 355 395 c 128,-1,49
 338 410 338 410 308 410 c 0,50,51
 295 410 295 410 278 405 c 128,-1,52
 261 400 261 400 235.5 385.5 c 128,-1,53
 210 371 210 371 188 338.5 c 128,-1,54
 166 306 166 306 153 263 c 1,44,-1
EndSplineSet
Validated: 19457
EndChar

StartChar: f
Encoding: 102 102 31
Width: 488
VWidth: 1000
Flags: W
HStem: -215 42<116 171> 390 51<201 288 385 484> 673 42<432 488>
VStem: 43 112<-159 -86> 450 112<586 658>
LayerCount: 2
Fore
SplineSet
317 82 m 2,0,1
 316 73 316 73 309.5 43 c 128,-1,2
 303 13 303 13 289 -35 c 128,-1,3
 275 -83 275 -83 260 -112 c 0,4,5
 241 -151 241 -151 210 -183 c 128,-1,6
 179 -215 179 -215 138 -215 c 0,7,8
 102 -215 102 -215 72.5 -194 c 128,-1,9
 43 -173 43 -173 43 -136 c 0,10,11
 43 -105 43 -105 63 -85.5 c 128,-1,12
 83 -66 83 -66 108 -66 c 0,13,14
 127 -66 127 -66 141 -78 c 128,-1,15
 155 -90 155 -90 155 -111 c 0,16,17
 155 -131 155 -131 143.5 -147.5 c 128,-1,18
 132 -164 132 -164 116 -170 c 1,19,20
 126 -173 126 -173 138 -173 c 0,21,22
 153 -173 153 -173 164 -161.5 c 128,-1,23
 175 -150 175 -150 185 -119.5 c 128,-1,24
 195 -89 195 -89 200.5 -65 c 128,-1,25
 206 -41 206 -41 215 7 c 2,26,-1
 288 390 l 1,27,-1
 234 390 l 2,28,29
 221 390 221 390 215 390.5 c 128,-1,30
 209 391 209 391 203.5 395.5 c 128,-1,31
 198 400 198 400 197 406 c 0,32,33
 196 409 196 409 196 412 c 0,34,35
 197 425 197 425 201 431 c 0,36,37
 204 435 204 435 210.5 438 c 128,-1,38
 217 441 217 441 236 441 c 2,39,-1
 297 441 l 1,40,41
 321 563 321 563 328 591 c 0,42,43
 348 660 348 660 387.5 687.5 c 128,-1,44
 427 715 427 715 465 715 c 0,45,46
 502 715 502 715 532 694 c 128,-1,47
 562 673 562 673 562 636 c 0,48,49
 562 605 562 605 542 585.5 c 128,-1,50
 522 566 522 566 497 566 c 0,51,52
 478 566 478 566 464 578 c 128,-1,53
 450 590 450 590 450 611 c 0,54,55
 450 631 450 631 461.5 647 c 128,-1,56
 473 663 473 663 489 669 c 1,57,58
 479 673 479 673 465 673 c 0,59,60
 441 673 441 673 427 645 c 0,61,62
 420 631 420 631 404 543 c 2,63,-1
 385 441 l 1,64,-1
 456 441 l 2,65,66
 477 440 477 440 485 435 c 0,67,68
 493 429 493 429 493 420 c 0,69,70
 493 406 493 406 488 400 c 0,71,72
 485 396 485 396 478.5 393 c 128,-1,73
 472 390 472 390 453 390 c 2,74,-1
 375 390 l 1,75,-1
 317 82 l 2,0,1
EndSplineSet
Validated: 19457
EndChar

StartChar: g
Encoding: 103 103 32
Width: 475
VWidth: 1000
Flags: W
HStem: -215 42<95 220> -10 42<170 266> 410 42<261 356> 412 20G<436 454>
VStem: 5 112<-168 -94> 63 91<63 233>
LayerCount: 2
Fore
SplineSet
370 -69 m 2,0,1
 356 -124 356 -124 296.5 -169.5 c 128,-1,2
 237 -215 237 -215 148 -215 c 0,3,4
 75 -215 75 -215 42 -199 c 0,5,6
 5 -181 5 -181 5 -144 c 0,7,8
 5 -112 5 -112 26 -94 c 0,9,10
 46 -76 46 -76 69 -76 c 128,-1,11
 92 -76 92 -76 105 -90 c 0,12,13
 117 -103 117 -103 117 -121 c 128,-1,14
 117 -139 117 -139 105 -157 c 0,15,16
 100 -164 100 -164 94 -169 c 1,17,18
 117 -173 117 -173 146 -173 c 0,19,20
 239 -173 239 -173 280 -73 c 2,21,-1
 280 -72 l 2,22,23
 280 -71 280 -71 284 -58 c 2,24,-1
 296 -12 l 1,25,-1
 306 29 l 1,26,27
 259 -10 259 -10 206 -10 c 0,28,29
 146 -10 146 -10 104 36 c 0,30,31
 63 82 63 82 63 158 c 0,32,33
 63 269 63 269 141 360 c 0,34,35
 219 452 219 452 311 452 c 0,36,37
 343 452 343 452 371 433 c 0,38,39
 388 421 388 421 401 404 c 1,40,41
 406 415 406 415 414 421 c 0,42,43
 429 432 429 432 443 432 c 0,44,45
 444 432 444 432 445 432 c 0,46,47
 463 432 463 432 473 423 c 0,48,49
 476 420 476 420 478 418 c 0,50,51
 484 409 484 409 484 395 c 2,52,-1
 484 394 l 1,53,-1
 484 393 l 1,54,-1
 481 375 l 1,55,-1
 370 -69 l 2,0,1
331 130 m 2,56,-1
 379 321 l 2,57,58
 382 332 382 332 382 334 c 0,59,60
 382 340 382 340 377 356 c 128,-1,61
 372 372 372 372 354.5 391 c 128,-1,62
 337 410 337 410 312 410 c 0,63,64
 286 410 286 410 257.5 387 c 128,-1,65
 229 364 229 364 209 326 c 0,66,67
 190 290 190 290 172 220 c 128,-1,68
 154 150 154 150 154 114 c 0,69,70
 154 81 154 81 167.5 56.5 c 128,-1,71
 181 32 181 32 209 32 c 0,72,73
 244 32 244 32 283 66 c 0,74,75
 325 101 325 101 331 130 c 2,56,-1
EndSplineSet
Validated: 19457
EndChar

StartChar: h
Encoding: 104 104 33
Width: 575
VWidth: 1000
Flags: W
HStem: -21 42<407 462> 410 42<282 390> 642 52<131 196> 684 20G<270 277>
VStem: 323 80<23 122> 398 84<241 404>
LayerCount: 2
Fore
SplineSet
228 400 m 1,0,1
 284 452 284 452 357 452 c 0,2,3
 416 452 416 452 449 421 c 128,-1,4
 482 390 482 390 482 335 c 0,5,6
 482 273 482 273 420 111 c 0,7,8
 403 65 403 65 403 44 c 0,9,10
 403 31 403 31 407 25 c 0,11,12
 409 22 409 22 412 22 c 0,13,14
 414 21 414 21 417 21 c 0,15,16
 449 21 449 21 471 54 c 0,17,18
 495 89 495 89 509 138 c 0,19,20
 512 149 512 149 518 156 c 0,21,22
 522 161 522 161 526 162 c 0,23,24
 529 163 529 163 534 163 c 128,-1,25
 539 163 539 163 540 162 c 0,26,27
 556 159 556 159 556 143 c 0,28,29
 556 135 556 135 548 112 c 128,-1,30
 540 89 540 89 525 59 c 0,31,32
 510 28 510 28 481 4 c 0,33,34
 451 -21 451 -21 415 -21 c 0,35,36
 376 -21 376 -21 349.5 5.5 c 128,-1,37
 323 32 323 32 323 71 c 0,38,39
 323 91 323 91 337 129 c 1,40,41
 398 285 398 285 398 350 c 0,42,43
 398 410 398 410 354 410 c 0,44,45
 308 410 308 410 264 377 c 0,46,47
 245 363 245 363 223 330 c 0,48,49
 203 301 203 301 200 291 c 1,50,51
 196 267 196 267 189 245 c 1,52,53
 184 222 184 222 172 178 c 1,54,-1
 150 89 l 1,55,-1
 131 12 l 1,56,-1
 130 12 l 2,57,58
 125 -2 125 -2 112 -11.5 c 128,-1,59
 99 -21 99 -21 84 -21 c 0,60,61
 70 -21 70 -21 59 -13 c 0,62,63
 53 -9 53 -9 50 -3 c 0,64,65
 45 5 45 5 45 17 c 0,66,67
 45 26 45 26 49 42 c 2,68,-1
 194 617 l 1,69,-1
 197 636 l 2,70,71
 197 637 197 637 197 638 c 1,72,73
 194 639 194 639 189 640 c 0,74,75
 179 642 179 642 157 642 c 0,76,77
 147 642 147 642 143 643 c 0,78,79
 136 644 136 644 131 647 c 0,80,81
 126 651 126 651 124 658 c 0,82,83
 123 661 123 661 123 664 c 0,84,85
 124 688 124 688 146 693 c 0,86,87
 148 694 148 694 151 694 c 0,88,89
 161 695 161 695 187 697 c 2,90,-1
 239 702 l 2,91,92
 266 704 266 704 274 704 c 0,93,94
 280 704 280 704 283 703 c 0,95,96
 297 699 297 699 297 683 c 2,97,-1
 297 682 l 1,98,-1
 228 400 l 1,0,1
EndSplineSet
Validated: 19457
EndChar

StartChar: i
Encoding: 105 105 34
Width: 343
VWidth: 1000
Flags: W
HStem: -21 42<154 209> 410 42<114 171> 562 109<201 276>
VStem: 70 80<23 122> 173 80<307 406> 183 111<580 653>
LayerCount: 2
Fore
SplineSet
273.5 581 m 128,-1,1
 253 562 253 562 231 562 c 0,2,3
 210 562 210 562 196.5 575.5 c 128,-1,4
 183 589 183 589 183 608 c 0,5,6
 183 632 183 632 203 651.5 c 128,-1,7
 223 671 223 671 247 671 c 0,8,9
 268 671 268 671 281 657.5 c 128,-1,10
 294 644 294 644 294 625 c 0,11,0
 294 600 294 600 273.5 581 c 128,-1,1
178 140 m 2,12,13
 150 63 150 63 150 44 c 0,14,15
 150 31 150 31 154 25 c 0,16,17
 156 22 156 22 159 22 c 0,18,19
 161 21 161 21 164 21 c 0,20,21
 223 21 223 21 256 138 c 0,22,23
 259 149 259 149 265 156 c 0,24,25
 269 161 269 161 273 162 c 0,26,27
 276 163 276 163 281 163 c 128,-1,28
 286 163 286 163 287 162 c 0,29,30
 303 159 303 159 303 143 c 0,31,32
 303 135 303 135 295 111 c 0,33,34
 287 88 287 88 272 59 c 0,35,36
 257 28 257 28 228 4 c 0,37,38
 198 -21 198 -21 162 -21 c 0,39,40
 122 -21 122 -21 96 5.5 c 128,-1,41
 70 32 70 32 70 71 c 0,42,43
 70 92 70 92 94 155 c 2,44,-1
 116 213 l 1,45,-1
 146 292 l 1,46,-1
 163 339 l 2,47,48
 173 365 173 365 173 384 c 0,49,50
 173 386 173 386 173 388 c 0,51,52
 173 401 173 401 169 406 c 0,53,54
 167 408 167 408 165 409 c 0,55,56
 162 410 162 410 158 410 c 0,57,58
 101 410 101 410 67 293 c 0,59,60
 64 282 64 282 59 276 c 0,61,-1
 58 275 l 0,62,63
 52 270 52 270 50 269 c 0,64,65
 46 268 46 268 41 268 c 128,-1,66
 36 268 36 268 35 269 c 0,67,68
 19 272 19 272 19 288 c 0,69,70
 19 296 19 296 28 320 c 0,71,72
 36 343 36 343 51 372 c 0,73,74
 66 403 66 403 95 427 c 0,75,76
 125 452 125 452 161 452 c 0,77,78
 202 452 202 452 227.5 425.5 c 128,-1,79
 253 399 253 399 253 360 c 0,80,81
 253 340 253 340 239 303 c 0,82,83
 220 253 220 253 217 245 c 2,84,-1
 178 140 l 2,12,13
EndSplineSet
Validated: 19457
EndChar

StartChar: j
Encoding: 106 106 35
Width: 410
VWidth: 1000
Flags: W
HStem: -215 42<62 126> 410 42<213 285> 562 109<314 389>
VStem: -23 112<-167 -94> 287 83<269 410> 296 111<580 653>
LayerCount: 2
Fore
SplineSet
387 581.5 m 128,-1,1
 367 562 367 562 343 562 c 0,2,3
 322 562 322 562 309 575.5 c 128,-1,4
 296 589 296 589 296 608 c 0,5,6
 296 633 296 633 316.5 652 c 128,-1,7
 337 671 337 671 359 671 c 0,8,9
 380 671 380 671 393.5 657.5 c 128,-1,10
 407 644 407 644 407 625 c 0,11,0
 407 601 407 601 387 581.5 c 128,-1,1
280 325 m 2,12,13
 287 354 287 354 287 374 c 0,14,15
 287 410 287 410 265 410 c 0,16,17
 231 410 231 410 200 377 c 128,-1,18
 169 344 169 344 148 294 c 0,19,20
 141 277 141 277 137.5 273.5 c 128,-1,21
 134 270 134 270 130 269 c 128,-1,22
 126 268 126 268 121 268 c 0,23,24
 115 269 l 0,25,26
 99 272 99 272 99 288 c 0,27,28
 99 295 99 295 110.5 319.5 c 128,-1,29
 122 344 122 344 141.5 374 c 128,-1,30
 161 404 161 404 195.5 428 c 128,-1,31
 230 452 230 452 268 452 c 0,32,33
 311 452 311 452 340.5 424 c 128,-1,34
 370 396 370 396 370 350 c 0,35,36
 370 332 370 332 365 311 c 2,37,-1
 273 -55 l 2,38,39
 254 -128 254 -128 195 -171.5 c 128,-1,40
 136 -215 136 -215 75 -215 c 0,41,42
 34 -215 34 -215 5.5 -196 c 128,-1,43
 -23 -177 -23 -177 -23 -143 c 0,44,45
 -23 -114 -23 -114 -3 -95 c 128,-1,46
 17 -76 17 -76 41 -76 c 0,47,48
 64 -76 64 -76 76.5 -89.5 c 128,-1,49
 89 -103 89 -103 89 -121 c 0,50,51
 89 -141 89 -141 79 -154 c 128,-1,52
 69 -167 69 -167 62 -172 c 1,53,54
 67 -173 67 -173 73 -173 c 0,55,56
 110 -173 110 -173 141 -138 c 128,-1,57
 172 -103 172 -103 186 -48 c 2,58,-1
 280 325 l 2,12,13
EndSplineSet
Validated: 19457
EndChar

StartChar: k
Encoding: 107 107 36
Width: 519
VWidth: 1000
Flags: W
HStem: -21 42<356 414> 410 42<381 441> 642 52<131 196> 684 20G<270 277>
VStem: 45 82<-17 78> 273 82<21 145> 277 90<88 191> 405 113<328 399> 458 42<86 154>
LayerCount: 2
Fore
SplineSet
198 280 m 1,0,1
 235 303 235 303 287 361 c 0,2,3
 369 452 369 452 440 452 c 0,4,5
 476 452 476 452 497 430 c 128,-1,6
 518 408 518 408 518 379 c 0,7,8
 518 347 518 347 498 327.5 c 128,-1,9
 478 308 478 308 453 308 c 0,10,11
 430 308 430 308 417 322 c 0,12,13
 405 335 405 335 405 353 c 0,14,15
 405 364 405 364 409 375 c 0,16,17
 413 388 413 388 429 402 c 0,18,19
 435 407 435 407 442 410 c 1,20,21
 440 410 440 410 438 410 c 0,22,23
 407 410 407 410 376 387 c 0,24,25
 343 363 343 363 302 317 c 1,26,27
 264 277 264 277 236 256 c 1,28,29
 367 232 367 232 367 145 c 0,30,31
 367 129 367 129 363 112 c 0,32,33
 355 80 355 80 355 58 c 0,34,35
 355 21 355 21 377 21 c 0,36,37
 402 21 402 21 419 48 c 0,38,39
 438 79 438 79 454 137 c 0,40,41
 454 138 454 138 454.5 140.5 c 128,-1,42
 455 143 455 143 456 145.5 c 128,-1,43
 457 148 457 148 458 150 c 2,44,-1
 458 152 l 2,45,46
 459 153 459 153 459 154 c 2,47,-1
 460 155 l 1,48,49
 465 160 465 160 469 162 c 0,50,51
 473 163 473 163 478 163 c 128,-1,52
 483 163 483 163 484 162 c 0,53,54
 500 159 500 159 500 143 c 0,55,56
 500 140 500 140 496 124 c 0,57,58
 492 109 492 109 483 84 c 0,59,60
 472 55 472 55 463 37 c 0,61,62
 429 -21 429 -21 375 -21 c 0,63,64
 331 -21 331 -21 302 10 c 0,65,66
 273 40 273 40 273 88 c 0,67,68
 273 100 273 100 277 125 c 0,69,-1
 277 126 l 2,70,71
 280 135 280 135 280 144 c 0,72,73
 280 164 280 164 269 179 c 128,-1,74
 258 194 258 194 241 201 c 0,75,76
 221 209 221 209 204 214 c 0,77,78
 192 217 192 217 182 218 c 1,79,80
 134 20 134 20 127 6 c 1,81,-1
 127 5 l 0,82,83
 114 -21 114 -21 84 -21 c 0,84,85
 70 -21 70 -21 59 -13 c 0,86,87
 53 -9 53 -9 50 -3 c 0,88,89
 45 5 45 5 45 17 c 0,90,91
 45 26 45 26 49 42 c 2,92,-1
 194 617 l 1,93,-1
 197 636 l 2,94,95
 197 637 197 637 197 638 c 1,96,97
 194 639 194 639 189 640 c 0,98,99
 179 642 179 642 157 642 c 0,100,101
 147 642 147 642 143 643 c 0,102,103
 136 644 136 644 131 647 c 0,104,105
 126 651 126 651 124 658 c 0,106,107
 123 661 123 661 123 664 c 0,108,109
 124 688 124 688 146 693 c 0,110,111
 148 694 148 694 151 694 c 0,112,113
 161 695 161 695 187 697 c 2,114,-1
 239 702 l 2,115,116
 266 704 266 704 274 704 c 0,117,118
 280 704 280 704 283 703 c 0,119,120
 297 699 297 699 297 683 c 2,121,-1
 297 682 l 1,122,-1
 198 280 l 1,0,1
EndSplineSet
Validated: 19457
EndChar

StartChar: l
Encoding: 108 108 37
Width: 297
VWidth: 1000
Flags: W
HStem: -21 42<120 169> 642 52<103 168> 684 20G<238 248>
VStem: 34 84<21 166> 204 46<68 150 150 162>
LayerCount: 2
Fore
SplineSet
124 103 m 2,0,1
 118 79 118 79 118 57 c 0,2,3
 118 21 118 21 138 21 c 0,4,5
 159 21 159 21 173 48 c 0,6,7
 204 110 204 110 204 137 c 0,8,9
 204 138 204 138 204 140 c 0,10,11
 205 144 205 144 206 146 c 0,12,13
 208 150 l 2,14,-1
 208 152 l 2,15,16
 208 153 208 153 209 154 c 2,17,-1
 210 155 l 1,18,19
 215 160 215 160 219 162 c 0,20,21
 223 163 223 163 228 163 c 128,-1,22
 233 163 233 163 234 162 c 0,23,24
 250 159 250 159 250 143 c 0,25,26
 250 140 250 140 246 123 c 0,27,28
 242 107 242 107 235 83 c 0,29,30
 227 59 227 59 219 41 c 0,31,32
 190 -21 190 -21 135 -21 c 0,33,34
 94 -21 94 -21 64 7 c 128,-1,35
 34 35 34 35 34 81 c 0,36,37
 34 98 34 98 39 118 c 2,38,-1
 165 617 l 1,39,-1
 168 636 l 2,40,-1
 168 637 l 0,41,42
 166 638 166 638 160 639 c 0,43,44
 150 642 150 642 129 642 c 0,45,46
 111 642 111 642 102 648 c 0,47,48
 94 654 94 654 94 663 c 2,49,-1
 94 668 l 2,50,51
 94 669 l 1,52,53
 96 683 96 683 116 693 c 0,54,55
 118 694 118 694 122 694 c 0,56,57
 132 695 132 695 158 697 c 2,58,-1
 210 702 l 2,59,60
 231 704 231 704 245 704 c 0,61,62
 251 704 251 704 254 703 c 0,63,64
 268 699 268 699 268 683 c 2,65,-1
 268 682 l 1,66,-1
 124 103 l 2,0,1
EndSplineSet
Validated: 19457
EndChar

StartChar: m
Encoding: 109 109 38
Width: 877
VWidth: 1000
Flags: W
HStem: -21 42<709 764> 410 42<102 150 307 415 584 692>
VStem: 347 85<-12 93> 625 80<23 123> 700 84<245 404>
LayerCount: 2
Fore
SplineSet
136 292 m 2,0,1
 152 355 152 355 152 374 c 0,2,3
 152 410 152 410 131 410 c 0,4,5
 94 410 94 410 68 299 c 0,6,7
 64 284 64 284 61 277 c 0,8,9
 60 276 l 0,10,11
 55 271 55 271 49 269 c 0,12,13
 45 268 45 268 41 268 c 0,14,15
 36 268 36 268 35 269 c 0,16,17
 19 272 19 272 19 288 c 0,18,19
 19 291 19 291 23 308 c 0,20,21
 27 324 27 324 35 348 c 128,-1,22
 43 372 43 372 51 389 c 0,23,24
 82 452 82 452 134 452 c 0,25,26
 174 452 174 452 203 426 c 0,27,28
 224 407 224 407 232 378 c 1,29,30
 295 452 295 452 382 452 c 0,31,32
 437 452 437 452 470 424 c 0,33,34
 493 404 493 404 502 370 c 1,35,36
 569 452 569 452 659 452 c 0,37,38
 718 452 718 452 751 421 c 128,-1,39
 784 390 784 390 784 335 c 128,-1,40
 784 280 784 280 722 111 c 1,41,42
 705 68 705 68 705 44 c 0,43,44
 705 31 705 31 709 25 c 0,45,46
 711 22 711 22 714 22 c 0,47,48
 716 21 716 21 719 21 c 0,49,50
 751 21 751 21 773 54 c 0,51,52
 797 89 797 89 811 138 c 0,53,54
 814 149 814 149 820 156 c 0,55,56
 824 161 824 161 828 162 c 0,57,58
 831 163 831 163 836 163 c 128,-1,59
 841 163 841 163 842 162 c 0,60,61
 858 159 858 159 858 143 c 0,62,63
 858 135 858 135 850 112 c 128,-1,64
 842 89 842 89 827 59 c 0,65,66
 812 28 812 28 783 4 c 0,67,68
 753 -21 753 -21 717 -21 c 0,69,70
 678 -21 678 -21 651.5 5.5 c 128,-1,71
 625 32 625 32 625 71 c 0,72,73
 625 93 625 93 639 130 c 0,74,75
 700 293 700 293 700 350 c 0,76,77
 700 410 700 410 656 410 c 0,78,79
 621 410 621 410 590 393 c 128,-1,80
 559 376 559 376 541 352 c 0,81,82
 522 327 522 327 512 309 c 128,-1,83
 502 291 502 291 501 285 c 2,84,-1
 441 44 l 2,85,86
 435 21 435 21 432 12 c 0,87,88
 428 1 428 1 417 -9 c 0,89,90
 405 -21 405 -21 386 -21 c 0,91,92
 370 -21 370 -21 359 -12 c 0,93,94
 347 -2 347 -2 347 16 c 0,95,96
 347 19 347 19 350 30 c 0,97,98
 352 40 352 40 355 55 c 128,-1,99
 358 70 358 70 360 77 c 2,100,-1
 380 153 l 1,101,-1
 408 269 l 1,102,103
 423 324 423 324 423 350 c 0,104,105
 423 410 423 410 379 410 c 0,106,107
 348 410 348 410 321 397 c 0,108,109
 293 384 293 384 274 363 c 0,110,111
 254 342 254 342 244 325 c 0,112,113
 230 305 230 305 226 295 c 0,114,115
 225 293 225 293 224 289 c 0,116,-1
 223 285 l 2,117,-1
 218 264 l 2,118,119
 214 247 214 247 213 246 c 0,120,121
 207 219 207 219 196 178 c 1,122,-1
 174 89 l 2,123,124
 157 21 157 21 154 13 c 0,125,126
 141 -21 141 -21 108 -21 c 0,127,128
 92 -21 92 -21 81 -12 c 0,129,130
 69 -2 69 -2 69 16 c 0,131,132
 69 19 69 19 71 27 c 128,-1,133
 73 35 73 35 75 45 c 128,-1,134
 77 55 77 55 78 61 c 2,135,-1
 136 292 l 2,0,1
EndSplineSet
Validated: 19457
EndChar

StartChar: n
Encoding: 110 110 39
Width: 599
VWidth: 1000
Flags: W
HStem: -21 42<432 486> 410 42<102 150 307 415>
VStem: 348 80<23 121> 423 84<246 404>
LayerCount: 2
Fore
SplineSet
136 292 m 2,0,1
 152 355 152 355 152 374 c 0,2,3
 152 410 152 410 131 410 c 0,4,5
 94 410 94 410 68 299 c 0,6,7
 64 284 64 284 61 277 c 0,8,9
 60 276 l 0,10,11
 55 271 55 271 49 269 c 0,12,13
 45 268 45 268 41 268 c 0,14,15
 36 268 36 268 35 269 c 0,16,17
 19 272 19 272 19 288 c 0,18,19
 19 292 19 292 23 309 c 0,20,21
 27 325 27 325 35 350 c 0,22,23
 44 378 44 378 50 390 c 0,24,25
 55 400 55 400 65 414 c 0,26,27
 71 424 71 424 90 438 c 0,28,29
 110 452 110 452 134 452 c 0,30,31
 174 452 174 452 203 426 c 0,32,33
 224 407 224 407 232 378 c 1,34,35
 295 452 295 452 382 452 c 0,36,37
 440 452 440 452 473 421 c 0,38,39
 507 390 507 390 507 335 c 0,40,41
 507 283 507 283 445 111 c 1,42,43
 428 68 428 68 428 44 c 0,44,45
 428 31 428 31 432 25 c 0,46,47
 434 22 434 22 437 22 c 0,48,49
 439 21 439 21 442 21 c 0,50,51
 500 21 500 21 534 138 c 0,52,53
 537 149 537 149 543 156 c 0,54,55
 547 161 547 161 551 162 c 0,56,57
 554 163 554 163 559 163 c 128,-1,58
 564 163 564 163 565 162 c 0,59,60
 581 159 581 159 581 143 c 0,61,62
 581 135 581 135 573 112 c 128,-1,63
 565 89 565 89 550 59 c 0,64,65
 535 28 535 28 506 4 c 0,66,67
 476 -21 476 -21 440 -21 c 0,68,69
 401 -21 401 -21 374.5 5.5 c 128,-1,70
 348 32 348 32 348 71 c 0,71,72
 348 92 348 92 359 121 c 0,73,74
 423 293 423 293 423 350 c 0,75,76
 423 410 423 410 379 410 c 0,77,78
 348 410 348 410 321 397 c 0,79,80
 293 384 293 384 274 363 c 0,81,82
 254 342 254 342 244 325 c 0,83,84
 230 305 230 305 226 295 c 0,85,86
 225 293 225 293 224 289 c 0,87,-1
 223 285 l 2,88,-1
 218 264 l 2,89,90
 214 247 214 247 213 246 c 0,91,92
 207 219 207 219 196 178 c 1,93,-1
 174 89 l 2,94,95
 157 21 157 21 154 13 c 0,96,97
 141 -21 141 -21 108 -21 c 0,98,99
 92 -21 92 -21 81 -12 c 0,100,101
 69 -2 69 -2 69 16 c 0,102,103
 69 19 69 19 71 27 c 128,-1,104
 73 35 73 35 75 45 c 128,-1,105
 77 55 77 55 78 61 c 2,106,-1
 136 292 l 2,0,1
EndSplineSet
Validated: 19457
EndChar

StartChar: o
Encoding: 111 111 40
Width: 483
VWidth: 1000
Flags: W
HStem: -21 42<151 266> 410 42<245 360>
VStem: 31 94<65 241> 386 93<193 366>
LayerCount: 2
Fore
SplineSet
392.5 69.5 m 128,-1,1
 306 -21 306 -21 201 -21 c 0,2,3
 127 -21 127 -21 79 29.5 c 128,-1,4
 31 80 31 80 31 158 c 0,5,6
 31 268 31 268 117.5 360 c 128,-1,7
 204 452 204 452 309 452 c 0,8,9
 382 452 382 452 430.5 402.5 c 128,-1,10
 479 353 479 353 479 273 c 0,11,0
 479 160 479 160 392.5 69.5 c 128,-1,1
202 21 m 128,-1,13
 234 21 234 21 269.5 44 c 128,-1,14
 305 67 305 67 329 108 c 0,15,16
 354 150 354 150 370 214 c 128,-1,17
 386 278 386 278 386 312 c 0,18,19
 386 356 386 356 365.5 383 c 128,-1,20
 345 410 345 410 308 410 c 0,21,22
 282 410 282 410 247.5 390.5 c 128,-1,23
 213 371 213 371 181 323 c 0,24,25
 159 289 159 289 142 223.5 c 128,-1,26
 125 158 125 158 125 120 c 0,27,28
 125 70 125 70 147.5 45.5 c 128,-1,12
 170 21 170 21 202 21 c 128,-1,13
EndSplineSet
Validated: 19457
EndChar

StartChar: p
Encoding: 112 112 41
Width: 502
VWidth: 1000
Flags: W
HStem: -204 51<-42 24 118 181> -21 42<202 298> 410 42<104 152 300 393>
VStem: 24 94<-149 -78> 408 92<203 376>
LayerCount: 2
Fore
SplineSet
147 325 m 2,0,1
 154 354 154 354 154 374 c 0,2,3
 154 410 154 410 133 410 c 0,4,5
 96 410 96 410 70 299 c 0,6,7
 66 284 66 284 63 277 c 0,8,9
 62 276 l 0,10,11
 57 271 57 271 51 269 c 0,12,13
 47 268 47 268 43 268 c 0,14,15
 38 268 38 268 37 269 c 0,16,17
 21 272 21 272 21 288 c 0,18,19
 21 291 21 291 25 308 c 0,20,21
 29 324 29 324 37 349 c 0,22,23
 44 372 44 372 53 390 c 0,24,25
 85 452 85 452 136 452 c 0,26,27
 170 452 170 452 199 432 c 0,28,29
 221 416 221 416 231 388 c 1,30,31
 291 452 291 452 357 452 c 0,32,33
 419 452 419 452 460 403 c 0,34,35
 500 355 500 355 500 282 c 0,36,37
 500 169 500 169 421 75 c 0,38,39
 342 -21 342 -21 249 -21 c 0,40,41
 192 -21 192 -21 160 27 c 1,42,-1
 138 -59 l 2,43,44
 136 -66 136 -66 131.5 -88 c 128,-1,45
 127 -110 127 -110 122.5 -128 c 128,-1,46
 118 -146 118 -146 118 -147 c 128,-1,47
 118 -148 118 -148 118 -149 c 0,48,49
 120 -150 120 -150 125 -151 c 0,50,51
 135 -153 135 -153 158 -153 c 0,52,53
 173 -153 173 -153 181 -157 c 0,54,55
 192 -163 192 -163 192 -174 c 0,56,57
 192 -204 192 -204 164 -204 c 0,58,59
 148 -204 148 -204 115 -202 c 0,60,61
 82 -201 82 -201 65 -201 c 0,62,63
 51 -201 51 -201 23 -202 c 0,64,65
 -11 -204 -11 -204 -19 -204 c 0,66,67
 -25 -204 -25 -204 -28 -203 c 0,68,69
 -37 -200 -37 -200 -40 -191 c 0,70,71
 -42 -186 -42 -186 -42 -182 c 0,72,73
 -42 -171 -42 -171 -39 -165.5 c 128,-1,74
 -36 -160 -36 -160 -31 -157 c 0,75,76
 -24 -153 -24 -153 -9 -153 c 0,77,78
 15 -153 15 -153 23 -149 c 0,79,-1
 24 -149 l 2,80,-1
 24 -148 l 2,81,82
 30 -143 30 -143 35 -120 c 2,83,-1
 147 325 l 2,0,1
231 310 m 2,84,-1
 182 114 l 2,85,86
 179 103 179 103 179 100 c 0,87,88
 179 96 179 96 182 85 c 128,-1,89
 185 74 185 74 192 58 c 128,-1,90
 199 42 199 42 213.5 31.5 c 128,-1,91
 228 21 228 21 248 21 c 0,92,93
 274 21 274 21 304.5 46 c 128,-1,94
 335 71 335 71 358 118 c 0,95,96
 372 148 372 148 390 217 c 128,-1,97
 408 286 408 286 408 326 c 0,98,99
 408 367 408 367 393.5 388.5 c 128,-1,100
 379 410 379 410 354 410 c 0,101,102
 321 410 321 410 280 374 c 0,103,104
 239 340 239 340 231 310 c 2,84,-1
EndSplineSet
Validated: 19457
EndChar

StartChar: q
Encoding: 113 113 42
Width: 445
VWidth: 1000
Flags: W
HStem: -204 51<154 223 320 384> -21 42<142 230> 410 42<231 325>
VStem: 30 91<53 225>
LayerCount: 2
Fore
SplineSet
324 -127 m 2,0,1
 320 -144 320 -144 320 -147 c 0,2,3
 320 -148 320 -148 320 -149 c 0,4,5
 322 -150 322 -150 326 -151 c 0,6,7
 335 -153 335 -153 358 -153 c 0,8,9
 375 -153 375 -153 384 -158 c 0,10,11
 394 -164 394 -164 394 -174 c 0,12,13
 394 -204 394 -204 366 -204 c 0,14,15
 350 -204 350 -204 315 -202 c 0,16,17
 280 -201 280 -201 263 -201 c 128,-1,18
 246 -201 246 -201 213 -202 c 0,19,20
 173 -204 173 -204 163 -204 c 0,21,22
 157 -204 157 -204 154 -203 c 0,23,24
 140 -199 140 -199 140 -183 c 0,25,26
 140 -175 140 -175 142 -170 c 0,27,28
 143 -166 143 -166 145 -163 c 0,29,30
 148 -159 148 -159 151 -157 c 0,31,32
 155 -154 155 -154 160 -154 c 0,33,34
 163 -154 163 -154 173 -153 c 0,35,36
 212 -152 212 -152 223 -147 c 0,37,38
 231 -143 231 -143 235 -127 c 2,39,-1
 246 -87 l 1,40,-1
 266 -6 l 1,41,-1
 273 20 l 1,42,43
 222 -21 222 -21 172 -21 c 0,44,45
 111 -21 111 -21 70 26 c 0,46,47
 30 73 30 73 30 149 c 0,48,49
 30 261 30 261 108 356 c 0,50,51
 187 452 187 452 281 452 c 0,52,53
 343 452 343 452 375 392 c 1,54,55
 387 408 387 408 403 425 c 0,56,57
 427 449 427 449 438 451 c 0,58,59
 440 451 440 451 442 451 c 0,60,61
 462 451 462 451 462 431 c 2,62,-1
 462 430 l 1,63,-1
 324 -127 l 2,0,1
175 21 m 0,64,65
 208 21 208 21 243 51 c 128,-1,66
 278 81 278 81 293 107 c 1,67,68
 296 115 296 115 322 219 c 0,69,70
 349 325 349 325 350 333 c 0,71,72
 350 336 350 336 347 346 c 0,73,74
 344 357 344 357 336 374 c 0,75,76
 329 389 329 389 314 399 c 0,77,78
 300 410 300 410 281 410 c 0,79,80
 253 410 253 410 221 382 c 0,81,82
 188 352 188 352 166 300 c 0,83,84
 153 267 153 267 137 201 c 0,85,86
 121 137 121 137 121 105 c 0,87,88
 121 96 121 96 123 84 c 128,-1,89
 125 72 125 72 130 55 c 0,90,91
 135 40 135 40 146 30 c 0,92,93
 158 21 158 21 175 21 c 0,64,65
EndSplineSet
Validated: 19457
EndChar

StartChar: r
Encoding: 114 114 43
Width: 450
VWidth: 1000
Flags: W
HStem: -21 21G<100 125> 410 42<102 150 292 368>
VStem: 69 85<-12 94> 333 113<328 398>
LayerCount: 2
Fore
SplineSet
136 292 m 2,0,1
 152 355 152 355 152 374 c 0,2,3
 152 410 152 410 131 410 c 0,4,5
 94 410 94 410 68 299 c 0,6,7
 64 284 64 284 61 277 c 0,8,9
 60 276 l 0,10,11
 55 271 55 271 49 269 c 0,12,13
 45 268 45 268 41 268 c 0,14,15
 36 268 36 268 35 269 c 0,16,17
 19 272 19 272 19 288 c 0,18,19
 19 291 19 291 23 308 c 0,20,21
 27 324 27 324 35 349 c 0,22,23
 42 372 42 372 51 390 c 0,24,25
 83 452 83 452 134 452 c 0,26,27
 173 452 173 452 201 428 c 0,28,29
 221 411 221 411 229 388 c 1,30,31
 281 452 281 452 353 452 c 0,32,33
 394 452 394 452 419 431 c 0,34,35
 446 409 446 409 446 377 c 0,36,37
 446 347 446 347 426 327.5 c 128,-1,38
 406 308 406 308 381 308 c 0,39,40
 358 308 358 308 345 322 c 0,41,42
 333 335 333 335 333 353 c 0,43,44
 333 377 333 377 351 395 c 0,45,46
 359 403 359 403 368 409 c 1,47,48
 367 409 367 409 366 409 c 0,49,50
 360 410 360 410 353 410 c 0,51,52
 314 410 314 410 280 380 c 0,53,54
 266 368 266 368 247 339 c 0,55,56
 230 313 230 313 227 302 c 1,57,58
 224 286 224 286 210 234 c 2,59,-1
 195 173 l 2,60,61
 192 158 192 158 174 88 c 0,62,63
 156 17 156 17 154 14 c 0,64,65
 142 -21 142 -21 108 -21 c 0,66,67
 92 -21 92 -21 81 -12 c 0,68,69
 69 -2 69 -2 69 16 c 0,70,71
 69 19 69 19 71 27 c 128,-1,72
 73 35 73 35 75 45 c 128,-1,73
 77 55 77 55 78 61 c 2,74,-1
 136 292 l 2,0,1
EndSplineSet
Validated: 19457
EndChar

StartChar: s
Encoding: 115 115 44
Width: 467
VWidth: 1000
Flags: W
HStem: -21 42<112 282> 410 42<229 370>
VStem: 42 113<70 141> 122 77<252 368> 329 77<80 164> 333 97<308 371>
LayerCount: 2
Fore
SplineSet
301 410 m 0,0,1
 247 410 247 410 223 383 c 128,-1,2
 199 356 199 356 199 330 c 0,3,4
 199 319 199 319 203 311 c 128,-1,5
 207 303 207 303 211 299.5 c 128,-1,6
 215 296 215 296 227 291 c 0,7,8
 240 286 240 286 244 285 c 0,9,10
 247 285 247 285 255 283 c 128,-1,11
 263 281 263 281 267 280 c 0,12,13
 304 272 304 272 308 271 c 0,14,15
 321 268 321 268 339 258 c 0,16,17
 357 249 357 249 372 235 c 0,18,19
 406 201 406 201 406 155 c 0,20,21
 406 133 406 133 396 106 c 128,-1,22
 386 79 386 79 365 50 c 0,23,24
 343 19 343 19 298 -1 c 0,25,26
 254 -21 254 -21 195 -21 c 0,27,28
 128 -21 128 -21 86 8 c 0,29,30
 42 38 42 38 42 86 c 0,31,32
 42 121 42 121 62 141.5 c 128,-1,33
 82 162 82 162 108 162 c 0,34,35
 128 162 128 162 141 151 c 0,36,37
 155 139 155 139 155 117 c 0,38,39
 155 90 155 90 134 70 c 0,40,41
 119 56 119 56 100 54 c 1,42,43
 126 21 126 21 196 21 c 0,44,45
 236 21 236 21 265 33 c 0,46,47
 293 45 293 45 305 62 c 0,48,49
 318 80 318 80 324 96 c 0,50,51
 329 110 329 110 329 121 c 0,52,53
 329 138 329 138 322 149 c 0,54,55
 316 160 316 160 301 167 c 0,56,57
 284 175 284 175 271 178 c 0,58,59
 258 182 258 182 233 187 c 0,60,61
 122 210 122 210 122 296 c 0,62,63
 122 317 122 317 131 341 c 128,-1,64
 140 365 140 365 158 391 c 0,65,66
 177 418 177 418 215 435 c 0,67,68
 252 452 252 452 301 452 c 0,69,70
 359 452 359 452 394 425 c 0,71,72
 430 397 430 397 430 356 c 0,73,74
 430 325 430 325 413 307.5 c 128,-1,75
 396 290 396 290 374 290 c 0,76,77
 355 290 355 290 344 302 c 0,78,79
 333 313 333 313 333 329 c 0,80,81
 333 350 333 350 350 367 c 0,82,83
 361 378 361 378 376 382 c 1,84,85
 356 410 356 410 301 410 c 0,0,1
EndSplineSet
Validated: 19457
EndChar

StartChar: t
Encoding: 116 116 45
Width: 360
VWidth: 1000
Flags: W
HStem: -21 42<138 211> 390 51<21 126 227 340>
VStem: 53 83<21 166> 176 89<563 622> 278 46<99 150>
LayerCount: 2
Fore
SplineSet
142 103 m 2,0,1
 136 79 136 79 136 57 c 0,2,3
 136 21 136 21 157 21 c 0,4,5
 227 21 227 21 278 143 c 0,6,7
 280 147 280 147 281 150 c 0,8,9
 289 163 289 163 302 163 c 0,10,11
 307 163 307 163 308 162 c 0,12,13
 324 159 324 159 324 143 c 0,14,15
 324 138 324 138 317 120 c 0,16,17
 310 103 310 103 295.5 79.5 c 128,-1,18
 281 56 281 56 263 34 c 0,19,20
 244 11 244 11 215 -5 c 128,-1,21
 186 -21 186 -21 155 -21 c 0,22,23
 110 -21 110 -21 81.5 7.5 c 128,-1,24
 53 36 53 36 53 81 c 0,25,-1
 53 82 l 0,26,27
 54 106 54 106 126 390 c 1,28,-1
 51 390 l 2,29,30
 38 390 38 390 33 391 c 0,31,32
 25 392 25 392 21 395 c 0,33,34
 16 399 16 399 14 406 c 0,35,36
 13 409 13 409 13 412 c 0,37,38
 14 425 14 425 18 431 c 0,39,40
 21 435 21 435 25 437 c 0,41,42
 33 441 33 441 53 441 c 2,43,-1
 139 441 l 1,44,-1
 176 592 l 2,45,46
 187 636 187 636 226 636 c 0,47,48
 244 636 244 636 254 627 c 0,49,50
 257 624 257 624 259 622 c 0,51,52
 265 613 265 613 265 599 c 0,53,54
 265 598 265 598 265 597 c 0,55,56
 264 586 264 586 227 441 c 1,57,-1
 302 441 l 2,58,59
 319 441 319 441 326 439 c 0,60,61
 340 436 340 436 340 420 c 0,62,63
 340 407 340 407 335 400 c 0,64,65
 332 396 332 396 328 394 c 0,66,67
 320 390 320 390 300 390 c 2,68,-1
 214 390 l 1,69,-1
 142 103 l 2,0,1
EndSplineSet
Validated: 19457
EndChar

StartChar: u
Encoding: 117 117 46
Width: 571
VWidth: 1000
Flags: W
HStem: -21 42<193 291 423 472> 410 42<114 171> 421 20G<443 470>
VStem: 98 84<30 202> 173 80<309 407> 338 83<63 164> 511 42<77 154>
LayerCount: 2
Fore
SplineSet
231 -21 m 0,0,1
 179 -21 179 -21 139 9 c 0,2,3
 98 40 98 40 98 109 c 0,4,5
 98 168 98 168 157 323 c 0,6,7
 173 366 173 366 173 387 c 0,8,9
 173 400 173 400 169 406 c 0,10,11
 167 408 167 408 165 409 c 0,12,13
 162 410 162 410 158 410 c 0,14,15
 101 410 101 410 67 293 c 0,16,17
 64 282 64 282 59 276 c 0,18,19
 58 275 l 0,20,21
 52 270 52 270 50 269 c 0,22,23
 46 268 46 268 41 268 c 128,-1,24
 36 268 36 268 35 269 c 0,25,26
 19 272 19 272 19 288 c 0,27,28
 19 296 19 296 27 320 c 0,29,30
 35 343 35 343 50 372 c 0,31,32
 65 403 65 403 94 427 c 0,33,34
 124 452 124 452 161 452 c 0,35,36
 202 452 202 452 227.5 425.5 c 128,-1,37
 253 399 253 399 253 360 c 0,38,39
 253 340 253 340 235 293 c 0,40,41
 182 153 182 153 182 93 c 0,42,43
 182 21 182 21 234 21 c 0,44,45
 264 21 264 21 289 40 c 0,46,47
 316 60 316 60 326 76 c 0,48,49
 338 94 338 94 338 98 c 0,50,51
 367 224 367 224 413 398 c 0,52,53
 424 441 424 441 462 441 c 0,54,55
 478 441 478 441 489 432 c 0,56,57
 501 422 501 422 501 404 c 0,58,59
 501 400 501 400 498 388 c 2,60,-1
 492 360 l 1,61,-1
 486 335 l 1,62,63
 472 284 472 284 469 267 c 1,64,-1
 441 159 l 1,65,66
 421 73 421 73 421 57 c 0,67,68
 421 21 421 21 442 21 c 0,69,70
 457 21 457 21 469 38 c 0,71,72
 484 58 484 58 491 80 c 0,73,74
 499 104 499 104 507 137 c 0,75,76
 510 149 510 149 511 150 c 2,77,-1
 511 152 l 2,78,79
 512 153 512 153 512 154 c 2,80,-1
 513 155 l 1,81,82
 518 160 518 160 522 162 c 0,83,84
 526 163 526 163 531 163 c 128,-1,85
 536 163 536 163 537 162 c 0,86,87
 553 159 553 159 553 143 c 0,88,89
 553 140 553 140 549 123 c 0,90,91
 545 107 545 107 537.5 82 c 128,-1,92
 530 57 530 57 522 40 c 0,93,94
 492 -21 492 -21 439 -21 c 0,95,96
 404 -21 404 -21 377 -1 c 0,97,98
 357 14 357 14 346 36 c 1,99,100
 295 -21 295 -21 231 -21 c 0,0,1
EndSplineSet
Validated: 19457
EndChar

StartChar: v
Encoding: 118 118 47
Width: 483
VWidth: 1000
Flags: W
HStem: -21 42<198 303> 410 42<114 171>
VStem: 99 84<34 203> 173 80<308 406> 415 63<251 393>
LayerCount: 2
Fore
SplineSet
465 287 m 128,-1,1
 452 229 452 229 428 159 c 0,2,3
 403 87 403 87 355 34 c 0,4,5
 305 -21 305 -21 243 -21 c 0,6,7
 221 -21 221 -21 200 -16 c 128,-1,8
 179 -11 179 -11 155 1 c 0,9,10
 130 14 130 14 114 44 c 0,11,12
 99 73 99 73 99 113 c 0,13,14
 99 170 99 170 157 322 c 0,15,16
 173 363 173 363 173 385 c 0,17,18
 173 386 173 386 173 388 c 0,19,20
 173 401 173 401 169 406 c 0,21,22
 167 408 167 408 165 409 c 0,23,24
 162 410 162 410 158 410 c 0,25,26
 101 410 101 410 67 293 c 0,27,28
 64 282 64 282 59 276 c 0,29,-1
 58 275 l 0,30,31
 52 270 52 270 50 269 c 0,32,33
 46 268 46 268 41 268 c 128,-1,34
 36 268 36 268 35 269 c 0,35,36
 19 272 19 272 19 288 c 0,37,38
 19 296 19 296 28 320 c 0,39,40
 36 343 36 343 51 372 c 0,41,42
 66 403 66 403 95 427 c 0,43,44
 125 452 125 452 161 452 c 0,45,46
 202 452 202 452 227.5 425.5 c 128,-1,47
 253 399 253 399 253 360 c 0,48,49
 253 340 253 340 240 306 c 0,50,51
 183 155 183 155 183 98 c 0,52,53
 183 21 183 21 247 21 c 0,54,55
 284 21 284 21 317 54 c 0,56,57
 352 89 352 89 371 135 c 0,58,59
 391 183 391 183 403 224 c 0,60,61
 415 264 415 264 415 282 c 0,62,63
 415 326 415 326 384 357 c 0,64,65
 365 376 365 376 365 394 c 0,66,67
 365 415 365 415 383.5 433.5 c 128,-1,68
 402 452 402 452 424 452 c 128,-1,69
 446 452 446 452 462 432 c 0,70,71
 478 413 478 413 478 372 c 0,72,0
 478 345 478 345 465 287 c 128,-1,1
EndSplineSet
Validated: 19457
EndChar

StartChar: w
Encoding: 119 119 48
Width: 714
VWidth: 1000
Flags: W
HStem: -21 42<201 301 435 538> 410 42<114 171> 421 20G<431 456>
VStem: 99 85<37 208> 173 80<311 408> 335 84<76 211> 402 85<322 432> 638 63<247 393>
LayerCount: 2
Fore
SplineSet
430 168 m 1,0,1
 419 130 419 130 419 98 c 0,2,3
 419 21 419 21 483 21 c 0,4,5
 543 21 543 21 584 103 c 0,6,7
 603 142 603 142 620 199 c 0,8,9
 638 257 638 257 638 282 c 0,10,11
 638 327 638 327 605 360 c 1,12,13
 587 376 587 376 587 394 c 0,14,15
 587 415 587 415 606 433.5 c 128,-1,16
 625 452 625 452 647 452 c 0,17,18
 668 452 668 452 685 432 c 0,19,20
 701 413 701 413 701 372 c 0,21,22
 701 334 701 334 680 250 c 0,23,24
 660 168 660 168 634 108 c 0,25,26
 578 -21 578 -21 480 -21 c 0,27,28
 389 -21 389 -21 354 38 c 1,29,30
 313 -21 313 -21 251 -21 c 0,31,32
 186 -21 186 -21 143 12 c 0,33,34
 99 46 99 46 99 115 c 0,35,36
 99 172 99 172 156 321 c 0,37,38
 173 367 173 367 173 387 c 0,39,40
 173 400 173 400 169 406 c 0,41,42
 167 408 167 408 165 409 c 0,43,44
 162 410 162 410 158 410 c 0,45,46
 101 410 101 410 67 293 c 0,47,48
 64 282 64 282 59 276 c 0,49,50
 58 275 l 0,51,52
 52 270 52 270 50 269 c 0,53,54
 46 268 46 268 41 268 c 128,-1,55
 36 268 36 268 35 269 c 0,56,57
 19 272 19 272 19 288 c 0,58,59
 19 296 19 296 27 320 c 0,60,61
 35 343 35 343 50 372 c 0,62,63
 65 403 65 403 94 427 c 0,64,65
 124 452 124 452 161 452 c 0,66,67
 201 452 201 452 227 425 c 128,-1,68
 253 398 253 398 253 360 c 0,69,70
 253 339 253 339 235 292 c 0,71,72
 184 156 184 156 184 102 c 0,73,74
 184 21 184 21 254 21 c 0,75,76
 303 21 303 21 336 96 c 1,77,78
 335 102 335 102 335 113 c 0,79,80
 335 143 335 143 344 182 c 0,81,82
 345 184 345 184 347 192.5 c 128,-1,83
 349 201 349 201 353 216 c 128,-1,84
 357 231 357 231 361 247 c 2,85,-1
 388 352 l 2,86,87
 401 404 401 404 402 406 c 0,88,89
 414 441 414 441 448 441 c 0,90,91
 464 441 464 441 475 432 c 0,92,93
 487 422 487 422 487 404 c 0,94,95
 487 400 487 400 484 388 c 2,96,-1
 478 361 l 1,97,-1
 472 337 l 1,98,-1
 430 168 l 1,0,1
EndSplineSet
Validated: 19457
EndChar

StartChar: x
Encoding: 120 120 49
Width: 570
VWidth: 1000
Flags: W
HStem: -21 42<101 170 304 394> 410 42<162 253 386 456>
VStem: 19 112<30 103> 50 45<268 338> 425 112<325 398> 461 45<92 163>
LayerCount: 2
Fore
SplineSet
310 163 m 2,0,1
 293 96 293 96 293 77 c 0,2,3
 293 52 293 52 305 36 c 0,4,5
 316 21 316 21 338 21 c 0,6,7
 368 21 368 21 404 49 c 0,8,9
 441 78 441 78 461 145 c 0,10,11
 466 163 466 163 484 163 c 0,12,13
 489 163 489 163 490 162 c 0,14,15
 506 159 506 159 506 143 c 0,16,17
 506 130 506 130 494 104 c 0,18,19
 483 79 483 79 463 51 c 0,20,21
 443 22 443 22 409 1 c 0,22,23
 375 -21 375 -21 336 -21 c 0,24,25
 290 -21 290 -21 260 4 c 0,26,27
 239 21 239 21 227 43 c 1,28,29
 221 34 221 34 207 19 c 0,30,31
 192 2 192 2 171 -9 c 0,32,33
 149 -21 149 -21 123 -21 c 0,34,35
 83 -21 83 -21 52 -3 c 0,36,37
 19 17 19 17 19 55 c 0,38,39
 19 83 19 83 38 103 c 128,-1,40
 57 123 57 123 84 123 c 0,41,42
 101 123 101 123 115 113 c 0,43,44
 131 102 131 102 131 78 c 128,-1,45
 131 54 131 54 115 36 c 0,46,47
 108 29 108 29 100 24 c 1,48,49
 111 21 111 21 124 21 c 0,50,51
 152 21 152 21 174 46 c 0,52,53
 197 72 197 72 209 118 c 0,54,55
 263 322 263 322 263 353 c 0,56,57
 263 386 263 386 250 398 c 0,58,59
 236 410 236 410 219 410 c 0,60,61
 188 410 188 410 152.5 382 c 128,-1,62
 117 354 117 354 95 286 c 1,63,64
 91 268 91 268 72 268 c 0,65,66
 67 268 67 268 66 269 c 0,67,68
 50 272 50 272 50 288 c 0,69,70
 50 301 50 301 62 327 c 0,71,72
 73 352 73 352 93 380 c 0,73,74
 113 409 113 409 147 430 c 0,75,76
 182 452 182 452 221 452 c 0,77,78
 296 452 296 452 330 388 c 1,79,80
 371 452 371 452 434 452 c 0,81,82
 470 452 470 452 502 435 c 0,83,84
 537 417 537 417 537 376 c 0,85,86
 537 344 537 344 516 326 c 0,87,88
 496 308 496 308 473 308 c 128,-1,89
 450 308 450 308 437 322 c 0,90,91
 425 335 425 335 425 353 c 0,92,93
 425 375 425 375 441 393 c 0,94,95
 448 401 448 401 457 407 c 1,96,97
 446 410 446 410 433 410 c 0,98,99
 369 410 369 410 344 300 c 1,100,-1
 310 163 l 2,0,1
EndSplineSet
Validated: 19457
EndChar

StartChar: y
Encoding: 121 121 50
Width: 489
VWidth: 1000
Flags: W
HStem: -215 42<99 219> -21 42<193 293> 410 42<114 171> 421 20G<447 469>
VStem: 40 113<-136 -62> 98 84<30 203> 173 80<307 406> 417 83<336 432>
LayerCount: 2
Fore
SplineSet
400 -3 m 2,0,1
 378 -91 378 -91 308 -153 c 0,2,3
 237 -215 237 -215 156 -215 c 0,4,5
 106 -215 106 -215 74 -188 c 0,6,7
 40 -160 40 -160 40 -118 c 0,8,9
 40 -81 40 -81 61 -62 c 0,10,11
 81 -43 81 -43 106 -43 c 0,12,13
 153 -43 153 -43 153 -88 c 0,14,15
 153 -116 153 -116 130 -137 c 0,16,17
 118 -148 118 -148 97 -150 c 1,18,19
 115 -173 115 -173 156 -173 c 0,20,21
 213 -173 213 -173 258 -114 c 0,22,23
 290 -71 290 -71 313 6 c 1,24,25
 275 -21 275 -21 230 -21 c 0,26,27
 175 -21 175 -21 137 10 c 0,28,29
 98 42 98 42 98 108 c 0,30,31
 98 165 98 165 157 321 c 0,32,33
 173 363 173 363 173 385 c 0,34,35
 173 386 173 386 173 388 c 0,36,37
 173 401 173 401 169 406 c 0,38,39
 167 408 167 408 165 409 c 0,40,41
 162 410 162 410 158 410 c 0,42,43
 101 410 101 410 67 293 c 0,44,45
 64 282 64 282 59 276 c 0,46,-1
 58 275 l 0,47,48
 52 270 52 270 50 269 c 0,49,50
 46 268 46 268 41 268 c 128,-1,51
 36 268 36 268 35 269 c 0,52,53
 19 272 19 272 19 288 c 0,54,55
 19 296 19 296 27 320 c 0,56,57
 35 343 35 343 50 372 c 0,58,59
 65 403 65 403 94 427 c 0,60,61
 124 452 124 452 161 452 c 0,62,63
 202 452 202 452 227.5 425.5 c 128,-1,64
 253 399 253 399 253 360 c 0,65,66
 253 338 253 338 232 284 c 0,67,68
 182 154 182 154 182 92 c 0,69,70
 182 21 182 21 234 21 c 0,71,72
 273 21 273 21 302 50 c 0,73,74
 332 80 332 80 337 98 c 2,75,-1
 382 278 l 2,76,77
 386 297 386 297 402 358 c 0,78,79
 403 363 403 363 406.5 376 c 128,-1,80
 410 389 410 389 412.5 399 c 128,-1,81
 415 409 415 409 417 413 c 2,82,-1
 417 414 l 1,83,-1
 417 415 l 2,84,85
 433 441 433 441 461 441 c 0,86,87
 477 441 477 441 488 432 c 0,88,89
 500 422 500 422 500 404 c 0,90,91
 500 394 500 394 496 378 c 2,92,-1
 400 -3 l 2,0,1
EndSplineSet
Validated: 19457
EndChar

StartChar: z
Encoding: 122 122 51
Width: 464
VWidth: 1000
Flags: W
HStem: -21 87<225 352> 54 42<159 194> 365 87<181 299>
VStem: 115 44<309 352> 400 45<107 163> 435 42<428 452>
LayerCount: 2
Fore
SplineSet
160 96 m 2,0,1
 188 96 188 96 233 78 c 1,2,3
 270 66 270 66 289 66 c 0,4,5
 306 66 306 66 326 72.5 c 128,-1,6
 346 79 346 79 368 97.5 c 128,-1,7
 390 116 390 116 400 144 c 1,8,9
 407 158 407 158 415 161 c 0,10,11
 419 163 419 163 423 163 c 0,12,13
 429 162 l 0,14,15
 445 159 445 159 445 143 c 0,16,17
 445 107 445 107 396 43 c 128,-1,18
 347 -21 347 -21 278 -21 c 0,19,20
 240 -21 240 -21 206 20 c 0,21,22
 189 41 189 41 179 47.5 c 128,-1,23
 169 54 169 54 156 54 c 0,24,25
 117 54 117 54 80 -3 c 0,26,27
 75 -10 75 -10 74 -11 c 0,28,29
 66 -21 66 -21 55 -21 c 0,30,31
 49 -20 l 0,32,33
 33 -17 33 -17 33 -1 c 0,34,35
 33 1 33 1 34 3 c 0,36,37
 36 10 36 10 46.5 27 c 128,-1,38
 57 44 57 44 82.5 75 c 128,-1,39
 108 106 108 106 139 137 c 1,40,-1
 229 221 l 1,41,42
 312 291 312 291 354 336 c 1,43,44
 327 339 327 339 295 351 c 0,45,46
 255 365 255 365 235 365 c 0,47,48
 175 365 175 365 159 324 c 0,49,50
 152 307 152 307 137 307 c 0,51,52
 131 308 131 308 130 308 c 0,53,54
 115 312 115 312 115 328 c 0,55,56
 115 357 115 357 153.5 404.5 c 128,-1,57
 192 452 192 452 246 452 c 0,58,59
 271 452 271 452 287.5 440 c 128,-1,60
 304 428 304 428 323 405 c 0,61,62
 331 395 331 395 332 395 c 2,63,-1
 341 387 l 2,64,65
 349 380 349 380 354 378.5 c 128,-1,66
 359 377 359 377 366 377 c 0,67,68
 395 377 395 377 432 436 c 0,69,70
 435 440 435 440 435 441 c 0,71,72
 443 452 443 452 456 452 c 0,73,74
 477 452 477 452 477 432 c 1,75,-1
 476 428 l 2,76,77
 474 422 474 422 466 408 c 128,-1,78
 458 394 458 394 429.5 359 c 128,-1,79
 401 324 401 324 357 280 c 1,80,-1
 337 260 l 1,81,-1
 275 204 l 1,82,-1
 259 189 l 2,83,84
 206 143 206 143 159 96 c 1,85,-1
 160 96 l 2,0,1
EndSplineSet
Validated: 19457
EndChar

StartChar: Alpha
Encoding: 913 913 53
Width: 770
VWidth: 1000
Flags: W
HStem: -10 51<32.6737 120.688 201.009 262.625 463.047 553.985 663.485 747.937> 221 51<321 531>
VStem: 27 174<9 69.5>
LayerCount: 2
Fore
SplineSet
321 272 m 1,0,-1
 531 272 l 1,1,-1
 498 562 l 1,2,-1
 321 272 l 1,0,-1
526 701 m 2,3,4
 542 726 542 726 563 726 c 0,5,6
 575 726 575 726 581 722 c 0,7,8
 584 720 584 720 587 716 c 0,9,10
 591 711 591 711 593 690 c 2,11,-1
 663 68 l 2,12,13
 664 57 664 57 666 51 c 0,14,15
 667 47 667 47 670 46 c 0,16,17
 678 41 678 41 717 41 c 0,18,19
 733 41 733 41 741 37 c 1,20,21
 746 32 746 32 748 29 c 1,22,23
 750 21 750 21 750 18 c 0,24,25
 750 -10 750 -10 721 -10 c 0,26,27
 699 -10 699 -10 665 -8 c 0,28,29
 641 -7 641 -7 607 -7 c 0,30,31
 600 -7 600 -7 579 -7.5 c 128,-1,32
 558 -8 558 -8 547 -8 c 0,33,34
 538 -8 538 -8 516 -9 c 128,-1,35
 494 -10 494 -10 484 -10 c 0,36,37
 472 -10 472 -10 466 -4 c 2,38,-1
 463 -1 l 1,39,-1
 462 1 l 2,40,41
 461 3 461 3 460 6 c 128,-1,42
 459 9 459 9 459 13 c 0,43,44
 461 40 461 40 486 41 c 1,45,-1
 492 41 l 2,46,47
 554 41 554 41 554 63 c 1,48,49
 547 118 547 118 544 148 c 0,50,51
 540 191 540 191 536 221 c 1,52,-1
 290 221 l 1,53,-1
 214 97 l 2,54,55
 201 75 201 75 201 64 c 0,56,57
 201 46 201 46 239 41 c 1,58,59
 263 41 263 41 263 18 c 0,60,61
 263 -10 263 -10 234 -10 c 0,62,63
 222 -10 222 -10 184 -8.5 c 128,-1,64
 146 -7 146 -7 136 -7 c 0,65,66
 127 -7 127 -7 94 -8.5 c 128,-1,67
 61 -10 61 -10 51 -10 c 0,68,69
 38 -10 38 -10 32.5 -2.5 c 128,-1,70
 27 5 27 5 27 13 c 0,71,72
 27 25 27 25 33.5 32.5 c 128,-1,73
 40 40 40 40 48 41 c 0,74,75
 76 44 76 44 90.5 47.5 c 128,-1,76
 105 51 105 51 128.5 69 c 128,-1,77
 152 87 152 87 173 122 c 2,78,-1
 526 701 l 2,3,4
EndSplineSet
Validated: 19457
EndChar

StartChar: Beta
Encoding: 914 914 54
Width: 777
VWidth: 1000
Flags: W
HStem: -10 51<20.2222 109.162 221 482.039> 333 45<305 540.806> 642 51<184.253 264.935 375.192 613.309>
VStem: 588 115<143.017 288.365> 644 112<473.82 613.069>
LayerCount: 2
Fore
SplineSet
244 41 m 2,0,-1
 387 41 l 2,1,2
 471 41 471 41 529.5 97 c 128,-1,3
 588 153 588 153 588 225 c 0,4,5
 588 284 588 284 555 308.5 c 128,-1,6
 522 333 522 333 473 333 c 2,7,-1
 293 333 l 1,8,-1
 226 61 l 1,9,10
 221 48 221 48 221 43 c 2,11,-1
 221 42 l 1,12,-1
 225 42 l 1,13,-1
 226 42 l 1,14,15
 229 41 229 41 244 41 c 2,0,-1
305 378 m 1,16,-1
 448 378 l 2,17,18
 527 378 527 378 585.5 431 c 128,-1,19
 644 484 644 484 644 548 c 0,20,21
 644 560 644 560 641 572 c 128,-1,22
 638 584 638 584 629 602 c 128,-1,23
 620 620 620 620 597.5 631 c 128,-1,24
 575 642 575 642 541 642 c 2,25,-1
 406 642 l 2,26,27
 381 642 381 642 375 639 c 0,28,29
 373 638 373 638 371 636 c 0,30,31
 368 632 368 632 363 611 c 2,32,-1
 305 378 l 1,16,-1
261 618 m 2,33,34
 265 633 265 633 265 635 c 2,35,-1
 265 637 l 1,36,37
 263 639 263 639 250 640 c 0,38,39
 235 642 235 642 213 642 c 0,40,41
 192 642 192 642 184 645 c 128,-1,42
 176 648 176 648 174 659 c 2,43,-1
 174 661 l 2,44,45
 174 663 174 663 173 665 c 0,46,47
 175 691 175 691 200 693 c 1,48,-1
 213 693 l 1,49,-1
 555 693 l 2,50,51
 646 693 646 693 701 651 c 128,-1,52
 756 609 756 609 756 544 c 0,53,54
 756 483 756 483 705.5 432.5 c 128,-1,55
 655 382 655 382 580 358 c 1,56,57
 637 342 637 342 670 303 c 128,-1,58
 703 264 703 264 703 215 c 0,59,60
 703 133 703 133 617 61.5 c 128,-1,61
 531 -10 531 -10 412 -10 c 2,62,-1
 48 -10 l 2,63,64
 27 -10 27 -10 20 -6 c 0,65,66
 12 -1 12 -1 11 7 c 2,67,-1
 10 9 l 2,68,69
 10 11 10 11 10 13 c 0,70,71
 12 39 12 39 37 41 c 1,72,-1
 50 41 l 2,73,74
 99 41 99 41 109.5 46.5 c 128,-1,75
 120 52 120 52 126 78 c 2,76,-1
 261 618 l 2,33,34
EndSplineSet
Validated: 19457
EndChar

StartChar: Gamma
Encoding: 915 915 55
Width: 683
VWidth: 1000
Flags: W
HStem: -10 51<24.0469 119.162 240.252 355.275> 639 51<193.223 273.904 390.254 646.289>
VStem: 663 44<453.766 542.186>
LayerCount: 2
Fore
SplineSet
244 72 m 2,0,1
 240 60 240 60 240 52 c 2,2,3
 240 47 l 1,4,5
 248 43 248 43 264 43 c 1,6,7
 287 41 287 41 315 41 c 0,8,9
 338 41 338 41 345 37 c 1,10,11
 353 34 353 34 355 24 c 0,12,13
 356 23 356 23 356 18 c 0,14,15
 354 -9 354 -9 328 -10 c 1,16,17
 325 -10 l 2,18,19
 312 -10 312 -10 286 -9 c 128,-1,20
 260 -8 260 -8 249 -8 c 0,21,22
 236 -8 236 -8 211.5 -7.5 c 128,-1,23
 187 -7 187 -7 178 -7 c 0,24,25
 120 -7 120 -7 114 -8 c 0,26,27
 92 -10 92 -10 45 -10 c 0,28,29
 33 -10 33 -10 27 -4 c 2,30,-1
 24 -1 l 1,31,-1
 23 1 l 2,32,33
 22 3 22 3 21 6 c 128,-1,34
 20 9 20 9 20 13 c 0,35,36
 22 39 22 39 47 41 c 1,37,-1
 60 41 l 2,38,39
 109 41 109 41 119.5 47 c 128,-1,40
 130 53 130 53 136 78 c 2,41,-1
 269 611 l 1,42,43
 274 616 274 616 274 630 c 2,44,-1
 274 631 l 1,45,-1
 274 634 l 1,46,47
 271 635 271 635 260 637 c 0,48,49
 245 639 245 639 223 639 c 0,50,51
 200 639 200 639 193 643 c 0,52,53
 184 647 184 647 183 656 c 1,54,-1
 182 658 l 2,55,56
 182 660 182 660 182 662 c 0,57,58
 184 688 184 688 209 690 c 1,59,-1
 222 690 l 1,60,-1
 694 690 l 2,61,62
 716 690 716 690 724 685 c 0,63,64
 730 682 730 682 732 675 c 0,65,66
 733 672 733 672 733 666 c 2,67,-1
 733 665 l 1,68,-1
 712 479 l 2,69,70
 710 461 710 461 707 455 c 1,71,72
 699 447 699 447 695 446 c 0,73,74
 692 445 692 445 687 445 c 0,75,76
 674 445 674 445 668.5 453.5 c 128,-1,77
 663 462 663 462 663 470 c 0,78,79
 663 476 663 476 665 486 c 0,80,81
 669 517 669 517 669 543 c 0,82,83
 669 598 669 598 644 618.5 c 128,-1,84
 619 639 619 639 541 639 c 2,85,-1
 421 639 l 2,86,87
 398 639 398 639 390 636 c 0,88,89
 387 634 387 634 386 633 c 0,90,91
 384 630 384 630 378 607 c 2,92,-1
 244 72 l 2,0,1
EndSplineSet
Validated: 19457
EndChar

StartChar: Delta
Encoding: 916 916 56
Width: 856
VWidth: 1000
Flags: W
HStem: -10 95<155 682>
LayerCount: 2
Fore
SplineSet
547 599 m 1,0,-1
 155 85 l 1,1,-1
 682 85 l 1,2,-1
 547 599 l 1,0,-1
816 28 m 2,3,4
 819 19 819 19 819 11 c 0,5,6
 819 -3 819 -3 806 -8 c 1,7,8
 796 -10 796 -10 781 -10 c 2,9,-1
 74 -10 l 1,10,11
 58 -10 l 1,12,13
 41 -8 41 -8 41 7 c 0,14,15
 41 12 41 12 43 15 c 1,16,17
 44 19 44 19 52 28 c 2,18,-1
 567 703 l 2,19,20
 585 726 585 726 606 726 c 2,21,22
 612 726 l 1,23,24
 631 725 631 725 636 707 c 2,25,26
 640 695 l 1,27,-1
 816 28 l 2,3,4
EndSplineSet
Validated: 19457
EndChar

StartChar: Epsilon
Encoding: 917 917 57
Width: 800
VWidth: 1000
Flags: W
HStem: -10 51<44.2222 133.162 251 558.048> 328 51<335 477.554> 639 51<207.223 287.904 405.161 696.994>
VStem: 687 53<190.383 261.902> 720 44<453.766 537.436>
LayerCount: 2
Fore
SplineSet
256 61 m 1,0,1
 251 56 251 56 251 42 c 1,2,3
 255 42 l 1,4,-1
 256 42 l 1,5,6
 258 41 258 41 274 41 c 2,7,-1
 427 41 l 2,8,9
 487 41 487 41 526.5 51.5 c 128,-1,10
 566 62 566 62 595.5 90 c 128,-1,11
 625 118 625 118 643 148.5 c 128,-1,12
 661 179 661 179 687 238 c 0,13,14
 697 259 697 259 700 262 c 0,15,16
 706 268 706 268 713 268 c 2,17,-1
 716 268 l 2,18,19
 740 268 740 268 740 245 c 2,20,-1
 740 242 l 1,21,22
 739 236 739 236 723.5 199.5 c 128,-1,23
 708 163 708 163 690.5 123.5 c 128,-1,24
 673 84 673 84 657.5 50 c 128,-1,25
 642 16 642 16 642 15 c 0,26,27
 636 2 636 2 632 -2 c 1,28,-1
 631 -4 l 1,29,-1
 629 -5 l 2,30,31
 622 -9 622 -9 620 -9 c 0,32,33
 616 -10 616 -10 600 -10 c 2,34,-1
 72 -10 l 2,35,36
 51 -10 51 -10 44 -6 c 0,37,38
 36 -1 36 -1 35 7 c 2,39,-1
 34 9 l 2,40,41
 34 11 34 11 34 13 c 0,42,43
 36 39 36 39 61 41 c 1,44,-1
 74 41 l 2,45,46
 123 41 123 41 133.5 46.5 c 128,-1,47
 144 52 144 52 150 78 c 2,48,-1
 283 611 l 1,49,50
 288 621 288 621 288 630 c 2,51,-1
 288 631 l 1,52,-1
 288 634 l 1,53,54
 285 635 285 635 274 637 c 0,55,56
 259 639 259 639 237 639 c 0,57,58
 214 639 214 639 207 643 c 0,59,60
 198 647 198 647 197 656 c 1,61,-1
 196 658 l 2,62,63
 196 660 196 660 196 662 c 0,64,65
 198 688 198 688 223 690 c 1,66,-1
 236 690 l 1,67,-1
 751 690 l 2,68,69
 773 690 773 690 781 685 c 0,70,71
 787 682 787 682 789 675 c 0,72,73
 790 672 790 672 790 666 c 2,74,-1
 790 665 l 1,75,-1
 769 479 l 2,76,77
 767 461 767 461 764 455 c 1,78,79
 756 447 756 447 752 446 c 0,80,81
 749 445 749 445 744 445 c 0,82,83
 731 445 731 445 725.5 453.5 c 128,-1,84
 720 462 720 462 720 470 c 0,85,86
 720 472 720 472 722.5 496 c 128,-1,87
 725 520 725 520 725 538 c 0,88,89
 725 595 725 595 697 617 c 128,-1,90
 669 639 669 639 582 639 c 2,91,-1
 435 639 l 2,92,93
 410 639 410 639 405 637 c 0,94,95
 402 636 402 636 400 632 c 0,96,97
 400 631 400 631 398 629 c 0,98,99
 394 622 394 622 335 379 c 1,100,-1
 417 379 l 2,101,102
 476 379 476 379 500 395 c 128,-1,103
 524 411 524 411 538 464 c 0,104,105
 542 481 542 481 547 488 c 0,106,107
 549 492 549 492 558 495 c 0,108,109
 561 496 561 496 565 496 c 0,110,111
 589 496 589 496 589 473 c 0,112,113
 589 466 589 466 585 450 c 2,114,-1
 532 240 l 2,115,116
 528 223 528 223 523 218 c 0,117,118
 520 215 520 215 516 213 c 0,119,120
 513 211 513 211 505 211 c 0,121,122
 482 211 482 211 482 234 c 0,123,124
 482 239 482 239 485 251 c 0,125,126
 492 272 492 272 492 293 c 128,-1,127
 492 314 492 314 478 321 c 128,-1,128
 464 328 464 328 416 328 c 2,129,-1
 322 328 l 1,130,-1
 256 61 l 1,0,1
EndSplineSet
Validated: 19457
EndChar

StartChar: Zeta
Encoding: 918 918 58
Width: 758
VWidth: 1000
Flags: W
HStem: -10 54<190 475.005> 642 51<338.404 609>
VStem: 179 46<448.037 519.875>
LayerCount: 2
Fore
SplineSet
190 44 m 1,0,-1
 343 44 l 2,1,2
 405 44 405 44 447.5 56 c 128,-1,3
 490 68 490 68 518 96.5 c 128,-1,4
 546 125 546 125 563 158 c 128,-1,5
 580 191 580 191 597 246 c 0,6,7
 604 268 604 268 612 273 c 1,8,-1
 614 275 l 1,9,10
 618 277 618 277 626 277 c 0,11,12
 638 277 638 277 643.5 269.5 c 128,-1,13
 649 262 649 262 649 254 c 0,14,15
 649 250 649 250 648 247 c 128,-1,16
 647 244 647 244 646 242 c 2,17,-1
 645 240 l 1,18,-1
 645 238 l 1,19,-1
 575 17 l 2,20,21
 573 11 573 11 572 10 c 0,22,23
 567 -7 567 -7 548 -10 c 1,24,-1
 533 -10 l 1,25,-1
 86 -10 l 2,26,27
 69 -10 69 -10 65 -9 c 0,28,29
 50 -5 50 -5 50 11 c 0,30,31
 50 14 50 14 52 21 c 128,-1,32
 54 28 54 28 54 29 c 2,33,-1
 55 32 l 1,34,-1
 609 642 l 1,35,-1
 465 642 l 2,36,37
 407 642 407 642 366 630 c 128,-1,38
 325 618 325 618 298.5 592.5 c 128,-1,39
 272 567 272 567 256.5 538.5 c 128,-1,40
 241 510 241 510 225 465 c 0,41,42
 220 448 220 448 203 448 c 0,43,44
 179 448 179 448 179 471 c 0,45,46
 179 477 179 477 184 493 c 2,47,-1
 237 665 l 2,48,49
 239 669 239 669 240 671.5 c 128,-1,50
 241 674 241 674 241 675 c 0,51,52
 247 690 247 690 264 693 c 1,53,-1
 279 693 l 1,54,-1
 712 693 l 2,55,56
 730 693 730 693 734 692 c 0,57,58
 748 688 748 688 748 673 c 0,59,60
 748 659 748 659 732 641 c 2,61,-1
 190 44 l 1,0,-1
EndSplineSet
Validated: 19457
EndChar

StartChar: Eta
Encoding: 919 919 59
Width: 867
VWidth: 1000
Flags: W
HStem: -10 51<41.735 133.162 253.096 343.967 440.735 537.388 652.096 743.641> 330 51<335 612> 642 51<198.064 288.966 408.354 507.609 596.347 687.966 807.354 906.609>
LayerCount: 2
Fore
SplineSet
656 70 m 2,0,1
 652 56 652 56 652 49 c 2,2,-1
 652 46 l 1,3,4
 655 45 655 45 666 43 c 0,5,6
 681 41 681 41 703 41 c 0,7,8
 726 41 726 41 733 37 c 0,9,10
 742 33 742 33 743 24 c 1,11,12
 744 22 l 2,13,14
 744 20 744 20 744 18 c 0,15,16
 744 -10 744 -10 714 -10 c 0,17,18
 689 -10 689 -10 649 -8 c 0,19,20
 619 -7 619 -7 585 -7 c 128,-1,21
 551 -7 551 -7 521 -8 c 0,22,23
 483 -10 483 -10 458 -10 c 0,24,25
 448 -10 448 -10 440.5 -4 c 128,-1,26
 433 2 433 2 433 13 c 0,27,28
 435 40 435 40 461 41 c 1,29,-1
 467 41 l 2,30,31
 502 41 502 41 518 43.5 c 128,-1,32
 534 46 534 46 537.5 49 c 128,-1,33
 541 52 541 52 544 60 c 0,34,35
 555 86 555 86 612 330 c 1,36,-1
 322 330 l 1,37,-1
 258 69 l 1,38,39
 253 59 253 59 253 50 c 2,40,-1
 253 49 l 1,41,-1
 253 46 l 1,42,43
 256 45 256 45 267 43 c 0,44,45
 282 41 282 41 304 41 c 0,46,47
 327 41 327 41 334 37 c 0,48,49
 343 33 343 33 344 24 c 1,50,-1
 344 22 l 2,51,52
 344 20 344 20 345 18 c 0,53,54
 345 -10 345 -10 315 -10 c 0,55,56
 290 -10 290 -10 250 -8 c 0,57,58
 220 -7 220 -7 186 -7 c 128,-1,59
 152 -7 152 -7 122 -8 c 0,60,61
 84 -10 84 -10 59 -10 c 0,62,63
 49 -10 49 -10 41.5 -4 c 128,-1,64
 34 2 34 2 34 13 c 0,65,66
 34 39 34 39 61 41 c 1,67,-1
 74 41 l 2,68,69
 123 41 123 41 133.5 46.5 c 128,-1,70
 144 52 144 52 150 78 c 2,71,-1
 285 618 l 2,72,73
 289 633 289 633 289 635 c 2,74,-1
 289 637 l 1,75,76
 288 638 288 638 274 640 c 0,77,78
 259 642 259 642 237 642 c 0,79,80
 216 642 216 642 209 645 c 0,81,82
 200 649 200 649 198 659 c 2,83,-1
 198 661 l 2,84,85
 198 663 198 663 197 665 c 0,86,87
 197 693 197 693 226 693 c 2,88,-1
 227 693 l 2,89,90
 252 693 252 693 292 691 c 0,91,92
 322 690 322 690 356 690 c 128,-1,93
 390 690 390 690 420 691 c 2,94,-1
 483 693 l 2,95,96
 508 693 508 693 508 672 c 2,97,-1
 508 670 l 2,98,99
 508 643 508 643 481 642 c 1,100,-1
 471 642 l 2,101,102
 419 642 419 642 408 636 c 128,-1,103
 397 630 397 630 391 604 c 2,104,-1
 335 381 l 1,105,-1
 625 381 l 1,106,-1
 684 617 l 2,107,108
 688 633 688 633 688 635 c 2,109,-1
 688 637 l 1,110,111
 687 638 687 638 673 640 c 0,112,113
 658 642 658 642 636 642 c 0,114,115
 616 642 616 642 608 645 c 0,116,117
 599 649 599 649 597 659 c 2,118,119
 596 661 l 2,120,121
 596 663 596 663 596 665 c 0,122,123
 596 693 596 693 625 693 c 2,124,-1
 626 693 l 2,125,126
 651 693 651 693 691 691 c 0,127,128
 721 690 721 690 755 690 c 128,-1,129
 789 690 789 690 819 691 c 2,130,-1
 882 693 l 2,131,132
 907 693 907 693 907 672 c 2,133,-1
 907 670 l 2,134,135
 907 643 907 643 880 642 c 1,136,137
 870 642 l 2,138,139
 818 642 818 642 807 636 c 128,-1,140
 796 630 796 630 790 604 c 2,141,-1
 656 70 l 2,0,1
EndSplineSet
Validated: 19457
EndChar

StartChar: Theta
Encoding: 920 920 60
Width: 788
VWidth: 1000
Flags: W
HStem: -32 47<235.746 416.734> 295 95<265 545> 670 45<394.428 573.109>
VStem: 40 108<126.403 360.105> 189 50.5<268.734 295> 217 49<390 423.906> 660 108<322.421 552.707>
LayerCount: 2
Fore
SplineSet
241 295 m 1,0,1
 241 294 241 294 239.5 289 c 128,-1,2
 238 284 238 284 237 281 c 0,3,4
 233 261 233 261 213 261 c 0,5,6
 200 261 200 261 194.5 268.5 c 128,-1,7
 189 276 189 276 189 284 c 1,8,-1
 217 398 l 1,9,10
 222 413 222 413 224 416 c 0,11,12
 226 420 226 420 234 423 c 0,13,14
 237 424 237 424 242 424 c 0,15,16
 266 424 266 424 266 400 c 0,17,18
 266 393 266 393 265 390 c 1,19,-1
 568 390 l 1,20,21
 570 402 570 402 575 411 c 0,22,23
 582 424 582 424 596 424 c 0,24,25
 620 424 620 424 620 400 c 0,26,27
 620 397 620 397 614.5 375.5 c 128,-1,28
 609 354 609 354 602 327 c 128,-1,29
 595 300 595 300 593 288 c 1,30,-1
 590 279 l 2,31,32
 583 261 583 261 567 261 c 0,33,34
 543 261 543 261 543 285 c 0,35,36
 543 287 543 287 545 295 c 1,37,-1
 241 295 l 1,0,1
321 15 m 0,38,39
 386 15 386 15 452.5 55.5 c 128,-1,40
 519 96 519 96 563 160 c 0,41,42
 603 217 603 217 626.5 287.5 c 128,-1,43
 650 358 650 358 655 396.5 c 128,-1,44
 660 435 660 435 660 464 c 0,45,46
 660 562 660 562 611.5 616 c 128,-1,47
 563 670 563 670 489 670 c 0,48,49
 428 670 428 670 361 631.5 c 128,-1,50
 294 593 294 593 241 515 c 0,51,52
 197 451 197 451 172.5 367.5 c 128,-1,53
 148 284 148 284 148 218 c 0,54,55
 148 122 148 122 196.5 68.5 c 128,-1,56
 245 15 245 15 321 15 c 0,38,39
314 -32 m 0,57,58
 194 -32 194 -32 117 44.5 c 128,-1,59
 40 121 40 121 40 247 c 0,60,61
 40 362 40 362 105.5 471 c 128,-1,62
 171 580 171 580 277 647.5 c 128,-1,63
 383 715 383 715 495 715 c 0,64,65
 616 715 616 715 692 636 c 128,-1,66
 768 557 768 557 768 433 c 0,67,68
 768 346 768 346 729 260.5 c 128,-1,69
 690 175 690 175 627.5 111 c 128,-1,70
 565 47 565 47 481.5 7.5 c 128,-1,71
 398 -32 398 -32 314 -32 c 0,57,58
EndSplineSet
Validated: 19457
EndChar

StartChar: Iota
Encoding: 921 921 61
Width: 473
VWidth: 1000
Flags: W
HStem: -10 51<29.4062 132.647 253.001 349.641> 642 51<192.347 288.5 409.354 512.594> 642 51<204.253 288.5 409.354 512.594>
LayerCount: 2
Fore
SplineSet
257 69 m 2,0,1
 253 55 253 55 253 49 c 0,2,3
 253 47 253 47 258 45 c 0,4,5
 267 41 267 41 310 41 c 0,6,7
 330 41 330 41 338 38 c 0,8,9
 347 34 347 34 349 24 c 2,10,11
 350 22 l 2,12,13
 350 20 350 20 350 18 c 0,14,15
 350 -10 350 -10 320 -10 c 0,16,17
 309 -10 309 -10 287 -9 c 128,-1,18
 265 -8 265 -8 255 -8 c 0,19,20
 244 -8 244 -8 221 -7.5 c 128,-1,21
 198 -7 198 -7 186 -7 c 128,-1,22
 174 -7 174 -7 151 -7.5 c 128,-1,23
 128 -8 128 -8 117 -8 c 0,24,25
 107 -8 107 -8 86 -9 c 128,-1,26
 65 -10 65 -10 54 -10 c 0,27,28
 29 -10 29 -10 29 13 c 0,29,30
 29 39 29 39 55 41 c 1,31,-1
 72 41 l 2,32,33
 122 41 122 41 133 47 c 128,-1,34
 144 53 144 53 150 78 c 2,35,-1
 286 618 l 2,36,37
 288 624 288 624 288 635 c 1,38,39
 289 637 289 637 288 637 c 0,40,41
 273 642 273 642 247 642 c 2,42,-1
 232 642 l 2,43,44
 212 642 212 642 204 645 c 0,45,46
 195 649 195 649 193 659 c 2,47,-1
 192 661 l 2,48,49
 192 663 192 663 192 665 c 0,50,51
 192 693 192 693 221 693 c 2,52,-1
 222 693 l 2,53,54
 233 693 233 693 255 692 c 128,-1,55
 277 691 277 691 287 691 c 0,56,57
 298 691 298 691 321 690.5 c 128,-1,58
 344 690 344 690 356 690 c 0,59,60
 358 690 358 690 384 690.5 c 128,-1,61
 410 691 410 691 424 691 c 0,62,63
 433 691 433 691 454.5 692 c 128,-1,64
 476 693 476 693 487 693 c 0,65,66
 513 693 513 693 513 670 c 0,67,68
 513 644 513 644 487 642 c 1,69,-1
 474 642 l 2,70,71
 420 642 420 642 409 636 c 128,-1,72
 398 630 398 630 391 603 c 2,73,-1
 257 69 l 2,0,1
EndSplineSet
Validated: 19457
EndChar

StartChar: Kappa
Encoding: 922 922 62
Width: 878
VWidth: 1000
Flags: W
HStem: -10 51<34.8594 133.162 253.096 343.967 496.768 569.99 703.348 768.665> 642 51<198.064 288.935 408.354 507.609 685.347 721.75 817.035 894 895 912.327>
LayerCount: 2
Fore
SplineSet
681 77 m 2,0,1
 692 54 692 54 703 48 c 128,-1,2
 714 42 714 42 741 41 c 0,3,4
 757 41 757 41 764 33 c 0,5,6
 765 32 765 32 766 30 c 0,7,8
 769 24 769 24 769 18 c 0,9,10
 769 -10 769 -10 741 -10 c 1,11,-1
 691 -8 l 2,12,13
 686 -7 686 -7 641 -7 c 0,14,15
 631 -7 631 -7 610.5 -7.5 c 128,-1,16
 590 -8 590 -8 580 -8 c 0,17,18
 571 -8 571 -8 551.5 -9 c 128,-1,19
 532 -10 532 -10 522 -10 c 0,20,21
 496 -10 496 -10 496 13 c 1,22,23
 498 40 498 40 524 41 c 1,24,-1
 530 41 l 2,25,26
 570 41 570 41 570 61 c 0,27,28
 570 64 570 64 564 80 c 1,29,-1
 441 349 l 1,30,-1
 301 243 l 1,31,32
 254 56 254 56 253 50 c 1,33,-1
 253 49 l 1,34,-1
 253 46 l 1,35,36
 256 45 256 45 267 43 c 0,37,38
 282 41 282 41 304 41 c 0,39,40
 327 41 327 41 334 37 c 0,41,42
 343 33 343 33 344 24 c 1,43,-1
 344 22 l 2,44,45
 344 20 344 20 345 18 c 0,46,47
 345 -10 345 -10 315 -10 c 0,48,49
 290 -10 290 -10 250 -8 c 0,50,51
 220 -7 220 -7 186 -7 c 128,-1,52
 152 -7 152 -7 122 -8 c 0,53,54
 84 -10 84 -10 59 -10 c 0,55,56
 47 -10 47 -10 41 -4 c 2,57,-1
 38 -1 l 2,58,59
 34 3 34 3 34 13 c 0,60,61
 36 39 36 39 61 41 c 1,62,-1
 74 41 l 2,63,64
 123 41 123 41 133.5 46.5 c 128,-1,65
 144 52 144 52 150 78 c 2,66,-1
 285 618 l 2,67,68
 289 633 289 633 289 635 c 2,69,-1
 289 637 l 1,70,71
 287 639 287 639 274 640 c 0,72,73
 259 642 259 642 237 642 c 0,74,75
 216 642 216 642 208 645 c 128,-1,76
 200 648 200 648 198 659 c 2,77,-1
 198 661 l 2,78,79
 198 663 198 663 197 665 c 0,80,81
 197 693 197 693 226 693 c 2,82,-1
 227 693 l 2,83,84
 252 693 252 693 292 691 c 0,85,86
 322 690 322 690 356 690 c 0,87,88
 399 690 399 690 420 691 c 0,89,90
 429 691 429 691 451 692 c 128,-1,91
 473 693 473 693 483 693 c 0,92,93
 508 693 508 693 508 672 c 2,94,-1
 508 670 l 2,95,96
 508 643 508 643 481 642 c 1,97,98
 471 642 l 2,99,100
 419 642 419 642 408 636 c 128,-1,101
 397 630 397 630 391 604 c 2,102,-1
 318 312 l 1,103,-1
 693 593 l 2,104,105
 700 599 700 599 701 600 c 2,106,-1
 702 601 l 1,107,-1
 703 602 l 2,108,109
 706 605 706 605 710 608 c 0,110,111
 727 623 727 623 727 634 c 0,112,113
 727 638 727 638 722 640 c 0,114,115
 714 642 714 642 708 642 c 0,116,117
 704 642 704 642 699.5 643.5 c 128,-1,118
 695 645 695 645 690 650.5 c 128,-1,119
 685 656 685 656 685 665 c 0,120,121
 685 693 685 693 714 693 c 0,122,123
 732 693 732 693 768.5 691.5 c 128,-1,124
 805 690 805 690 822 690 c 0,125,126
 843 690 843 690 857.5 690.5 c 128,-1,127
 872 691 872 691 878 691.5 c 128,-1,128
 884 692 884 692 888.5 692.5 c 128,-1,129
 893 693 893 693 896 693 c 0,130,131
 907 693 907 693 912.5 685.5 c 128,-1,132
 918 678 918 678 918 670 c 0,133,134
 918 647 918 647 895 643 c 1,135,-1
 894 642 l 2,136,137
 892 642 892 642 891 642 c 0,138,139
 852 638 852 638 821 622 c 128,-1,140
 790 606 790 606 736 569 c 1,141,-1
 725 562 l 1,142,-1
 528 414 l 1,143,-1
 681 77 l 2,0,1
EndSplineSet
Validated: 19457
EndChar

StartChar: Lambda
Encoding: 923 923 63
Width: 713
VWidth: 1000
Flags: W
HStem: -10 51<34.2192 112.462 189.148 251.665 410.391 503.419 620.001 685.778>
LayerCount: 2
Fore
SplineSet
498 699 m 1,0,1
 508 714 508 714 510 716 c 0,2,3
 516 722 516 722 525 725 c 0,4,5
 529 726 529 726 535 726 c 0,6,7
 546 726 546 726 552 722 c 0,8,9
 554 721 554 721 558 717 c 0,10,11
 562 712 562 712 564 692 c 2,12,-1
 617 68 l 2,13,14
 618 52 618 52 620 50 c 1,15,16
 620 46 620 46 624 45 c 0,17,18
 632 41 632 41 659 41 c 0,19,20
 679 41 679 41 686 36 c 0,21,22
 690 32 690 32 692 28 c 0,23,24
 694 22 694 22 694 18 c 0,25,26
 694 -10 694 -10 665 -10 c 0,27,28
 660 -10 660 -10 638 -9 c 128,-1,29
 616 -8 616 -8 612 -8 c 0,30,31
 601 -7 601 -7 557 -7 c 0,32,33
 546 -7 546 -7 525 -7.5 c 128,-1,34
 504 -8 504 -8 493 -8 c 0,35,36
 484 -8 484 -8 464.5 -9 c 128,-1,37
 445 -10 445 -10 435 -10 c 0,38,39
 410 -10 410 -10 410 11 c 2,40,-1
 410 13 l 2,41,42
 410 40 410 40 438 41 c 1,43,-1
 442 41 l 2,44,45
 471 41 471 41 486 46.5 c 128,-1,46
 501 52 501 52 503.5 56.5 c 128,-1,47
 506 61 506 61 506 69 c 0,48,49
 506 70 506 70 505.5 73 c 128,-1,50
 505 76 505 76 505 78 c 2,51,-1
 465 547 l 1,52,-1
 203 100 l 1,53,54
 189 74 189 74 189 66 c 0,55,56
 189 43 189 43 227 41 c 0,57,58
 252 39 252 39 252 18 c 0,59,60
 252 -10 252 -10 224 -10 c 0,61,62
 208 -10 208 -10 175.5 -8.5 c 128,-1,63
 143 -7 143 -7 128 -7 c 0,64,65
 116 -7 116 -7 89 -8.5 c 128,-1,66
 62 -10 62 -10 50 -10 c 0,67,68
 41 -10 41 -10 34 -3.5 c 128,-1,69
 27 3 27 3 27 13 c 0,70,71
 27 38 27 38 52 41 c 1,72,-1
 56 41 l 1,73,74
 108 46 108 46 145 97 c 0,75,76
 148 102 148 102 153.5 111 c 128,-1,77
 159 120 159 120 160 122 c 2,78,-1
 498 699 l 1,0,1
EndSplineSet
Validated: 19457
EndChar

StartChar: Mu
Encoding: 924 924 64
Width: 1034
VWidth: 1000
Flags: W
HStem: -10 51<38.4746 130.822 209.934 285.81 609.422 708.162 819.096 909.967> 642 51<213.222 292.966 961.716 1061.75>
LayerCount: 2
Fore
SplineSet
823 70 m 2,0,1
 819 56 819 56 819 49 c 2,2,-1
 819 46 l 1,3,4
 822 45 822 45 833 43 c 0,5,6
 848 41 848 41 870 41 c 0,7,8
 893 41 893 41 900 37 c 0,9,10
 909 33 909 33 910 24 c 1,11,12
 910 22 l 2,13,14
 910 20 910 20 911 18 c 0,15,16
 911 -10 911 -10 882 -10 c 0,17,18
 872 -10 872 -10 851 -9 c 128,-1,19
 830 -8 830 -8 821 -8 c 128,-1,20
 812 -8 812 -8 796.5 -8 c 128,-1,21
 781 -8 781 -8 769 -8 c 2,22,-1
 757 -7 l 1,23,24
 712 -7 712 -7 698 -8 c 0,25,26
 672 -10 672 -10 634 -10 c 0,27,28
 609 -10 609 -10 609 11 c 2,29,-1
 609 13 l 2,30,31
 609 39 609 39 636 41 c 1,32,-1
 649 41 l 2,33,34
 698 41 698 41 708.5 46.5 c 128,-1,35
 719 52 719 52 725 78 c 2,36,-1
 854 594 l 1,37,-1
 478 14 l 2,38,39
 468 -2 468 -2 464 -4 c 0,40,41
 456 -10 456 -10 446 -10 c 1,42,43
 427 -8 427 -8 422 7 c 0,44,45
 421 9 421 9 421 12 c 0,46,47
 420 14 420 14 419.5 18.5 c 128,-1,48
 419 23 419 23 419 25 c 2,49,-1
 335 591 l 1,50,-1
 212 94 l 2,51,52
 211 89 211 89 210 85.5 c 128,-1,53
 209 82 209 82 208.5 80.5 c 128,-1,54
 208 79 208 79 208 77.5 c 128,-1,55
 208 76 208 76 208 74 c 0,56,57
 208 42 208 42 263 41 c 0,58,59
 280 41 280 41 286 35 c 0,60,61
 288 33 288 33 290 29 c 0,62,63
 293 24 293 24 293 18 c 0,64,65
 293 -10 293 -10 265 -10 c 0,66,67
 257 -10 257 -10 238.5 -9 c 128,-1,68
 220 -8 220 -8 213 -8 c 0,69,70
 189 -7 189 -7 162 -7 c 0,71,72
 129 -7 129 -7 113 -8 c 0,73,74
 87 -10 87 -10 62 -10 c 0,75,76
 38 -10 38 -10 38 13 c 0,77,78
 38 24 38 24 43.5 31 c 128,-1,79
 49 38 49 38 54.5 39.5 c 128,-1,80
 60 41 60 41 65 41 c 0,81,82
 110 43 110 43 131.5 57.5 c 128,-1,83
 153 72 153 72 162 108 c 2,84,-1
 289 618 l 2,85,86
 293 633 293 633 293 635 c 2,87,-1
 293 637 l 1,88,89
 292 638 292 638 278 640 c 0,90,91
 263 642 263 642 241 642 c 0,92,93
 220 642 220 642 213 645 c 0,94,95
 204 649 204 649 202 659 c 2,96,-1
 202 661 l 2,97,98
 202 663 202 663 201 665 c 0,99,100
 203 691 203 691 228 693 c 1,101,-1
 241 693 l 1,102,-1
 378 693 l 2,103,104
 401 693 401 693 409 688 c 1,105,-1
 412 685 l 1,106,107
 418 677 418 677 421 658 c 2,108,-1
 500 122 l 1,109,-1
 855 669 l 1,110,111
 861 681 861 681 868 686 c 0,112,113
 870 688 870 688 876 690 c 0,114,115
 884 693 884 693 904 693 c 2,116,-1
 1035 693 l 2,117,118
 1054 693 1054 693 1062 690 c 1,119,120
 1071 685 1071 685 1073 676 c 2,121,-1
 1074 674 l 2,122,123
 1074 672 1074 672 1074 670 c 0,124,125
 1073 661 1073 661 1072 656 c 128,-1,126
 1071 651 1071 651 1064.5 646.5 c 128,-1,127
 1058 642 1058 642 1047 642 c 2,128,-1
 1037 642 l 2,129,130
 985 642 985 642 974 636 c 128,-1,131
 963 630 963 630 957 604 c 2,132,-1
 823 70 l 2,0,1
EndSplineSet
Validated: 19457
EndChar

StartChar: Nu
Encoding: 925 925 65
Width: 867
VWidth: 1000
Flags: W
HStem: -10 51<34.4219 128.337 205.934 281.81> 642 51<209.222 291 657.221 734.996 811.117 906.625>
LayerCount: 2
Fore
SplineSet
643 19 m 2,0,1
 638 2 638 2 636 -1 c 0,2,3
 629 -8 629 -8 625 -9 c 0,4,5
 623 -10 623 -10 615 -10 c 2,6,7
 608 -10 l 1,8,9
 603 -9 603 -9 597 -3 c 0,10,11
 595 0 595 0 588 14 c 2,12,-1
 332 592 l 1,13,-1
 208 94 l 2,14,15
 207 89 207 89 206 85.5 c 128,-1,16
 205 82 205 82 204.5 80.5 c 128,-1,17
 204 79 204 79 204 77.5 c 128,-1,18
 204 76 204 76 204 74 c 0,19,20
 204 42 204 42 259 41 c 0,21,22
 276 41 276 41 282 35 c 0,23,24
 284 33 284 33 286 29 c 0,25,26
 289 24 289 24 289 18 c 0,27,28
 289 -10 289 -10 261 -10 c 0,29,30
 253 -10 253 -10 234.5 -9 c 128,-1,31
 216 -8 216 -8 209 -8 c 0,32,33
 185 -7 185 -7 158 -7 c 2,34,-1
 143 -7 l 2,35,36
 122 -7 122 -7 109 -8 c 0,37,38
 83 -10 83 -10 58 -10 c 0,39,40
 34 -10 34 -10 34 13 c 0,41,42
 34 39 34 39 61 41 c 1,43,44
 108 42 108 42 129 57.5 c 128,-1,45
 150 73 150 73 158 108 c 2,46,-1
 291 638 l 1,47,48
 269 642 269 642 237 642 c 0,49,50
 216 642 216 642 209 645 c 0,51,52
 200 649 200 649 198 659 c 2,53,-1
 198 661 l 2,54,55
 198 663 198 663 197 665 c 0,56,57
 199 691 199 691 224 693 c 1,58,-1
 237 693 l 1,59,-1
 370 693 l 1,60,-1
 384 693 l 1,61,62
 397 692 397 692 406 678 c 1,63,-1
 408 674 l 2,64,65
 410 670 410 670 412 667 c 2,66,-1
 629 175 l 1,67,-1
 734 590 l 2,68,69
 734 591 734 591 735.5 599 c 128,-1,70
 737 607 737 607 737 609 c 0,71,72
 737 641 737 641 680 642 c 0,73,74
 664 642 664 642 657 650 c 1,75,-1
 655 653 l 2,76,77
 652 659 652 659 652 665 c 0,78,79
 652 693 652 693 680 693 c 0,80,81
 688 693 688 693 706.5 692 c 128,-1,82
 725 691 725 691 732 691 c 0,83,84
 756 690 756 690 783 690 c 0,85,86
 793 690 793 690 832 691.5 c 128,-1,87
 871 693 871 693 883 693 c 0,88,89
 907 693 907 693 907 670 c 0,90,91
 907 642 907 642 879 642 c 0,92,93
 830 641 830 641 810.5 624 c 128,-1,94
 791 607 791 607 782 573 c 2,95,-1
 643 19 l 2,0,1
EndSplineSet
Validated: 19457
EndChar

StartChar: Xi
Encoding: 926 926 66
Width: 813
VWidth: 1000
Flags: W
HStem: -10 89<110 617.23> 308 89<281 579> 598 89<246.324 739>
VStem: 70 49<82.5964 175.854> 172 51<512.562 576.429> 203 50<264.219 275 284 300.672> 237 50<397 438.718> 640 49<103.5 153>
LayerCount: 2
Fore
SplineSet
237 418 m 2,0,1
 239 430 239 430 244 439 c 1,2,3
 251 446 251 446 255 447 c 0,4,5
 258 448 258 448 263 448 c 0,6,7
 287 448 287 448 287 424 c 0,8,9
 287 417 287 417 281 397 c 1,10,-1
 601 397 l 1,11,12
 603 409 603 409 607 421 c 0,13,14
 611 437 611 437 619 444 c 0,15,16
 620 444 620 444 621 445 c 0,17,18
 627 448 627 448 633 448 c 0,19,20
 642 448 642 448 649.5 441.5 c 128,-1,21
 657 435 657 435 657 425 c 0,22,23
 657 421 657 421 652 400.5 c 128,-1,24
 647 380 647 380 638 343.5 c 128,-1,25
 629 307 629 307 624 286 c 0,26,27
 622 280 622 280 620 275 c 0,28,29
 613 257 613 257 597 257 c 0,30,31
 588 257 588 257 580.5 263 c 128,-1,32
 573 269 573 269 573 281 c 0,33,34
 573 284 573 284 579 308 c 1,35,-1
 259 308 l 1,36,-1
 253 284 l 1,37,-1
 250 275 l 2,38,39
 244 257 244 257 227 257 c 0,40,41
 216 257 216 257 209.5 264 c 128,-1,42
 203 271 203 271 203 280 c 128,-1,43
 203 289 203 289 207 299 c 1,44,-1
 237 418 l 2,0,1
642 157 m 1,45,46
 647 176 647 176 665 176 c 0,47,48
 689 176 689 176 689 153 c 2,49,-1
 689 151 l 1,50,51
 676 126 676 126 645 11 c 0,52,53
 642 0 642 0 639 -2 c 0,54,55
 635 -6 635 -6 633 -7 c 0,56,57
 626 -10 626 -10 606 -10 c 2,58,-1
 84 -10 l 2,59,60
 62 -10 62 -10 55 -6 c 1,61,62
 46 2 46 2 46 7 c 2,63,-1
 46 9 l 2,64,65
 46 11 46 11 45 13 c 0,66,67
 45 34 45 34 70 147 c 1,68,69
 72 162 72 162 78 169 c 0,70,71
 81 172 81 172 83 173 c 0,72,73
 89 176 89 176 95 176 c 0,74,75
 119 176 119 176 119 152 c 0,76,77
 119 146 119 146 116 131 c 0,78,79
 110 101 110 101 110 82 c 1,80,81
 130 79 130 79 173 79 c 2,82,-1
 539 79 l 2,83,84
 602 79 602 79 613 83 c 1,85,86
 614 100 614 100 640 153 c 0,87,88
 641 155 641 155 642 157 c 1,45,46
782 542 m 1,89,90
 777 522 777 522 771 517 c 0,91,92
 770 516 770 516 769 515 c 128,-1,93
 768 514 768 514 767 514 c 0,94,95
 764 512 764 512 756 512 c 0,96,97
 732 512 732 512 732 536 c 0,98,99
 732 544 732 544 733 547 c 0,100,101
 739 577 739 577 739 596 c 1,102,103
 703 598 703 598 679 598 c 2,104,-1
 315 598 l 2,105,106
 256 598 256 598 246 595 c 1,107,-1
 245 594 l 1,108,-1
 244 593 l 1,109,110
 236 583 236 583 223 541 c 0,111,112
 217 522 217 522 210 517 c 0,113,114
 208 515 208 515 206 514 c 0,115,116
 200 512 200 512 196 512 c 0,117,118
 172 512 172 512 172 535 c 0,119,120
 172 539 172 539 178 557 c 2,121,-1
 210 660 l 2,122,123
 212 666 212 666 213 667 c 0,124,125
 219 686 219 686 237 687 c 1,126,-1
 252 687 l 1,127,-1
 764 687 l 2,128,129
 786 687 786 687 794 682 c 0,130,131
 800 679 800 679 802 672 c 0,132,133
 803 669 803 669 803 663 c 2,134,-1
 803 662 l 1,135,-1
 801 646 l 1,136,-1
 782 542 l 1,89,90
EndSplineSet
Validated: 3073
EndChar

StartChar: Omicron
Encoding: 927 927 67
Width: 788
VWidth: 1000
Flags: W
HStem: -32 50<239.88 413.637> 667 48<392.015 572.958>
VStem: 40 116<126.867 368.238> 657 111<332.475 552.837>
LayerCount: 2
Fore
SplineSet
321 18 m 0,0,1
 375 18 375 18 436.5 51 c 128,-1,2
 498 84 498 84 549 153 c 0,3,4
 604 227 604 227 630.5 318 c 128,-1,5
 657 409 657 409 657 471 c 0,6,7
 657 564 657 564 609 615.5 c 128,-1,8
 561 667 561 667 488 667 c 0,9,10
 431 667 431 667 367 632.5 c 128,-1,11
 303 598 303 598 254 530 c 0,12,13
 201 457 201 457 178.5 369 c 128,-1,14
 156 281 156 281 156 222 c 0,15,16
 156 125 156 125 203 71.5 c 128,-1,17
 250 18 250 18 321 18 c 0,0,1
314 -32 m 0,18,19
 194 -32 194 -32 117 44.5 c 128,-1,20
 40 121 40 121 40 247 c 0,21,22
 40 362 40 362 105.5 471 c 128,-1,23
 171 580 171 580 277 647.5 c 128,-1,24
 383 715 383 715 495 715 c 0,25,26
 616 715 616 715 692 636 c 128,-1,27
 768 557 768 557 768 433 c 0,28,29
 768 346 768 346 729 260.5 c 128,-1,30
 690 175 690 175 627.5 111 c 128,-1,31
 565 47 565 47 481.5 7.5 c 128,-1,32
 398 -32 398 -32 314 -32 c 0,18,19
EndSplineSet
Validated: 19457
EndChar

StartChar: Pi
Encoding: 928 928 68
Width: 866
VWidth: 1000
Flags: W
HStem: -10 51<41.735 133.162 253.096 343.967 440.735 532.162 652.096 743.641> 639 51<207.223 287.904 400 690 806.838 905.287>
LayerCount: 2
Fore
SplineSet
656 70 m 2,0,1
 652 56 652 56 652 49 c 2,2,-1
 652 46 l 1,3,4
 655 45 655 45 666 43 c 0,5,6
 681 41 681 41 703 41 c 0,7,8
 726 41 726 41 733 37 c 0,9,10
 742 33 742 33 743 24 c 1,11,12
 744 22 l 2,13,14
 744 20 744 20 744 18 c 0,15,16
 744 -10 744 -10 714 -10 c 0,17,18
 689 -10 689 -10 649 -8 c 0,19,20
 619 -7 619 -7 585 -7 c 128,-1,21
 551 -7 551 -7 521 -8 c 0,22,23
 483 -10 483 -10 458 -10 c 0,24,25
 448 -10 448 -10 440.5 -4 c 128,-1,26
 433 2 433 2 433 13 c 0,27,28
 433 39 433 39 460 41 c 1,29,-1
 473 41 l 2,30,31
 522 41 522 41 532.5 46.5 c 128,-1,32
 543 52 543 52 549 78 c 2,33,-1
 690 639 l 1,34,-1
 400 639 l 1,35,-1
 258 69 l 1,36,37
 253 59 253 59 253 50 c 2,38,-1
 253 49 l 1,39,-1
 253 46 l 1,40,41
 256 45 256 45 267 43 c 0,42,43
 282 41 282 41 304 41 c 0,44,45
 327 41 327 41 334 37 c 0,46,47
 343 33 343 33 344 24 c 1,48,-1
 344 22 l 2,49,50
 344 20 344 20 345 18 c 0,51,52
 345 -10 345 -10 315 -10 c 0,53,54
 290 -10 290 -10 250 -8 c 0,55,56
 220 -7 220 -7 186 -7 c 128,-1,57
 152 -7 152 -7 122 -8 c 0,58,59
 84 -10 84 -10 59 -10 c 0,60,61
 49 -10 49 -10 41.5 -4 c 128,-1,62
 34 2 34 2 34 13 c 0,63,64
 34 39 34 39 61 41 c 1,65,-1
 74 41 l 2,66,67
 123 41 123 41 133.5 46.5 c 128,-1,68
 144 52 144 52 150 78 c 2,69,-1
 283 611 l 1,70,71
 288 621 288 621 288 630 c 2,72,-1
 288 631 l 1,73,-1
 288 634 l 1,74,75
 285 635 285 635 274 637 c 0,76,77
 259 639 259 639 237 639 c 0,78,79
 214 639 214 639 207 643 c 0,80,81
 198 647 198 647 197 656 c 1,82,-1
 196 658 l 2,83,84
 196 660 196 660 196 662 c 0,85,86
 198 688 198 688 222 690 c 1,87,-1
 236 690 l 1,88,-1
 868 690 l 2,89,90
 889 690 889 690 896 686 c 0,91,92
 904 681 904 681 905 673 c 2,93,-1
 906 671 l 2,94,95
 906 669 906 669 906 667 c 0,96,97
 904 640 904 640 879 639 c 1,98,-1
 869 639 l 2,99,100
 817 639 817 639 806.5 633.5 c 128,-1,101
 796 628 796 628 789 600 c 2,102,-1
 656 70 l 2,0,1
EndSplineSet
Validated: 19457
EndChar

StartChar: Rho
Encoding: 929 929 69
Width: 800
VWidth: 1000
Flags: W
HStem: -10 51<35.8594 134.162 254.096 345.641> 304 48<326 566.03> 642 51<209.222 289.935 403.192 632.5>
VStem: 665 115<455.388 607.906>
LayerCount: 2
Fore
SplineSet
391 611 m 2,0,-1
 326 352 l 1,1,-1
 458 352 l 2,2,3
 553 352 553 352 605 399 c 0,4,5
 636 428 636 428 650.5 477 c 128,-1,6
 665 526 665 526 665 555 c 0,7,8
 665 642 665 642 535 642 c 2,9,-1
 434 642 l 2,10,11
 409 642 409 642 403 639 c 0,12,13
 401 638 401 638 399 636 c 0,14,15
 396 632 396 632 391 611 c 2,0,-1
259 69 m 1,16,17
 254 59 254 59 254 50 c 2,18,-1
 254 49 l 1,19,-1
 254 46 l 1,20,21
 257 45 257 45 268 43 c 0,22,23
 283 41 283 41 305 41 c 0,24,25
 328 41 328 41 335 37 c 0,26,27
 344 33 344 33 345 24 c 1,28,29
 346 22 l 2,30,31
 346 20 346 20 346 18 c 0,32,33
 346 -10 346 -10 316 -10 c 0,34,35
 291 -10 291 -10 251 -8 c 0,36,37
 221 -7 221 -7 187 -7 c 128,-1,38
 153 -7 153 -7 123 -8 c 0,39,40
 85 -10 85 -10 60 -10 c 0,41,42
 48 -10 48 -10 42 -4 c 2,43,-1
 39 -1 l 2,44,45
 35 3 35 3 35 13 c 0,46,47
 37 39 37 39 62 41 c 1,48,49
 75 41 l 2,50,51
 124 41 124 41 134.5 46.5 c 128,-1,52
 145 52 145 52 151 78 c 2,53,-1
 286 618 l 2,54,55
 290 633 290 633 290 635 c 2,56,-1
 290 637 l 1,57,58
 288 639 288 639 275 640 c 0,59,60
 260 642 260 642 238 642 c 128,-1,61
 216 642 216 642 209 645 c 0,62,63
 201 648 201 648 199 659 c 2,64,-1
 198 661 l 2,65,66
 198 663 198 663 198 665 c 0,67,68
 200 691 200 691 225 693 c 1,69,70
 238 693 l 1,71,-1
 568 693 l 2,72,73
 666 693 666 693 723 646 c 128,-1,74
 780 599 780 599 780 531 c 0,75,76
 780 444 780 444 688.5 374 c 128,-1,77
 597 304 597 304 476 304 c 2,78,-1
 317 304 l 1,79,-1
 259 69 l 1,16,17
EndSplineSet
Validated: 19457
EndChar

StartChar: Sigma
Encoding: 931 931 70
Width: 843
VWidth: 1000
Flags: W
HStem: -10 62<161 578.928> 642 51<347 727.612>
VStem: 703 46<204.016 233>
LayerCount: 2
Fore
SplineSet
161 52 m 1,0,-1
 413 52 l 2,1,2
 547 52 547 52 602.5 86 c 128,-1,3
 658 120 658 120 703 231 c 1,4,-1
 703 233 l 1,5,-1
 705 234 l 2,6,7
 706 235 706 235 707.5 237.5 c 128,-1,8
 709 240 709 240 710.5 241.5 c 128,-1,9
 712 243 712 243 716 244.5 c 128,-1,10
 720 246 720 246 726 246 c 0,11,12
 738 246 738 246 743.5 238.5 c 128,-1,13
 749 231 749 231 749 223 c 0,14,15
 749 220 749 220 747 213 c 128,-1,16
 745 206 745 206 745 205 c 2,17,-1
 745 204 l 1,18,-1
 672 15 l 2,19,20
 670 12 670 12 669 6 c 1,21,22
 662 -8 662 -8 646 -10 c 1,23,-1
 630 -10 l 1,24,-1
 89 -10 l 2,25,26
 68 -10 68 -10 61 -6 c 0,27,28
 53 -1 53 -1 52 7 c 0,29,30
 51 8 51 8 51 13 c 0,31,32
 51 15 51 15 53 23 c 1,33,34
 56 27 56 27 66 37 c 2,35,-1
 375 306 l 1,36,-1
 220 645 l 2,37,38
 216 653 216 653 215 656 c 0,39,40
 213 659 213 659 213 665 c 0,41,42
 215 690 215 690 239 693 c 1,43,-1
 254 693 l 1,44,-1
 795 693 l 2,45,46
 816 693 816 693 823 689 c 0,47,48
 831 684 831 684 832 676 c 0,49,50
 833 675 833 675 833 670 c 2,51,-1
 832 652 l 1,52,-1
 813 482 l 2,53,54
 811 462 811 462 806 456 c 1,55,56
 804 452 804 452 797 449 c 0,57,58
 794 448 794 448 788 448 c 0,59,60
 764 448 764 448 764 474 c 0,61,62
 764 476 764 476 765.5 495 c 128,-1,63
 767 514 767 514 767 521 c 0,64,65
 767 594 767 594 730 618 c 128,-1,66
 693 642 693 642 579 642 c 2,67,-1
 347 642 l 1,68,-1
 473 363 l 2,69,70
 478 353 478 353 480 347 c 0,71,72
 481 345 481 345 481 342 c 0,73,74
 481 336 481 336 477 330 c 0,75,76
 475 326 475 326 466 319 c 2,77,-1
 161 52 l 1,0,-1
EndSplineSet
Validated: 19457
EndChar

StartChar: Tau
Encoding: 932 932 71
Width: 742
VWidth: 1000
Flags: W
HStem: -10 50<49.2373 197.84 317.22 443.629> 442 21G<33 47 666 688> 636 51<146.969 346 457.031 651.085>
VStem: 16 47<449.734 464> 654 48<442.053 475> 664 68<536.391 666>
LayerCount: 2
Fore
SplineSet
315 71 m 2,0,1
 311 57 311 57 311 54 c 0,2,3
 311 48 311 48 317 46 c 0,4,5
 324 44 324 44 337 43 c 0,6,7
 364 41 364 41 400 41 c 0,8,9
 423 41 423 41 432 38 c 0,10,11
 442 34 442 34 444 23 c 1,12,13
 444 18 l 2,14,15
 444 -10 444 -10 413 -10 c 0,16,17
 410 -10 410 -10 371.5 -9 c 128,-1,18
 333 -8 333 -8 326 -8 c 0,19,20
 289 -7 289 -7 243 -7 c 0,21,22
 229 -7 229 -7 200.5 -7.5 c 128,-1,23
 172 -8 172 -8 158 -8 c 128,-1,24
 144 -8 144 -8 116.5 -9 c 128,-1,25
 89 -10 89 -10 76 -10 c 0,26,27
 49 -10 49 -10 49 13 c 0,28,29
 49 38 49 38 75 40 c 0,30,31
 76 40 76 40 83.5 40.5 c 128,-1,32
 91 41 91 41 100 41 c 0,33,34
 150 41 150 41 171.5 45.5 c 128,-1,35
 193 50 193 50 198 56 c 128,-1,36
 203 62 203 62 208 81 c 2,37,-1
 342 616 l 2,38,39
 346 631 346 631 346 635 c 1,40,41
 342 636 342 636 328 636 c 2,42,-1
 289 636 l 2,43,44
 250 636 250 636 227 634.5 c 128,-1,45
 204 633 204 633 180.5 627 c 128,-1,46
 157 621 157 621 144 611.5 c 128,-1,47
 131 602 131 602 116.5 582.5 c 128,-1,48
 102 563 102 563 91.5 538 c 128,-1,49
 81 513 81 513 67 473 c 0,50,51
 65 468 65 468 64 464 c 2,52,-1
 63 460 l 1,53,54
 55 442 55 442 39 442 c 0,55,56
 27 442 27 442 21.5 449.5 c 128,-1,57
 16 457 16 457 16 465 c 2,58,-1
 16 467 l 2,59,60
 16 469 16 469 21 484 c 2,61,-1
 83 660 l 2,62,63
 86 669 86 669 86 670 c 0,64,65
 93 686 93 686 110 687 c 1,66,-1
 124 687 l 1,67,-1
 693 687 l 2,68,69
 715 687 715 687 723 682 c 0,70,71
 729 679 729 679 731 672 c 0,72,73
 732 669 732 669 732 663 c 0,74,75
 732 655 732 655 730 647 c 2,76,-1
 704 475 l 2,77,78
 704 472 704 472 702 464 c 0,79,80
 698 442 698 442 678 442 c 0,81,82
 654 442 654 442 654 466 c 2,83,-1
 654 467 l 1,84,-1
 655 475 l 1,85,86
 664 534 664 534 664 561 c 0,87,88
 664 611 664 611 639 623.5 c 128,-1,89
 614 636 614 636 525 636 c 0,90,91
 476 636 476 636 466 634 c 0,92,93
 465 634 465 634 463 633 c 128,-1,94
 461 632 461 632 460 632 c 0,95,96
 458 631 458 631 457 630 c 0,97,98
 454 626 454 626 449 606 c 2,99,-1
 315 71 l 2,0,1
EndSplineSet
Validated: 19457
EndChar

StartChar: YUpsilon
Encoding: 933 933 72
Width: 752
VWidth: 1000
Flags: W
HStem: -10 51<93.3906 192.131 309.096 399.967> 642 51<28.3469 115.904 244.38 321.232 561.335 609.999 694.198 784.781>
LayerCount: 2
Fore
SplineSet
372 278 m 2,0,1
 369 275 369 275 366 272.5 c 128,-1,2
 363 270 363 270 362 269 c 0,3,4
 350 214 350 214 339 176 c 1,5,-1
 322 105 l 1,6,7
 309 57 309 57 309 49 c 2,8,-1
 309 46 l 1,9,10
 312 45 312 45 323 43 c 0,11,12
 338 41 338 41 360 41 c 0,13,14
 383 41 383 41 390 37 c 0,15,16
 399 33 399 33 400 24 c 1,17,-1
 400 22 l 2,18,19
 400 20 400 20 401 18 c 0,20,21
 401 -10 401 -10 371 -10 c 0,22,23
 347 -10 347 -10 307 -8 c 0,24,25
 277 -7 277 -7 243 -7 c 0,26,27
 203 -7 203 -7 182 -8 c 0,28,29
 148 -10 148 -10 118 -10 c 0,30,31
 93 -10 93 -10 93 11 c 2,32,-1
 93 13 l 2,33,34
 93 40 93 40 120 41 c 1,35,-1
 130 41 l 1,36,37
 181 42 181 42 192.5 48 c 128,-1,38
 204 54 204 54 211 83 c 0,39,40
 212 90 212 90 213 93 c 0,41,42
 215 102 215 102 235.5 182 c 128,-1,43
 256 262 256 262 258 272 c 0,44,45
 258 274 258 274 254 284 c 2,46,-1
 124 615 l 2,47,48
 119 627 119 627 116 631 c 128,-1,49
 113 635 113 635 100.5 638.5 c 128,-1,50
 88 642 88 642 61 642 c 1,51,52
 45 641 45 641 37 646 c 0,53,54
 32 649 32 649 30 654 c 0,55,56
 28 657 28 657 28 665 c 0,57,58
 28 693 28 693 57 693 c 0,59,60
 81 693 81 693 113 691 c 0,61,62
 137 690 137 690 171 690 c 0,63,64
 212 691 212 691 233 691 c 0,65,66
 242 691 242 691 263.5 692 c 128,-1,67
 285 693 285 693 296 693 c 0,68,69
 322 693 322 693 322 670 c 1,70,71
 320 643 320 643 294 642 c 1,72,-1
 287 642 l 2,73,74
 256 642 256 642 244 635 c 0,75,76
 240 633 240 633 240 629 c 2,77,-1
 240 628 l 2,78,79
 240 627 240 627 242 622.5 c 128,-1,80
 244 618 244 618 245 615 c 2,81,-1
 356 333 l 1,82,-1
 583 586 l 2,83,84
 583 587 583 587 590 595.5 c 128,-1,85
 597 604 597 604 603.5 614 c 128,-1,86
 610 624 610 624 610 630 c 0,87,88
 610 635 610 635 605 638 c 0,89,90
 599 642 599 642 588 642 c 0,91,92
 561 643 561 643 561 665 c 0,93,94
 561 693 561 693 589 693 c 0,95,96
 605 693 605 693 638.5 691.5 c 128,-1,97
 672 690 672 690 687 690 c 0,98,99
 709 690 709 690 728.5 691 c 128,-1,100
 748 692 748 692 758 692 c 2,101,-1
 769 693 l 2,102,103
 778 693 778 693 785 686.5 c 128,-1,104
 792 680 792 680 792 670 c 128,-1,105
 792 660 792 660 786.5 651.5 c 128,-1,106
 781 643 781 643 771 642 c 0,107,108
 743 639 743 639 728.5 636 c 128,-1,109
 714 633 714 633 684.5 613.5 c 128,-1,110
 655 594 655 594 622 558 c 2,111,-1
 372 278 l 2,0,1
EndSplineSet
Validated: 19457
EndChar

StartChar: Phi
Encoding: 934 934 73
Width: 685
VWidth: 1000
Flags: W
HStem: -10 51<82.4062 214.84 322.16 437.641> 126 45<180.062 236> 512 45<447 504.305> 642 51<255.254 361.984 468.159 600.594>
VStem: 14 113<231.044 382.382> 557 113<301.69 452.113>
LayerCount: 2
Fore
SplineSet
436 512 m 1,0,-1
 351 172 l 1,1,2
 407 181 407 181 448.5 206 c 128,-1,3
 490 231 490 231 510 258 c 128,-1,4
 530 285 530 285 541.5 318 c 128,-1,5
 553 351 553 351 555 367.5 c 128,-1,6
 557 384 557 384 557 396 c 0,7,8
 557 495 557 495 436 512 c 1,0,-1
247 171 m 1,9,-1
 333 511 l 1,10,11
 282 504 282 504 243 482.5 c 128,-1,12
 204 461 204 461 182.5 435.5 c 128,-1,13
 161 410 161 410 148 379.5 c 128,-1,14
 135 349 135 349 131 327 c 128,-1,15
 127 305 127 305 127 287 c 0,16,17
 127 234 127 234 162 206 c 1,18,19
 191 180 191 180 247 171 c 1,9,-1
447 557 m 1,20,21
 544 547 544 547 607 496.5 c 128,-1,22
 670 446 670 446 670 375 c 0,23,24
 670 286 670 286 571.5 211.5 c 128,-1,25
 473 137 473 137 339 126 c 1,26,27
 336 113 336 113 331.5 95 c 128,-1,28
 327 77 327 77 324.5 65 c 128,-1,29
 322 53 322 53 322 52 c 2,30,-1
 322 47 l 1,31,32
 327 43 327 43 346 43 c 1,33,34
 369 41 369 41 397 41 c 0,35,36
 420 41 420 41 427 37 c 0,37,38
 436 33 436 33 437 24 c 1,39,-1
 438 22 l 2,40,41
 438 20 438 20 438 18 c 0,42,43
 438 -10 438 -10 408 -10 c 0,44,45
 396 -10 396 -10 370.5 -9 c 128,-1,46
 345 -8 345 -8 334 -8 c 0,47,48
 321 -8 321 -8 295.5 -7.5 c 128,-1,49
 270 -7 270 -7 257 -7 c 0,50,51
 205 -7 205 -7 186 -8 c 0,52,53
 152 -10 152 -10 109 -10 c 0,54,55
 82 -10 82 -10 82 13 c 0,56,57
 82 39 82 39 108 41 c 1,58,-1
 124 41 l 2,59,60
 172 41 172 41 191 45 c 128,-1,61
 210 49 210 49 215 55.5 c 128,-1,62
 220 62 220 62 226 85 c 2,63,-1
 236 126 l 1,64,65
 136 136 136 136 75 187 c 128,-1,66
 14 238 14 238 14 308 c 0,67,68
 14 396 14 396 111.5 470.5 c 128,-1,69
 209 545 209 545 345 557 c 1,70,71
 361 624 361 624 362 631 c 0,72,73
 362 632 362 632 362 634 c 2,74,-1
 361 635 l 1,75,76
 358 640 358 640 340 640 c 1,77,78
 317 642 317 642 289 642 c 0,79,80
 263 642 263 642 255 646 c 0,81,82
 246 651 246 651 245 660 c 1,83,-1
 245 665 l 1,84,85
 248 691 248 691 271 693 c 1,86,-1
 276 693 l 2,87,88
 288 693 288 693 313.5 692 c 128,-1,89
 339 691 339 691 350 691 c 0,90,91
 363 691 363 691 388.5 690.5 c 128,-1,92
 414 690 414 690 427 690 c 0,93,94
 479 690 479 690 498 691 c 0,95,96
 532 693 532 693 575 693 c 0,97,98
 601 693 601 693 601 670 c 0,99,100
 601 645 601 645 576 643 c 0,101,102
 575 643 575 643 569 642.5 c 128,-1,103
 563 642 563 642 555 642 c 0,104,105
 509 642 509 642 491 638 c 128,-1,106
 473 634 473 634 468 627 c 128,-1,107
 463 620 463 620 457 596 c 2,108,-1
 447 557 l 1,20,21
EndSplineSet
Validated: 19457
EndChar

StartChar: Chi
Encoding: 935 935 74
Width: 848
VWidth: 1000
Flags: W
HStem: -10 51<24.6737 129.789 224.007 275.641 474.735 542.68 668.612 749.748> 642 51<205.252 286.388 412.32 480.265 622.359 673.993 765.297 872.811>
LayerCount: 2
Fore
SplineSet
661 66 m 2,0,1
 665 56 665 56 668.5 52 c 128,-1,2
 672 48 672 48 685.5 44.5 c 128,-1,3
 699 41 699 41 725 41 c 0,4,5
 742 41 742 41 750 36 c 1,6,7
 756 30 756 30 757 28 c 0,8,9
 759 25 759 25 759 18 c 0,10,11
 759 7 759 7 752 -1.5 c 128,-1,12
 745 -10 745 -10 730 -10 c 2,13,-1
 675 -8 l 2,14,15
 651 -7 651 -7 616 -7 c 0,16,17
 605 -7 605 -7 585 -7.5 c 128,-1,18
 565 -8 565 -8 555 -8 c 0,19,20
 546 -8 546 -8 524.5 -9 c 128,-1,21
 503 -10 503 -10 492 -10 c 0,22,23
 482 -10 482 -10 474.5 -4 c 128,-1,24
 467 2 467 2 467 13 c 0,25,26
 467 41 467 41 494 41 c 1,27,28
 533 45 533 45 543 61 c 1,29,-1
 539 69 l 1,30,-1
 437 295 l 1,31,-1
 395 250 l 1,32,-1
 341 194 l 1,33,-1
 264 115 l 1,34,35
 224 72 224 72 224 60 c 0,36,37
 224 43 224 43 253 41 c 1,38,39
 276 38 276 38 276 18 c 0,40,41
 276 -10 276 -10 246 -10 c 0,42,43
 237 -10 237 -10 218.5 -9 c 128,-1,44
 200 -8 200 -8 192 -8 c 0,45,46
 183 -8 183 -8 164.5 -7.5 c 128,-1,47
 146 -7 146 -7 137 -7 c 0,48,49
 99 -7 99 -7 90 -8 c 1,50,-1
 89 -8 l 2,51,52
 87 -8 87 -8 67 -9 c 128,-1,53
 47 -10 47 -10 43 -10 c 0,54,55
 30 -10 30 -10 24.5 -2.5 c 128,-1,56
 19 5 19 5 19 13 c 0,57,58
 19 36 19 36 42 40 c 0,59,60
 45 41 45 41 51 41 c 0,61,62
 90 44 90 44 122 59.5 c 128,-1,63
 154 75 154 75 172.5 91 c 128,-1,64
 191 107 191 107 229 145 c 0,65,66
 234 150 234 150 253 170 c 128,-1,67
 272 190 272 190 277 196 c 0,68,69
 363 282 363 282 416 343 c 1,70,71
 413 344 413 344 412 352 c 1,72,-1
 294 617 l 2,73,74
 290 627 290 627 286.5 631 c 128,-1,75
 283 635 283 635 269.5 638.5 c 128,-1,76
 256 642 256 642 230 642 c 0,77,78
 213 642 213 642 205 647 c 1,79,80
 199 653 199 653 198 655 c 0,81,82
 196 658 196 658 196 665 c 0,83,84
 196 676 196 676 203 684.5 c 128,-1,85
 210 693 210 693 225 693 c 2,86,-1
 280 691 l 2,87,88
 304 690 304 690 339 690 c 0,89,90
 350 690 350 690 370 690.5 c 128,-1,91
 390 691 390 691 400 691 c 0,92,93
 409 691 409 691 430.5 692 c 128,-1,94
 452 693 452 693 463 693 c 0,95,96
 473 693 473 693 480.5 687 c 128,-1,97
 488 681 488 681 488 670 c 0,98,99
 488 642 488 642 461 642 c 1,100,101
 422 638 422 638 412 622 c 1,102,-1
 416 614 l 1,103,-1
 499 428 l 1,104,-1
 653 588 l 2,105,106
 674 609 674 609 674 623 c 0,107,108
 674 640 674 640 645 642 c 1,109,110
 622 645 622 645 622 665 c 0,111,112
 622 693 622 693 651 693 c 0,113,114
 660 693 660 693 679 692 c 128,-1,115
 698 691 698 691 706 691 c 0,116,117
 715 691 715 691 733.5 690.5 c 128,-1,118
 752 690 752 690 761 690 c 0,119,120
 799 690 799 690 808 691 c 1,121,-1
 809 691 l 2,122,123
 811 691 811 691 831 692 c 128,-1,124
 851 693 851 693 855 693 c 0,125,126
 867 693 867 693 873 685.5 c 128,-1,127
 879 678 879 678 879 670 c 0,128,129
 879 647 879 647 856 643 c 0,130,131
 853 642 853 642 847 642 c 0,132,133
 792 638 792 638 756 614.5 c 128,-1,134
 720 591 720 591 667 536 c 0,135,136
 661 530 661 530 644 512 c 128,-1,137
 627 494 627 494 622 489 c 0,138,139
 611 478 611 478 572.5 436.5 c 128,-1,140
 534 395 534 395 520 381 c 1,141,-1
 661 66 l 2,0,1
EndSplineSet
Validated: 19457
EndChar

StartChar: Psi
Encoding: 936 936 75
Width: 731
VWidth: 1000
Flags: W
HStem: -10 51<60.4062 193.325 300.16 415.641> 128 46<185.034 215> 520 45<30.2527 54.3585 658.103 710.778> 642 51<233.254 339.984 446.644 578.594>
VStem: 18 1<548 549> 47 97<220.511 447.195> 67 101<333.928 517.779>
LayerCount: 2
Fore
SplineSet
330 177 m 1,0,1
 462 217 462 217 512 409 c 0,2,3
 537 502 537 502 571.5 533.5 c 128,-1,4
 606 565 606 565 654 565 c 2,5,-1
 683 565 l 2,6,7
 704 565 704 565 711 561 c 0,8,9
 719 556 719 556 720 548 c 2,10,-1
 720 546 l 2,11,12
 720 544 720 544 721 542 c 0,13,14
 719 528 719 528 710 524 c 0,15,16
 703 520 703 520 696 520 c 1,17,18
 643 512 643 512 613 400 c 0,19,20
 581 282 581 282 508 213 c 0,21,22
 430 139 430 139 317 126 c 1,23,24
 314 113 314 113 309.5 95 c 128,-1,25
 305 77 305 77 302.5 65 c 128,-1,26
 300 53 300 53 300 52 c 2,27,-1
 300 47 l 1,28,29
 305 43 305 43 324 43 c 1,30,31
 347 41 347 41 375 41 c 0,32,33
 398 41 398 41 405 37 c 0,34,35
 414 33 414 33 415 24 c 1,36,-1
 416 22 l 2,37,38
 416 20 416 20 416 18 c 0,39,40
 416 -10 416 -10 386 -10 c 0,41,42
 374 -10 374 -10 348.5 -9 c 128,-1,43
 323 -8 323 -8 312 -8 c 0,44,45
 299 -8 299 -8 273.5 -7.5 c 128,-1,46
 248 -7 248 -7 235 -7 c 0,47,48
 183 -7 183 -7 164 -8 c 0,49,50
 130 -10 130 -10 87 -10 c 0,51,52
 60 -10 60 -10 60 13 c 0,53,54
 60 39 60 39 86 41 c 1,55,-1
 102 41 l 2,56,57
 151 41 151 41 169.5 45 c 128,-1,58
 188 49 188 49 193.5 56 c 128,-1,59
 199 63 199 63 205 88 c 2,60,-1
 215 128 l 1,61,62
 47 157 47 157 47 322 c 0,63,64
 47 365 47 365 59 417 c 0,65,66
 67 450 67 450 67 473 c 0,67,68
 67 493 67 493 63 503.5 c 128,-1,69
 59 514 59 514 54.5 516.5 c 128,-1,70
 50 519 50 519 42 520 c 0,71,72
 30 522 30 522 27 525 c 0,73,74
 18 531 18 531 18 542 c 1,75,-1
 19 549 l 1,76,-1
 19 548 l 1,77,78
 21 557 21 557 30 562 c 1,79,80
 38 565 38 565 57 565 c 2,81,-1
 85 565 l 2,82,83
 100 565 100 565 111 563 c 128,-1,84
 122 561 122 561 137 553 c 128,-1,85
 152 545 152 545 160 525 c 128,-1,86
 168 505 168 505 168 473 c 128,-1,87
 168 441 168 441 157 394 c 1,88,89
 144 346 144 346 144 304 c 0,90,91
 144 197 144 197 227 174 c 1,92,-1
 337 615 l 1,93,-1
 338 617 l 2,94,95
 338 619 338 619 339 623 c 128,-1,96
 340 627 340 627 340 631 c 0,97,98
 340 632 340 632 340 634 c 2,99,-1
 339 635 l 1,100,101
 336 640 336 640 318 640 c 1,102,103
 295 642 295 642 267 642 c 0,104,105
 241 642 241 642 233 646 c 0,106,107
 224 651 224 651 223 660 c 1,108,-1
 223 665 l 1,109,110
 226 691 226 691 249 693 c 1,111,-1
 254 693 l 2,112,113
 266 693 266 693 291.5 692 c 128,-1,114
 317 691 317 691 328 691 c 0,115,116
 341 691 341 691 366.5 690.5 c 128,-1,117
 392 690 392 690 405 690 c 0,118,119
 457 690 457 690 476 691 c 0,120,121
 510 693 510 693 553 693 c 0,122,123
 579 693 579 693 579 670 c 0,124,125
 579 645 579 645 554 643 c 0,126,127
 548 642 548 642 532 642 c 0,128,129
 488 642 488 642 469.5 638 c 128,-1,130
 451 634 451 634 446.5 628 c 128,-1,131
 442 622 442 622 437 602 c 2,132,-1
 330 177 l 1,0,1
EndSplineSet
Validated: 19457
EndChar

StartChar: Omega
Encoding: 937 937 76
Width: 834
VWidth: 1000
Flags: W
HStem: -10 84<124.35 246 535 651.388> 670 45<446.183 629.583>
VStem: 73 48<74.616 160.777> 154 115<285.477 486.502> 246 49<75.0801 170.447> 698 116<419.595 590.397>
LayerCount: 2
Fore
SplineSet
597 74 m 2,0,1
 623 74 623 74 635.5 75.5 c 128,-1,2
 648 77 648 77 651.5 79.5 c 128,-1,3
 655 82 655 82 659 88 c 0,4,5
 670 104 670 104 692 148 c 0,6,7
 700 164 700 164 706 168 c 0,8,9
 707 169 707 169 708 169 c 0,10,11
 711 171 711 171 718 171 c 0,12,13
 729 171 729 171 735.5 164 c 128,-1,14
 742 157 742 157 742 148 c 0,15,16
 742 146 742 146 741 144 c 0,17,18
 738 135 738 135 676 10 c 0,19,20
 674 6 674 6 672 4 c 0,21,22
 667 -7 667 -7 652 -9 c 0,23,24
 651 -9 651 -9 645.5 -9.5 c 128,-1,25
 640 -10 640 -10 635 -10 c 2,26,-1
 502 -10 l 2,27,28
 481 -10 481 -10 474 -6 c 0,29,30
 466 -1 466 -1 465 7 c 2,31,-1
 464 9 l 2,32,33
 464 11 464 11 464 13 c 0,34,35
 464 42 464 42 501 116 c 0,36,37
 516 146 516 146 574 237 c 0,38,39
 616 302 616 302 637 338 c 128,-1,40
 658 374 658 374 678 426 c 128,-1,41
 698 478 698 478 698 522 c 0,42,43
 698 594 698 594 653 632 c 128,-1,44
 608 670 608 670 543 670 c 0,45,46
 497 670 497 670 450 650 c 128,-1,47
 403 630 403 630 362 593.5 c 128,-1,48
 321 557 321 557 295 496.5 c 128,-1,49
 269 436 269 436 269 364 c 0,50,51
 269 338 269 338 281 246 c 1,52,53
 295 157 295 157 295 104 c 0,54,55
 295 68 295 68 289 34 c 0,56,57
 286 19 286 19 284 11 c 0,58,59
 278 -8 278 -8 260 -10 c 1,60,-1
 245 -10 l 1,61,-1
 112 -10 l 2,62,63
 94 -10 94 -10 86 -7 c 2,64,-1
 84 -6 l 2,65,66
 82 -5 82 -5 79.5 -3 c 128,-1,67
 77 -1 77 -1 76 2 c 0,68,69
 73 10 73 10 73 30 c 2,70,-1
 73 131 l 2,71,72
 73 154 73 154 77 161 c 1,73,74
 85 169 85 169 88 170 c 128,-1,75
 91 171 91 171 97 171 c 128,-1,76
 103 171 103 171 106 170 c 128,-1,77
 109 169 109 169 118 160 c 1,78,79
 121 152 121 152 121 133 c 0,80,81
 121 89 121 89 124 77 c 1,82,83
 135 74 135 74 170 74 c 2,84,-1
 246 74 l 1,85,86
 244 126 244 126 204 220 c 0,87,88
 186 261 186 261 178 281.5 c 128,-1,89
 170 302 170 302 162 335 c 128,-1,90
 154 368 154 368 154 399 c 0,91,92
 154 487 154 487 212.5 561 c 128,-1,93
 271 635 271 635 359.5 675 c 128,-1,94
 448 715 448 715 543 715 c 0,95,96
 666 715 666 715 740 652.5 c 128,-1,97
 814 590 814 590 814 500 c 0,98,99
 814 450 814 450 785.5 393.5 c 128,-1,100
 757 337 757 337 728 302 c 128,-1,101
 699 267 699 267 652 218 c 0,102,103
 564 127 564 127 535 74 c 1,104,-1
 597 74 l 2,0,1
EndSplineSet
Validated: 19457
EndChar

StartChar: alpha
Encoding: 945 945 77
Width: 658
VWidth: 1000
Flags: W
HStem: -21 45<155.432 313.773 509.383 562.341> 407 45<248.133 368.032>
VStem: 33 97<66.4985 244.729> 408.5 91.5<106.607 160.139 210 352.123> 570 48<32.877 77.811 298.277 391.813>
LayerCount: 2
Fore
SplineSet
411 106 m 1,0,1
 409 125 409 125 408.5 196.5 c 128,-1,2
 408 268 408 268 404 296 c 0,3,4
 388 407 388 407 316 407 c 0,5,6
 279 407 279 407 243.5 382 c 128,-1,7
 208 357 208 357 187 324 c 0,8,9
 161 282 161 282 145.5 221.5 c 128,-1,10
 130 161 130 161 130 123 c 0,11,12
 130 74 130 74 152 49 c 128,-1,13
 174 24 174 24 213 24 c 0,14,15
 311 24 311 24 411 106 c 1,0,1
500 210 m 1,16,17
 548 282 548 282 577 377 c 1,18,19
 582 390 582 390 583 392 c 0,20,21
 588 402 588 402 596 402 c 1,22,23
 598 403 598 403 604 403 c 0,24,25
 614 402 614 402 617 400 c 0,26,27
 623 396 623 396 625 392 c 0,28,29
 627 386 627 386 627 382 c 2,30,-1
 627 380 l 1,31,32
 626 367 626 367 612.5 327 c 128,-1,33
 599 287 599 287 580 251 c 0,34,35
 553 198 553 198 509 143 c 0,36,37
 504 136 504 136 503 135 c 128,-1,38
 502 134 502 134 502 133 c 2,39,-1
 502 123 l 2,40,41
 502 44 502 44 518 27 c 0,42,43
 521 24 521 24 524 24 c 0,44,45
 536 24 536 24 549.5 33.5 c 128,-1,46
 563 43 563 43 570 61 c 1,47,48
 570 66 570 66 573 70 c 0,49,50
 577 77 577 77 585 80 c 0,51,52
 589 81 589 81 594 81 c 0,53,54
 602 81 602 81 608 78 c 0,55,56
 618 72 618 72 618 60 c 0,57,58
 618 38 618 38 589.5 8.5 c 128,-1,59
 561 -21 561 -21 521 -21 c 0,60,61
 448 -21 448 -21 421 56 c 1,62,63
 317 -21 317 -21 210 -21 c 0,64,65
 133 -21 133 -21 83 29 c 128,-1,66
 33 79 33 79 33 160 c 0,67,68
 33 272 33 272 121.5 362 c 128,-1,69
 210 452 210 452 316 452 c 0,70,71
 392 452 392 452 446 398 c 0,72,73
 500 345 500 345 500 239 c 0,74,75
 500 237 500 237 500 235 c 2,76,-1
 500 210 l 1,16,17
EndSplineSet
Validated: 3073
EndChar

StartChar: beta
Encoding: 946 946 78
Width: 616
VWidth: 1000
Flags: W
HStem: -204 21G<39 50> -21 46<196.357 350.617> 359 82<275.479 431.318> 671 45<361.08 493.673>
VStem: 468 87<156.458 346.491> 516 80<498.394 649.199>
LayerCount: 2
Fore
SplineSet
516 589 m 0,0,1
 516 634 516 634 492 652.5 c 128,-1,2
 468 671 468 671 433 671 c 0,3,4
 383 671 383 671 338 631 c 128,-1,5
 293 591 293 591 267.5 542 c 128,-1,6
 242 493 242 493 228 443 c 1,7,-1
 160 170 l 2,8,9
 157 161 157 161 157 141 c 0,10,11
 157 89 157 89 186 57 c 128,-1,12
 215 25 215 25 266 25 c 0,13,14
 344 25 344 25 404 90 c 0,15,16
 468 159 468 159 468 276 c 0,17,18
 468 344 468 344 433 372 c 1,19,20
 379 359 379 359 346 359 c 0,21,22
 290 359 290 359 275 374 c 1,23,24
 270 377 270 377 267 391 c 0,25,26
 267 392 267 392 266.5 393.5 c 128,-1,27
 266 395 266 395 266 397 c 0,28,29
 266 441 266 441 358 441 c 0,30,31
 402 441 402 441 436 430 c 1,32,33
 469 448 469 448 492.5 495.5 c 128,-1,34
 516 543 516 543 516 589 c 0,0,1
490 399 m 1,35,36
 555 346 555 346 555 248 c 0,37,38
 555 143 555 143 477 68 c 0,39,40
 385 -21 385 -21 265 -21 c 0,41,42
 173 -21 173 -21 130 55 c 1,43,-1
 67 -193 l 1,44,-1
 66 -194 l 2,45,46
 65 -196 65 -196 64 -197.5 c 128,-1,47
 63 -199 63 -199 61 -200 c 0,48,49
 56 -204 56 -204 44 -204 c 0,50,51
 34 -204 34 -204 27 -197 c 0,52,53
 21 -191 21 -191 21 -184 c 2,54,-1
 21 -181 l 1,55,-1
 178 449 l 1,56,57
 230 631 230 631 353 696 c 0,58,59
 391 716 391 716 432 716 c 0,60,61
 511 716 511 716 553.5 674 c 128,-1,62
 596 632 596 632 596 572 c 0,63,64
 596 520 596 520 563.5 473 c 128,-1,65
 531 426 531 426 490 399 c 1,35,36
EndSplineSet
Validated: 19457
EndChar

StartChar: gamma
Encoding: 947 947 79
Width: 597
VWidth: 1000
Flags: W
HStem: 358 94<144.985 295.147> 421 20G<547 558>
LayerCount: 2
Fore
SplineSet
464 289 m 0,0,1
 507 386 507 386 532 430 c 1,2,3
 540 441 540 441 554 441 c 0,4,5
 562 441 562 441 566 438 c 1,6,7
 576 434 576 434 576 426 c 1,8,9
 576 424 l 2,10,11
 576 422 576 422 577 420 c 0,12,13
 577 417 577 417 576 415 c 0,14,15
 576 414 576 414 559 379 c 0,16,17
 518 299 518 299 483 214.5 c 128,-1,18
 448 130 448 130 432.5 85.5 c 128,-1,19
 417 41 417 41 416 31 c 0,20,21
 401 -73 401 -73 377 -158 c 0,22,23
 360 -217 360 -217 343 -225 c 1,24,-1
 340 -225 l 1,25,26
 338 -226 338 -226 334 -226 c 0,27,28
 312 -223 312 -223 310 -202 c 1,29,-1
 310 -194 l 2,30,31
 310 -153 310 -153 363 27 c 1,32,33
 372 50 372 50 372 112 c 0,34,35
 372 358 372 358 216 358 c 0,36,37
 195 358 195 358 170 351.5 c 128,-1,38
 145 345 145 345 113 320 c 128,-1,39
 81 295 81 295 67 256 c 1,40,41
 66 250 66 250 62 246 c 1,42,43
 60 242 60 242 52 240 c 0,44,45
 50 239 50 239 44 239 c 128,-1,46
 38 239 38 239 30 242 c 1,47,48
 20 248 20 248 20 260 c 0,49,50
 20 276 20 276 34.5 306.5 c 128,-1,51
 49 337 49 337 74 370 c 128,-1,52
 99 403 99 403 141 427.5 c 128,-1,53
 183 452 183 452 229 452 c 0,54,55
 323 452 323 452 371 347 c 0,56,57
 406 272 406 272 417 177 c 1,58,59
 442 240 442 240 464 289 c 0,0,1
EndSplineSet
Validated: 19457
EndChar

StartChar: delta
Encoding: 948 948 80
Width: 491
VWidth: 1000
Flags: W
HStem: -22 45<149.584 257.519> 615 78<382.28 462.129> 667 55<253.335 353.706>
VStem: 33 86<63.6287 247.071> 195 51<577.666 659.49> 327 94<151.625 341.376>
LayerCount: 2
Fore
SplineSet
277 400 m 1,0,1
 232 386 232 386 198.5 349.5 c 128,-1,2
 165 313 165 313 149 270 c 128,-1,3
 133 227 133 227 126 192 c 128,-1,4
 119 157 119 157 119 131 c 0,5,6
 119 74 119 74 145.5 48.5 c 128,-1,7
 172 23 172 23 207 23 c 0,8,9
 236 23 236 23 260.5 47.5 c 128,-1,10
 285 72 285 72 298.5 107.5 c 128,-1,11
 312 143 312 143 319.5 178.5 c 128,-1,12
 327 214 327 214 327 241 c 0,13,14
 327 310 327 310 277 400 c 1,0,1
195 609 m 0,15,16
 195 626 195 626 200 643 c 128,-1,17
 205 660 205 660 217.5 679 c 128,-1,18
 230 698 230 698 256.5 710 c 128,-1,19
 283 722 283 722 320 722 c 0,20,21
 354 722 354 722 403 711 c 0,22,23
 449 701 449 701 459 693 c 1,24,25
 468 689 468 689 470 676 c 0,26,27
 471 673 471 673 471 666 c 0,28,29
 471 645 471 645 456 630 c 128,-1,30
 441 615 441 615 421 615 c 0,31,32
 407 615 407 615 358 642 c 1,33,34
 322 667 322 667 291 667 c 0,35,36
 268 667 268 667 257 656 c 128,-1,37
 246 645 246 645 246 633 c 0,38,39
 246 593 246 593 344 472 c 0,40,41
 366 445 366 445 379 426 c 128,-1,42
 392 407 392 407 406.5 366.5 c 128,-1,43
 421 326 421 326 421 282 c 0,44,45
 421 210 421 210 394.5 140.5 c 128,-1,46
 368 71 368 71 318 24.5 c 128,-1,47
 268 -22 268 -22 208 -22 c 0,48,49
 135 -22 135 -22 84 26.5 c 128,-1,50
 33 75 33 75 33 159 c 0,51,52
 33 256 33 256 99 337 c 128,-1,53
 165 418 165 418 253 443 c 1,54,55
 195 547 195 547 195 609 c 0,15,16
EndSplineSet
Validated: 19457
EndChar

StartChar: varepsilon
Encoding: 949 949 81
Width: 477
VWidth: 1000
Flags: W
HStem: -32 70<95.0444 307.643> 201 82<147.407 318.355> 393 70<186.311 375.855>
VStem: 18 48<65.2706 166.18> 67 48<271.262 349.617>
LayerCount: 2
Fore
SplineSet
66 112 m 0,0,1
 66 38 66 38 206 38 c 0,2,3
 323 38 323 38 352 85 c 0,4,5
 361 99 361 99 362 100 c 0,6,7
 368 105 368 105 376 105 c 0,8,9
 398 105 398 105 398 83 c 0,10,11
 398 79 398 79 397 77 c 0,12,13
 388 44 388 44 334.5 6 c 128,-1,14
 281 -32 281 -32 195 -32 c 0,15,16
 119 -32 119 -32 68.5 6.5 c 128,-1,17
 18 45 18 45 18 106 c 0,18,19
 18 184 18 184 100 241 c 1,20,21
 67 270 67 270 67 309 c 0,22,23
 67 368 67 368 139 415.5 c 128,-1,24
 211 463 211 463 306 463 c 0,25,26
 356 463 356 463 392 445 c 0,27,28
 439 422 439 422 446 405 c 0,29,30
 448 399 448 399 448 394 c 0,31,32
 445 361 445 361 412 356 c 1,33,-1
 410 356 l 2,34,35
 397 356 397 356 385 365 c 0,36,37
 345 393 345 393 295 393 c 0,38,39
 226 393 226 393 170.5 369 c 128,-1,40
 115 345 115 345 115 309 c 0,41,42
 115 284 115 284 146 265 c 1,43,44
 191 283 191 283 241 283 c 2,45,-1
 247 283 l 2,46,47
 304 283 304 283 319 264 c 0,48,49
 321 261 321 261 323 255 c 128,-1,50
 325 249 325 249 325 244 c 0,51,52
 325 201 325 201 241 201 c 2,53,-1
 232 201 l 2,54,55
 180 201 180 201 145 214 c 1,56,57
 109 196 109 196 87.5 165.5 c 128,-1,58
 66 135 66 135 66 112 c 0,0,1
EndSplineSet
Validated: 19457
EndChar

StartChar: zeta
Encoding: 950 950 82
Width: 513
VWidth: 1000
Flags: W
HStem: -215 45<222.645 320.2> 545 82<344.752 485.802>
VStem: 37 79<109.22 299.585> 293 48<620.375 706.031> 330 76<-157.045 -76.1941>
LayerCount: 2
Fore
SplineSet
116 196 m 0,0,1
 116 159 116 159 125 133.5 c 128,-1,2
 134 108 134 108 155 92 c 128,-1,3
 176 76 176 76 193.5 68 c 128,-1,4
 211 60 211 60 244 50 c 0,5,6
 256 46 256 46 275 39.5 c 128,-1,7
 294 33 294 33 310 27.5 c 128,-1,8
 326 22 326 22 327 22 c 0,9,10
 406 -7 406 -7 406 -84 c 0,11,12
 406 -133 406 -133 371 -174 c 128,-1,13
 336 -215 336 -215 286 -215 c 1,14,15
 247 -214 247 -214 214.5 -196.5 c 128,-1,16
 182 -179 182 -179 176 -164 c 0,17,18
 175 -162 175 -162 175 -157 c 0,19,20
 175 -148 175 -148 181.5 -141.5 c 128,-1,21
 188 -135 188 -135 197 -135 c 0,22,23
 203 -135 203 -135 210 -139 c 2,24,-1
 216 -143 l 1,25,26
 251 -170 251 -170 286 -170 c 0,27,28
 304 -170 304 -170 317 -152.5 c 128,-1,29
 330 -135 330 -135 330 -116 c 0,30,31
 330 -102 330 -102 325.5 -92.5 c 128,-1,32
 321 -83 321 -83 307 -75 c 128,-1,33
 293 -67 293 -67 283.5 -63.5 c 128,-1,34
 274 -60 274 -60 249 -52 c 0,35,36
 168 -26 168 -26 138.5 -12.5 c 128,-1,37
 109 1 109 1 84 29 c 0,38,39
 37 81 37 81 37 168 c 0,40,41
 37 297 37 297 117.5 419 c 128,-1,42
 198 541 198 541 300 600 c 1,43,44
 293 619 293 619 293 645 c 2,45,-1
 293 648 l 2,46,47
 293 677 293 677 300 692 c 0,48,49
 308 707 308 707 322 707 c 0,50,51
 333 707 333 707 339.5 699.5 c 128,-1,52
 346 692 346 692 346 684 c 0,53,54
 346 682 346 682 343.5 669.5 c 128,-1,55
 341 657 341 657 341 644 c 0,56,57
 341 632 341 632 344 620 c 1,58,59
 368 627 368 627 401 627 c 0,60,61
 471 627 471 627 487 607 c 0,62,63
 490 603 490 603 492 595 c 0,64,65
 492 594 492 594 492.5 591.5 c 128,-1,66
 493 589 493 589 493 588 c 0,67,68
 493 545 493 545 402 545 c 2,69,-1
 391 545 l 2,70,71
 349 545 349 545 327 562 c 1,72,73
 247 513 247 513 181.5 406 c 128,-1,74
 116 299 116 299 116 196 c 0,0,1
EndSplineSet
Validated: 19457
EndChar

StartChar: eta
Encoding: 951 951 83
Width: 541
VWidth: 1000
Flags: W
HStem: -21 21G<105 129> 407 45<103.038 153.875 312.796 425.726>
VStem: 73 86<-9.13953 50> 307 93<-214.655 -148.391> 433 88<233.914 401.437>
LayerCount: 2
Fore
SplineSet
400 -177 m 1,0,1
 389 -226 389 -226 348 -226 c 0,2,3
 330 -226 330 -226 318.5 -215 c 128,-1,4
 307 -204 307 -204 307 -187 c 0,5,6
 307 -176 307 -176 311 -162 c 2,7,-1
 424 285 l 1,8,9
 433 325 433 325 433 347 c 0,10,11
 433 407 433 407 389 407 c 0,12,13
 333 407 333 407 290 367 c 1,14,15
 246 323 246 323 230 282 c 1,16,17
 229 276 229 276 224.5 258 c 128,-1,18
 220 240 220 240 212 208.5 c 128,-1,19
 204 177 204 177 199 155 c 2,20,-1
 176 66 l 2,21,22
 160 8 160 8 159 5 c 0,23,24
 144 -21 144 -21 114 -21 c 0,25,26
 96 -21 96 -21 84.5 -9.5 c 128,-1,27
 73 2 73 2 73 18 c 2,28,-1
 73 22 l 1,29,-1
 80 50 l 1,30,-1
 120 214 l 2,31,32
 122 219 122 219 125.5 232.5 c 128,-1,33
 129 246 129 246 133.5 265 c 128,-1,34
 138 284 138 284 141 294 c 0,35,36
 155 352 155 352 155 370 c 0,37,38
 155 407 155 407 135 407 c 0,39,40
 97 407 97 407 71 299 c 0,41,42
 66 279 66 279 59 272 c 0,43,44
 55 268 55 268 52 267 c 128,-1,45
 49 266 49 266 43 266 c 0,46,47
 34 266 34 266 26 272 c 0,48,49
 23 275 23 275 22 277 c 0,50,51
 19 283 19 283 19 288 c 0,52,53
 19 296 19 296 30 332 c 128,-1,54
 41 368 41 368 51 388 c 0,55,56
 81 452 81 452 137 452 c 0,57,58
 174 452 174 452 202 432 c 128,-1,59
 230 412 230 412 240 378 c 1,60,61
 301 452 301 452 392 452 c 0,62,63
 445 452 445 452 483 424.5 c 128,-1,64
 521 397 521 397 521 332 c 0,65,66
 521 305 521 305 513 274 c 2,67,-1
 400 -177 l 1,0,1
EndSplineSet
Validated: 19457
EndChar

StartChar: theta
Encoding: 952 952 84
Width: 496
VWidth: 1000
Flags: W
HStem: -21 45<135.961 212.739> 321 52<163 344> 670 45<293.9 371.461>
VStem: 31 90<70.6136 289.851> 387 89<404.46 627.97>
CounterMasks: 1 e0
LayerCount: 2
Fore
SplineSet
344 321 m 1,0,-1
 150 321 l 1,1,2
 121 195 121 195 121 139 c 0,3,4
 121 24 121 24 168 24 c 128,-1,5
 215 24 215 24 273 127 c 0,6,7
 314 201 314 201 344 321 c 1,0,-1
163 373 m 1,8,-1
 358 373 l 1,9,10
 387 499 387 499 387 556 c 0,11,12
 387 670 387 670 339 670 c 0,13,14
 296 670 296 670 241 579 c 1,15,16
 197 504 197 504 163 373 c 1,8,-1
167 -21 m 0,17,18
 128 -21 128 -21 100 1 c 128,-1,19
 72 23 72 23 58 58 c 128,-1,20
 44 93 44 93 37.5 128 c 128,-1,21
 31 163 31 163 31 198 c 0,22,23
 31 308 31 308 74.5 428.5 c 128,-1,24
 118 549 118 549 191.5 632 c 128,-1,25
 265 715 265 715 340 715 c 0,26,27
 388 715 388 715 420 680.5 c 128,-1,28
 452 646 452 646 464 598.5 c 128,-1,29
 476 551 476 551 476 495 c 0,30,31
 476 382 476 382 431 261 c 128,-1,32
 386 140 386 140 313 59.5 c 128,-1,33
 240 -21 240 -21 167 -21 c 0,17,18
EndSplineSet
Validated: 19457
EndChar

StartChar: iota
Encoding: 953 953 85
Width: 363
VWidth: 1000
Flags: W
HStem: -21 45<130.389 216.69> 432 20G<175.5 201.5>
VStem: 46 84<24.1662 126.965> 144 90<331.439 440.14> 296 47<100.149 164.914>
LayerCount: 2
Fore
SplineSet
144 -21 m 0,0,1
 99 -21 99 -21 72.5 6 c 128,-1,2
 46 33 46 33 46 73 c 0,3,4
 46 95 46 95 62 139 c 128,-1,5
 78 183 78 183 80 191 c 0,6,7
 82 196 82 196 87 211.5 c 128,-1,8
 92 227 92 227 93 231 c 0,9,10
 106 283 106 283 120 325 c 0,11,12
 122 332 122 332 130.5 367.5 c 128,-1,13
 139 403 139 403 144 415 c 0,14,15
 158 452 158 452 193 452 c 0,16,17
 210 452 210 452 222 440.5 c 128,-1,18
 234 429 234 429 234 413 c 2,19,-1
 234 411 l 1,20,21
 232 401 232 401 221.5 358 c 128,-1,22
 211 315 211 315 189.5 242 c 128,-1,23
 168 169 168 169 146 110 c 0,24,25
 130 68 130 68 130 46 c 0,26,27
 130 36 130 36 133 30 c 128,-1,28
 136 24 136 24 140 24 c 2,29,-1
 146 24 l 2,30,31
 167 24 167 24 193 33.5 c 128,-1,32
 219 43 219 43 250.5 72.5 c 128,-1,33
 282 102 282 102 296 147 c 0,34,35
 298 154 298 154 299 155 c 0,36,37
 300 157 300 157 306 161 c 0,38,39
 314 165 314 165 320 165 c 0,40,41
 343 165 343 165 343 143 c 0,42,43
 343 101 343 101 283.5 40 c 128,-1,44
 224 -21 224 -21 144 -21 c 0,0,1
EndSplineSet
Validated: 19457
EndChar

StartChar: kappa
Encoding: 954 954 86
Width: 592
VWidth: 1000
Flags: W
HStem: -21 45<425.263 483.514> 331 110<435.924 517.973> 432 20G<171.5 201.5>
VStem: 45 86<-9.13953 83> 337 87<24.54 146.234> 344 92<62.72 186.066> 521 51<71.8037 164.565>
LayerCount: 2
Fore
SplineSet
201 277 m 1,0,1
 231 290 231 290 308 352 c 0,2,3
 343 380 343 380 361 393 c 128,-1,4
 379 406 379 406 416 423.5 c 128,-1,5
 453 441 453 441 484 441 c 0,6,7
 511 441 511 441 523 426.5 c 128,-1,8
 535 412 535 412 535 395 c 0,9,10
 535 372 535 372 516.5 351.5 c 128,-1,11
 498 331 498 331 470 331 c 0,12,13
 449 331 449 331 435.5 343.5 c 128,-1,14
 422 356 422 356 422 377 c 2,15,-1
 422 378 l 1,16,17
 389 361 389 361 332 315 c 0,18,19
 273 268 273 268 263 261 c 1,20,21
 330 254 330 254 358 243 c 0,22,23
 436 215 436 215 436 148 c 0,24,25
 436 142 436 142 435 135 c 128,-1,26
 434 128 434 128 432.5 122 c 128,-1,27
 431 116 431 116 431 113 c 0,28,29
 424 85 424 85 424 62 c 0,30,31
 424 24 424 24 446 24 c 0,32,33
 493 24 493 24 521 135 c 0,34,35
 526 153 526 153 532 159 c 0,36,37
 534 162 534 162 539 163 c 1,38,39
 542 165 542 165 549 165 c 0,40,41
 572 165 572 165 572 143 c 0,42,43
 572 134 572 134 559.5 97 c 128,-1,44
 547 60 547 60 531 36 c 0,45,46
 494 -21 494 -21 443 -21 c 0,47,48
 398 -21 398 -21 367.5 10.5 c 128,-1,49
 337 42 337 42 337 90 c 0,50,51
 337 106 337 106 341 124 c 0,52,53
 344 134 344 134 344 145 c 0,54,55
 344 157 344 157 340.5 166 c 128,-1,56
 337 175 337 175 323 186 c 128,-1,57
 309 197 309 197 284 204 c 0,58,59
 243 217 243 217 186 219 c 1,60,61
 139 22 139 22 131 6 c 1,62,-1
 131 5 l 1,63,64
 116 -21 116 -21 86 -21 c 0,65,66
 68 -21 68 -21 56.5 -9.5 c 128,-1,67
 45 2 45 2 45 18 c 0,68,69
 45 22 45 22 48 37 c 2,70,-1
 141 405 l 1,71,72
 150 452 150 452 193 452 c 0,73,74
 210 452 210 452 222 440.5 c 128,-1,75
 234 429 234 429 234 413 c 2,76,-1
 234 412 l 1,77,-1
 201 277 l 1,0,1
EndSplineSet
Validated: 19457
EndChar

StartChar: lambda
Encoding: 955 955 87
Width: 599
VWidth: 1000
Flags: W
HStem: -23 21G<78 97.5 504.5 555.5> 659 45<172.221 222.062>
LayerCount: 2
Fore
SplineSet
463 9 m 28,0,1
 439 51 439 51 428.5 79 c 128,-1,2
 418 107 418 107 402.5 158 c 128,-1,3
 387 209 387 209 363 270 c 1,4,-1
 126 -1 l 1,5,6
 109 -23 109 -23 86 -23 c 0,7,8
 70 -23 70 -23 57 -12 c 128,-1,9
 44 -1 44 -1 44 18 c 0,10,11
 44 36 44 36 65 57 c 2,12,-1
 342 325 l 1,13,-1
 242 595 l 1,14,15
 229 627 229 627 219 641.5 c 128,-1,16
 209 656 209 656 193 659 c 1,17,18
 186 659 186 659 177 662 c 0,19,20
 165 667 165 667 165 681 c 1,21,22
 166 688 166 688 168 692 c 128,-1,23
 170 696 170 696 172 698 c 0,24,25
 179 704 179 704 197 704 c 0,26,27
 302 704 302 704 331 630 c 1,28,-1
 544 57 l 2,29,30
 554 29 554 29 565 18 c 0,31,32
 569 14 569 14 571 11 c 0,33,34
 573 7 573 7 573 6 c 128,-1,35
 573 5 573 5 573.5 3 c 128,-1,36
 574 1 574 1 574 0 c 0,37,38
 572 -13 572 -13 564 -17 c 0,39,40
 558 -20 558 -20 553 -21 c 1,41,-1
 529 -21 l 2,42,43
 480 -21 480 -21 463 9 c 28,0,1
EndSplineSet
Validated: 19457
EndChar

StartChar: mu
Encoding: 956 956 88
Width: 619
VWidth: 1000
Flags: W
HStem: -21 45<205.226 319.01 464.406 515.793> 421 20G<492.5 511> 432 20G<198.5 228.5>
VStem: 455 88<326.388 429.14>
LayerCount: 2
Fore
SplineSet
205 187 m 2,0,1
 191 128 191 128 191 102 c 0,2,3
 191 24 191 24 256 24 c 1,4,5
 291 25 291 25 322 48 c 128,-1,6
 353 71 353 71 365 88.5 c 128,-1,7
 377 106 377 106 380 114 c 0,8,9
 383 126 383 126 392 161.5 c 128,-1,10
 401 197 401 197 411 239 c 128,-1,11
 421 281 421 281 425 295 c 2,12,-1
 446 378 l 2,13,14
 451 397 451 397 455 408 c 128,-1,15
 459 419 459 419 471 430 c 128,-1,16
 483 441 483 441 502 441 c 0,17,18
 520 441 520 441 531.5 429.5 c 128,-1,19
 543 418 543 418 543 402 c 0,20,21
 543 401 543 401 525 324 c 1,22,-1
 502 235 l 1,23,-1
 477 132 l 2,24,25
 463 78 463 78 463 60 c 0,26,27
 463 24 463 24 484 24 c 0,28,29
 522 24 522 24 549 133 c 0,30,31
 554 152 554 152 557 157 c 1,32,33
 563 163 563 163 568 164 c 0,34,35
 571 165 571 165 576 165 c 0,36,37
 599 165 599 165 599 143 c 0,38,39
 599 134 599 134 588 97 c 128,-1,40
 577 60 577 60 566 39 c 0,41,42
 535 -21 535 -21 481 -21 c 0,43,44
 452 -21 452 -21 424.5 -6 c 128,-1,45
 397 9 397 9 384 41 c 1,46,47
 324 -21 324 -21 252 -21 c 0,48,49
 199 -21 199 -21 159 3 c 1,50,-1
 115 -173 l 1,51,52
 105 -226 105 -226 62 -226 c 0,53,54
 44 -226 44 -226 32.5 -215 c 128,-1,55
 21 -204 21 -204 21 -187 c 0,56,57
 21 -176 21 -176 25 -162 c 2,58,-1
 168 405 l 1,59,60
 177 452 177 452 220 452 c 0,61,62
 237 452 237 452 249 440.5 c 128,-1,63
 261 429 261 429 261 413 c 0,64,65
 261 408 261 408 247 354 c 2,66,-1
 205 187 l 2,0,1
EndSplineSet
Validated: 19457
EndChar

StartChar: nu
Encoding: 957 957 89
Width: 567
VWidth: 1000
Flags: W
HStem: -10 21G<57 144> 390 52<70.2527 132.645> 432 20G<487 514.5>
VStem: 453 94<339.75 440.14>
LayerCount: 2
Fore
SplineSet
144 52 m 1,0,1
 246 90 246 90 330 180 c 128,-1,2
 414 270 414 270 453 404 c 0,3,4
 468 452 468 452 506 452 c 0,5,6
 523 452 523 452 535 440.5 c 128,-1,7
 547 429 547 429 547 413 c 0,8,9
 547 405 547 405 541.5 384.5 c 128,-1,10
 536 364 536 364 520 328.5 c 128,-1,11
 504 293 504 293 483 259 c 0,12,13
 416 154 416 154 308.5 82 c 128,-1,14
 201 10 201 10 87 -10 c 1,15,-1
 86 -10 l 1,16,-1
 71 -10 l 2,17,18
 43 -10 43 -10 43 13 c 0,19,20
 43 16 43 16 52 54 c 2,21,-1
 92 212 l 2,22,23
 114 298 114 298 117 313 c 0,24,25
 134 383 134 383 134 384 c 2,26,-1
 134 386 l 1,27,28
 126 390 126 390 97 390 c 0,29,30
 78 390 78 390 70 394 c 0,31,32
 65 397 65 397 62 403 c 1,33,34
 60 411 60 411 60 413 c 0,35,36
 60 437 60 437 83 441 c 0,37,38
 86 442 86 442 90 442 c 0,39,40
 190 452 190 452 213 452 c 0,41,42
 224 452 224 452 231 445.5 c 128,-1,43
 238 439 238 439 238 428 c 0,44,45
 238 421 238 421 234 405 c 2,46,-1
 144 52 l 1,0,1
EndSplineSet
Validated: 19457
EndChar

StartChar: xi
Encoding: 958 958 90
Width: 484
VWidth: 1000
Flags: W
HStem: -215 45<209.949 316.977> 275 82<220.22 388.802> 545 82<313.906 456.802>
VStem: 13 75<82.1787 185.817> 93 103<346.205 489.645> 264 48<623.361 706.176> 322 79<-150.44 -71.5>
LayerCount: 2
Fore
SplineSet
88 132 m 0,0,1
 88 97 88 97 114.5 79 c 128,-1,2
 141 61 141 61 209 35 c 0,3,4
 217 32 217 32 253 18.5 c 128,-1,5
 289 5 289 5 320.5 -6.5 c 128,-1,6
 352 -18 352 -18 355 -20 c 0,7,8
 401 -46 401 -46 401 -97 c 0,9,10
 401 -139 401 -139 368.5 -177 c 128,-1,11
 336 -215 336 -215 285 -215 c 1,12,13
 244 -214 244 -214 207.5 -197 c 128,-1,14
 171 -180 171 -180 163 -165 c 0,15,16
 161 -163 161 -163 161 -157 c 0,17,18
 161 -149 161 -149 167.5 -142 c 128,-1,19
 174 -135 174 -135 183 -135 c 0,20,21
 189 -135 189 -135 195 -138 c 0,22,23
 196 -138 196 -138 198.5 -140 c 128,-1,24
 201 -142 201 -142 204 -144 c 0,25,26
 243 -170 243 -170 285 -170 c 0,27,28
 301 -170 301 -170 311.5 -157 c 128,-1,29
 322 -144 322 -144 322 -129 c 0,30,31
 322 -119 322 -119 317 -112.5 c 128,-1,32
 312 -106 312 -106 306.5 -103.5 c 128,-1,33
 301 -101 301 -101 290 -97 c 0,34,35
 271 -89 271 -89 244 -80 c 1,36,37
 209 -66 209 -66 137 -40 c 0,38,39
 117 -32 117 -32 104 -25.5 c 128,-1,40
 91 -19 91 -19 66 -1.5 c 128,-1,41
 41 16 41 16 27 43 c 128,-1,42
 13 70 13 70 13 104 c 0,43,44
 13 143 13 143 44 204 c 128,-1,45
 75 265 75 265 148 313 c 1,46,47
 93 353 93 353 93 419 c 0,48,49
 93 476 93 476 136 531 c 128,-1,50
 179 586 179 586 267 613 c 1,51,52
 264 622 264 622 264 638 c 2,53,-1
 264 645 l 1,54,-1
 264 648 l 2,55,56
 264 677 264 677 271 692 c 128,-1,57
 278 707 278 707 293 707 c 0,58,59
 304 707 304 707 310.5 699.5 c 128,-1,60
 317 692 317 692 317 684 c 0,61,62
 317 682 317 682 314.5 669.5 c 128,-1,63
 312 657 312 657 312 644 c 0,64,65
 312 629 312 629 313 623 c 1,66,67
 342 627 342 627 368 627 c 0,68,69
 442 627 442 627 457 608 c 0,70,71
 462 602 462 602 463 595 c 0,72,73
 464 593 464 593 464 588 c 0,74,75
 464 545 464 545 373 545 c 2,76,-1
 362 545 l 2,77,78
 317 545 317 545 294 565 c 1,79,80
 253 543 253 543 224.5 500.5 c 128,-1,81
 196 458 196 458 196 412 c 0,82,83
 196 369 196 369 219 345 c 1,84,85
 258 357 258 357 302 357 c 0,86,87
 373 357 373 357 389 338 c 0,88,89
 394 332 394 332 395 327 c 0,90,91
 396 324 396 324 396 318 c 0,92,93
 396 275 396 275 305 275 c 2,94,-1
 291 275 l 2,95,96
 284 275 284 275 253 281 c 128,-1,97
 222 287 222 287 200 287 c 1,98,99
 146 257 146 257 117 210 c 128,-1,100
 88 163 88 163 88 132 c 0,0,1
EndSplineSet
Validated: 19457
EndChar

StartChar: omicron
Encoding: 959 959 91
Width: 512
VWidth: 1000
Flags: W
HStem: -21 45<155.35 274.524> 407 45<247.847 369.851>
VStem: 33 97<66.3645 244.729> 395 97<190.371 364.607>
LayerCount: 2
Fore
SplineSet
210 24 m 0,0,1
 244 24 244 24 280 49 c 128,-1,2
 316 74 316 74 340 114 c 0,3,4
 365 157 365 157 380 215.5 c 128,-1,5
 395 274 395 274 395 308 c 0,6,7
 395 358 395 358 372 382.5 c 128,-1,8
 349 407 349 407 315 407 c 0,9,10
 280 407 280 407 244 383 c 128,-1,11
 208 359 208 359 187 324 c 0,12,13
 161 282 161 282 145.5 221.5 c 128,-1,14
 130 161 130 161 130 123 c 0,15,16
 130 69 130 69 154.5 46.5 c 128,-1,17
 179 24 179 24 210 24 c 0,0,1
209 -21 m 0,18,19
 134 -21 134 -21 83.5 29 c 128,-1,20
 33 79 33 79 33 160 c 0,21,22
 33 272 33 272 121.5 362 c 128,-1,23
 210 452 210 452 316 452 c 0,24,25
 393 452 393 452 442.5 401 c 128,-1,26
 492 350 492 350 492 271 c 0,27,28
 492 159 492 159 403.5 69 c 128,-1,29
 315 -21 315 -21 209 -21 c 0,18,19
EndSplineSet
Validated: 19457
EndChar

StartChar: pi
Encoding: 960 960 92
Width: 613
VWidth: 1000
Flags: W
HStem: -21 21G<130 150.5 384 404> 359 82<118.911 231 281 374 420.078 577.654>
VStem: 336 73<76.6589 287.25> 345 102<-6.04333 96.5913>
LayerCount: 2
Fore
SplineSet
215 103 m 2,0,1
 193 17 193 17 177 -2 c 0,2,3
 162 -21 162 -21 139 -21 c 0,4,5
 121 -21 121 -21 109.5 -9.5 c 128,-1,6
 98 2 98 2 98 18 c 0,7,8
 98 29 98 29 116 65 c 1,9,10
 192 228 192 228 231 359 c 1,11,-1
 187 359 l 1,12,-1
 185 359 l 2,13,14
 111 359 111 359 65 290 c 1,15,-1
 64 288 l 2,16,17
 62 286 62 286 60 282.5 c 128,-1,18
 58 279 58 279 56 277 c 0,19,20
 55 276 55 276 53.5 276 c 128,-1,21
 52 276 52 276 51 275 c 0,22,23
 43 273 43 273 41 273 c 0,24,25
 33 273 33 273 27 276 c 0,26,27
 17 282 17 282 17 294 c 0,28,29
 17 296 17 296 17.5 296.5 c 128,-1,30
 18 297 18 297 18 298 c 0,31,32
 22 311 22 311 44 342.5 c 128,-1,33
 66 374 66 374 83 391 c 0,34,35
 133 441 133 441 196 441 c 2,36,-1
 542 441 l 1,37,-1
 548 441 l 2,38,39
 567 441 567 441 578 435 c 1,40,41
 586 429 586 429 590 420 c 0,42,43
 593 412 593 412 593 405 c 0,44,45
 593 359 593 359 533 359 c 2,46,-1
 424 359 l 1,47,48
 409 285 409 285 409 220 c 0,49,50
 409 125 409 125 439 57 c 0,51,52
 447 40 447 40 447 30 c 0,53,54
 447 8 447 8 430.5 -6.5 c 128,-1,55
 414 -21 414 -21 394 -21 c 128,-1,56
 374 -21 374 -21 363.5 -6.5 c 128,-1,57
 353 8 353 8 345 37 c 0,58,59
 336 72 336 72 336 113 c 2,60,-1
 336 119 l 2,61,62
 336 197 336 197 374 359 c 1,63,-1
 281 359 l 1,64,-1
 215 103 l 2,0,1
EndSplineSet
Validated: 19457
EndChar

StartChar: rho
Encoding: 961 961 93
Width: 546
VWidth: 1000
Flags: W
HStem: -21 45<210.415 320.405> 407 45<311.371 412.731>
VStem: 21 88<-214.655 -114> 431 95<198.961 372.906>
LayerCount: 2
Fore
SplineSet
263 24 m 1,0,1
 291 24 291 24 320.5 46.5 c 128,-1,2
 350 69 350 69 369 101 c 0,3,4
 396 147 396 147 413.5 216.5 c 128,-1,5
 431 286 431 286 431 319 c 0,6,7
 431 359 431 359 414.5 383 c 128,-1,8
 398 407 398 407 369 407 c 0,9,10
 360 407 360 407 349.5 404.5 c 128,-1,11
 339 402 339 402 319.5 390.5 c 128,-1,12
 300 379 300 379 282.5 360 c 128,-1,13
 265 341 265 341 245.5 303 c 128,-1,14
 226 265 226 265 213 214 c 0,15,16
 207 194 207 194 200 166.5 c 128,-1,17
 193 139 193 139 188.5 121 c 128,-1,18
 184 103 184 103 184 102 c 0,19,20
 185 95 185 95 188 86.5 c 128,-1,21
 191 78 191 78 199 62 c 128,-1,22
 207 46 207 46 223.5 35.5 c 128,-1,23
 240 25 240 25 263 24 c 1,0,1
122 222 m 2,24,25
 147 319 147 319 219.5 385.5 c 128,-1,26
 292 452 292 452 370 452 c 0,27,28
 439 452 439 452 482.5 403 c 128,-1,29
 526 354 526 354 526 277 c 0,30,31
 526 164 526 164 443.5 71.5 c 128,-1,32
 361 -21 361 -21 264 -21 c 0,33,34
 203 -21 203 -21 166 29 c 1,35,36
 164 21 164 21 160 5 c 128,-1,37
 156 -11 156 -11 152 -27 c 0,38,39
 115 -179 115 -179 109 -194 c 1,40,-1
 109 -196 l 1,41,42
 94 -226 94 -226 62 -226 c 0,43,44
 44 -226 44 -226 32.5 -215 c 128,-1,45
 21 -204 21 -204 21 -187 c 0,46,47
 21 -176 21 -176 25 -162 c 2,48,-1
 122 222 l 2,24,25
EndSplineSet
Validated: 19457
EndChar

StartChar: sigmafinal
Encoding: 962 962 94
Width: 449
VWidth: 1000
Flags: W
HStem: -118 56<166.704 233.438> -118 45<173.733 264.298> 407 45<206.533 402.14>
VStem: 23 75<187.857 301.884> 269 79<-67.2676 31.2778>
LayerCount: 2
Fore
SplineSet
234 -118 m 0,0,1
 213 -118 213 -118 190.5 -111 c 128,-1,2
 168 -104 168 -104 162 -92 c 0,3,4
 160 -86 160 -86 160 -84 c 0,5,6
 160 -75 160 -75 166.5 -68.5 c 128,-1,7
 173 -62 173 -62 183 -62 c 0,8,9
 189 -62 189 -62 198 -66 c 0,10,11
 216 -73 216 -73 234 -73 c 0,12,13
 250 -73 250 -73 259.5 -59.5 c 128,-1,14
 269 -46 269 -46 269 -32 c 0,15,16
 269 -15 269 -15 259.5 -6.5 c 128,-1,17
 250 2 250 2 226 14 c 2,18,-1
 129 66 l 2,19,20
 110 77 110 77 97.5 85 c 128,-1,21
 85 93 85 93 64.5 111.5 c 128,-1,22
 44 130 44 130 33.5 156.5 c 128,-1,23
 23 183 23 183 23 215 c 0,24,25
 23 306 23 306 109 379 c 128,-1,26
 195 452 195 452 314 452 c 0,27,28
 389 452 389 452 418 431 c 0,29,30
 429 422 429 422 429 411 c 0,31,32
 429 406 429 406 428 403 c 2,33,-1
 426 399 l 2,34,35
 418 382 418 382 401 382 c 0,36,37
 399 382 399 382 397 382.5 c 128,-1,38
 395 383 395 383 393.5 383.5 c 128,-1,39
 392 384 392 384 390 385 c 128,-1,40
 388 386 388 386 387 386 c 2,41,-1
 386 386 l 1,42,43
 342 407 342 407 308 407 c 0,44,45
 227 407 227 407 162.5 358 c 128,-1,46
 98 309 98 309 98 247 c 0,47,48
 98 193 98 193 152 163 c 1,49,-1
 285 92 l 1,50,51
 348 60 348 60 348 2 c 0,52,53
 348 -44 348 -44 315 -81 c 128,-1,54
 282 -118 282 -118 234 -118 c 0,0,1
EndSplineSet
Validated: 19457
EndChar

StartChar: sigma
Encoding: 963 963 95
Width: 612
VWidth: 1000
Flags: W
HStem: -21 45<140.598 262.183> 359 82<211.869 352.75 439 576.654>
VStem: 29 86<57.8057 233.464> 374 88<163.851 338.068>
LayerCount: 2
Fore
SplineSet
196 24 m 128,-1,1
 227 24 227 24 260 44.5 c 128,-1,2
 293 65 293 65 318 99 c 0,3,4
 347 139 347 139 360.5 191.5 c 128,-1,5
 374 244 374 244 374 273 c 0,6,7
 374 359 374 359 289 359 c 0,8,9
 240 359 240 359 203.5 331.5 c 128,-1,10
 167 304 167 304 149 263 c 128,-1,11
 131 222 131 222 123 186 c 128,-1,12
 115 150 115 150 115 122 c 0,13,14
 115 68 115 68 140 46 c 128,-1,0
 165 24 165 24 196 24 c 128,-1,1
439 359 m 1,15,16
 462 313 462 313 462 262 c 0,17,18
 462 148 462 148 378 63.5 c 128,-1,19
 294 -21 294 -21 195 -21 c 0,20,21
 124 -21 124 -21 76.5 25.5 c 128,-1,22
 29 72 29 72 29 149 c 0,23,24
 29 216 29 216 65 283 c 128,-1,25
 101 350 101 350 166 395.5 c 128,-1,26
 231 441 231 441 306 441 c 2,27,-1
 541 441 l 1,28,-1
 547 441 l 2,29,30
 566 441 566 441 577 435 c 0,31,32
 586 429 586 429 589 420 c 0,33,34
 592 412 592 412 592 405 c 0,35,36
 592 359 592 359 532 359 c 2,37,-1
 439 359 l 1,15,16
EndSplineSet
Validated: 19457
EndChar

StartChar: tau
Encoding: 964 964 96
Width: 556
VWidth: 1000
Flags: W
HStem: -22 21G<185.5 216> 359 82<118.911 257 311 520.654>
VStem: 154 94<-11.1703 66.5467>
LayerCount: 2
Fore
SplineSet
248 29 m 1,0,1
 237 -22 237 -22 195 -22 c 0,2,3
 176 -22 176 -22 165 -11.5 c 128,-1,4
 154 -1 154 -1 154 16 c 0,5,6
 154 27 154 27 159 41 c 2,7,-1
 257 359 l 1,8,-1
 187 359 l 1,9,-1
 185 359 l 2,10,11
 111 359 111 359 65 290 c 1,12,-1
 64 288 l 2,13,14
 62 286 62 286 60 282.5 c 128,-1,15
 58 279 58 279 56 277 c 0,16,17
 55 276 55 276 53.5 276 c 128,-1,18
 52 276 52 276 51 275 c 0,19,20
 43 273 43 273 41 273 c 0,21,22
 33 273 33 273 27 276 c 0,23,24
 17 282 17 282 17 294 c 0,25,26
 17 296 17 296 17.5 296.5 c 128,-1,27
 18 297 18 297 18 298 c 0,28,29
 22 311 22 311 44 342.5 c 128,-1,30
 66 374 66 374 83 391 c 0,31,32
 133 441 133 441 196 441 c 2,33,-1
 485 441 l 1,34,-1
 491 441 l 2,35,36
 510 441 510 441 521 435 c 0,37,38
 530 429 530 429 533 420 c 0,39,40
 536 412 536 412 536 405 c 0,41,42
 536 359 536 359 476 359 c 2,43,-1
 311 359 l 1,44,-1
 248 29 l 1,0,1
EndSplineSet
Validated: 19457
EndChar

StartChar: upsilon
Encoding: 965 965 97
Width: 568
VWidth: 1000
Flags: W
HStem: -21 45<216.444 351.401> 407 45<118.125 173.937>
VStem: 105 89<46.776 215.925> 176 85<302.416 403.333> 483 65<240.682 382.5>
LayerCount: 2
Fore
SplineSet
469 108 m 0,0,1
 387 -21 387 -21 281 -21 c 0,2,3
 202 -21 202 -21 157 13 c 1,4,5
 105 50 105 50 105 124 c 0,6,7
 105 143 105 143 107.5 157.5 c 128,-1,8
 110 172 110 172 123 214.5 c 128,-1,9
 136 257 136 257 164 329 c 0,10,11
 176 360 176 360 176 384 c 0,12,13
 176 394 176 394 174 400 c 0,14,15
 172 405 172 405 167 407 c 1,16,-1
 162 407 l 2,17,18
 136 407 136 407 110 376.5 c 128,-1,19
 84 346 84 346 69 292 c 0,20,21
 66 281 66 281 61 274 c 0,22,23
 59 270 59 270 52 267 c 0,24,25
 49 266 49 266 43 266 c 0,26,27
 34 266 34 266 26 272 c 0,28,29
 23 275 23 275 22 277 c 0,30,31
 19 283 19 283 19 288 c 2,32,-1
 19 290 l 1,33,34
 20 300 20 300 28.5 322.5 c 128,-1,35
 37 345 37 345 53 376 c 128,-1,36
 69 407 69 407 99 429.5 c 128,-1,37
 129 452 129 452 165 452 c 0,38,39
 206 452 206 452 233.5 425 c 128,-1,40
 261 398 261 398 261 358 c 0,41,42
 261 339 261 339 246 298 c 0,43,44
 194 165 194 165 194 112 c 0,45,46
 194 24 194 24 284 24 c 0,47,48
 325 24 325 24 364 55 c 128,-1,49
 403 86 403 86 428 129 c 128,-1,50
 453 172 453 172 468 214 c 128,-1,51
 483 256 483 256 483 281 c 0,52,53
 483 327 483 327 450 357 c 1,54,55
 431 376 431 376 431 393 c 0,56,57
 431 415 431 415 450.5 434 c 128,-1,58
 470 453 470 453 492 453 c 0,59,60
 499 453 499 453 506.5 450.5 c 128,-1,61
 514 448 514 448 524.5 440.5 c 128,-1,62
 535 433 535 433 541.5 414.5 c 128,-1,63
 548 396 548 396 548 369 c 0,64,65
 548 328 548 328 528 249 c 128,-1,66
 508 170 508 170 469 108 c 0,0,1
EndSplineSet
Validated: 19457
EndChar

StartChar: varphi
Encoding: 966 966 98
Width: 671
VWidth: 1000
Flags: W
HStem: -21 82<298.363 422.627> -9 78<171.572 215> 370 82<435.771 566.313> 421 20G<155.5 164.5>
VStem: 41 49<136.441 295.384> 160 93<-217.686 -113.719> 593 51<200.214 343.857>
LayerCount: 2
Fore
SplineSet
298 61 m 1,0,1
 317 61 l 2,2,3
 426 61 426 61 509.5 129.5 c 128,-1,4
 593 198 593 198 593 280 c 0,5,6
 593 321 593 321 569 345.5 c 128,-1,7
 545 370 545 370 506 370 c 0,8,9
 437 370 437 370 379 295 c 0,10,11
 356 266 356 266 340 227 c 128,-1,12
 324 188 324 188 319 168 c 128,-1,13
 314 148 314 148 307 112 c 0,14,15
 306 108 306 108 303 89 c 128,-1,16
 300 70 300 70 298 61 c 1,0,1
253 -183 m 0,17,18
 248 -205 248 -205 232.5 -216.5 c 128,-1,19
 217 -228 217 -228 201 -228 c 128,-1,20
 185 -228 185 -228 172.5 -218 c 128,-1,21
 160 -208 160 -208 160 -191 c 2,22,-1
 160 -189 l 1,23,-1
 160 -187 l 1,24,25
 161 -179 161 -179 215 -9 c 1,26,27
 142 10 142 10 91.5 61.5 c 128,-1,28
 41 113 41 113 41 191 c 1,29,30
 42 258 42 258 79.5 340.5 c 128,-1,31
 117 423 117 423 148 438 c 0,32,33
 152 441 152 441 159 441 c 1,34,35
 170 439 170 439 172 438 c 0,36,37
 178 434 178 434 180 430 c 0,38,39
 182 424 182 424 182 420 c 0,40,41
 182 413 182 413 180 410 c 0,42,43
 179 408 179 408 170 399 c 0,44,45
 133 356 133 356 111.5 293.5 c 128,-1,46
 90 231 90 231 90 202 c 0,47,48
 90 153 90 153 129 118.5 c 128,-1,49
 168 84 168 84 240 69 c 1,50,51
 253 112 253 112 260.5 137 c 128,-1,52
 268 162 268 162 284.5 208 c 128,-1,53
 301 254 301 254 315.5 282 c 128,-1,54
 330 310 330 310 352.5 346 c 128,-1,55
 375 382 375 382 397.5 402.5 c 128,-1,56
 420 423 420 423 450.5 437.5 c 128,-1,57
 481 452 481 452 515 452 c 0,58,59
 573 452 573 452 608.5 411.5 c 128,-1,60
 644 371 644 371 644 301 c 0,61,62
 644 178 644 178 541 78.5 c 128,-1,63
 438 -21 438 -21 308 -21 c 0,64,65
 288 -21 288 -21 282 -20 c 1,66,67
 259 -158 259 -158 253 -183 c 0,17,18
EndSplineSet
Validated: 19457
EndChar

StartChar: chi
Encoding: 967 967 99
Width: 640
VWidth: 1000
Flags: W
HStem: -215 45<475.621 539.069> -204 21G<40.5 47> 407 45<101.295 163.49> 421 20G<590 599>
VStem: 552 41<-155.833 -123.219>
LayerCount: 2
Fore
SplineSet
365 132 m 1,0,1
 456 -157 456 -157 498 -170 c 1,2,3
 501 -170 l 2,4,5
 507 -170 507 -170 514.5 -167.5 c 128,-1,6
 522 -165 522 -165 532 -156 c 128,-1,7
 542 -147 542 -147 547 -133 c 0,8,9
 549 -126 549 -126 551 -124 c 0,10,11
 552 -123 552 -123 552 -122.5 c 128,-1,12
 552 -122 552 -122 553 -121 c 0,13,14
 558 -116 558 -116 570 -116 c 0,15,16
 581 -116 581 -116 587 -123 c 128,-1,17
 593 -130 593 -130 593 -137 c 2,18,-1
 593 -141 l 1,19,-1
 593 -142 l 1,20,21
 589 -165 589 -165 563 -190 c 128,-1,22
 537 -215 537 -215 494 -215 c 0,23,24
 460 -215 460 -215 435 -207 c 128,-1,25
 410 -199 410 -199 394.5 -183 c 128,-1,26
 379 -167 379 -167 372 -156.5 c 128,-1,27
 365 -146 365 -146 357 -129 c 0,28,29
 324 -58 324 -58 291 52 c 1,30,-1
 248 6 l 1,31,-1
 81 -177 l 1,32,33
 77 -183 77 -183 63 -197 c 2,34,-1
 62 -198 l 2,35,36
 61 -199 61 -199 57 -201 c 0,37,38
 48 -204 48 -204 46 -204 c 0,39,40
 35 -204 35 -204 28.5 -197 c 128,-1,41
 22 -190 22 -190 22 -181 c 0,42,43
 22 -174 22 -174 27 -167 c 0,44,45
 31 -161 31 -161 36 -156 c 2,46,-1
 270 98 l 2,47,48
 272 100 272 100 274 102 c 2,49,-1
 275 104 l 1,50,51
 250 196 250 196 213 285 c 0,52,53
 166 400 166 400 142 407 c 1,54,-1
 139 407 l 2,55,56
 128 407 128 407 114 398 c 128,-1,57
 100 389 100 389 95 373 c 1,58,59
 90 362 90 362 86 358 c 0,60,61
 84 357 84 357 83 356 c 0,62,63
 77 353 77 353 71 353 c 0,64,65
 63 353 63 353 59 355 c 0,66,67
 48 360 48 360 48 366 c 1,68,69
 47 369 47 369 47 375 c 0,70,71
 47 398 47 398 75 425 c 128,-1,72
 103 452 103 452 146 452 c 0,73,74
 242 452 242 452 280 373 c 0,75,76
 306 317 306 317 350 185 c 1,77,-1
 571 426 l 1,78,-1
 573 428 l 2,79,80
 575 430 575 430 577 433 c 0,81,82
 585 441 585 441 595 441 c 0,83,84
 603 441 603 441 610.5 435.5 c 128,-1,85
 618 430 618 430 618 417 c 2,86,-1
 618 414 l 1,87,88
 616 404 616 404 605 393 c 2,89,-1
 365 132 l 1,0,1
EndSplineSet
Validated: 19457
EndChar

StartChar: psi
Encoding: 968 968 100
Width: 682
VWidth: 1000
Flags: W
HStem: -21 45<239.008 284 344 426.999> 407 45<118.125 173.937> 684 20G<480.5 489.5>
VStem: 106 90<62.8711 220.79> 176 85<300.398 403.333> 545 117<354.237 436.301> 597 65<239.305 345.188>
LayerCount: 2
Fore
SplineSet
344 24 m 1,0,1
 428 26 428 26 505 103 c 0,2,3
 551 149 551 149 574 199 c 128,-1,4
 597 249 597 249 597 281 c 0,5,6
 597 327 597 327 564 357 c 1,7,8
 545 376 545 376 545 393 c 0,9,10
 545 415 545 415 564.5 434 c 128,-1,11
 584 453 584 453 606 453 c 0,12,13
 613 453 613 453 620.5 450.5 c 128,-1,14
 628 448 628 448 638.5 440.5 c 128,-1,15
 649 433 649 433 655.5 414.5 c 128,-1,16
 662 396 662 396 662 369 c 2,17,-1
 662 360 l 2,18,19
 662 340 662 340 657 313 c 0,20,21
 643 241 643 241 625 196.5 c 128,-1,22
 607 152 607 152 572 108 c 0,23,24
 471 -18 471 -18 332 -21 c 1,25,26
 325 -52 325 -52 310.5 -108 c 128,-1,27
 296 -164 296 -164 292 -182 c 0,28,29
 287 -201 287 -201 284 -206 c 1,30,31
 277 -213 277 -213 273 -214 c 0,32,33
 272 -214 272 -214 269.5 -214.5 c 128,-1,34
 267 -215 267 -215 264 -215 c 0,35,36
 253 -213 253 -213 251 -212 c 0,37,38
 245 -208 245 -208 243 -204 c 0,39,40
 241 -198 241 -198 241 -194 c 2,41,-1
 241 -193 l 1,42,-1
 284 -18 l 1,43,44
 193 -9 193 -9 149.5 32 c 128,-1,45
 106 73 106 73 106 134 c 0,46,47
 106 179 106 179 162 322 c 0,48,49
 176 360 176 360 176 384 c 0,50,51
 176 394 176 394 174 400 c 0,52,53
 172 405 172 405 167 407 c 1,54,-1
 162 407 l 2,55,56
 136 407 136 407 110 376.5 c 128,-1,57
 84 346 84 346 69 292 c 0,58,59
 66 281 66 281 61 274 c 0,60,61
 59 270 59 270 52 267 c 0,62,63
 49 266 49 266 43 266 c 0,64,65
 34 266 34 266 26 272 c 0,66,67
 23 275 23 275 22 277 c 0,68,69
 19 283 19 283 19 288 c 2,70,-1
 19 290 l 1,71,72
 20 300 20 300 28.5 322.5 c 128,-1,73
 37 345 37 345 53 376 c 128,-1,74
 69 407 69 407 99 429.5 c 128,-1,75
 129 452 129 452 165 452 c 0,76,77
 206 452 206 452 233.5 425 c 128,-1,78
 261 398 261 398 261 358 c 0,79,80
 261 339 261 339 246 298 c 0,81,82
 196 169 196 169 196 127 c 0,83,84
 196 43 196 43 295 27 c 1,85,-1
 457 675 l 2,86,87
 462 692 462 692 464 695 c 0,88,89
 466 699 466 699 473 702 c 0,90,91
 477 704 477 704 484 704 c 1,92,93
 495 702 495 702 497 701 c 0,94,95
 503 697 503 697 505 693 c 0,96,97
 507 687 507 687 507 683 c 2,98,-1
 507 682 l 1,99,-1
 344 24 l 1,0,1
EndSplineSet
Validated: 19457
EndChar

